<?xml version="1.0" encoding="UTF-8" standalone="no"?>
<!DOCTYPE svg PUBLIC "-//W3C//DTD SVG 1.0//EN" "http://www.w3.org/TR/2001/PR-SVG-20010719/DTD/svg10.dtd">
<svg width="39cm" height="9cm" viewBox="46 77 766 180" xmlns="http://www.w3.org/2000/svg" xmlns:xlink="http://www.w3.org/1999/xlink">
  <g>
    <path style="fill: #b7b79d" d="M 46.8968 211.274 L 172.516,211.274 L 172.516,234.49 L 46.8968,234.49 L 46.8968,211.274z"/>
    <path style="fill: none; fill-opacity:0; stroke-width: 0.02; stroke: #494936" d="M 46.8968 211.274 L 172.516,211.274 L 172.516,234.49 L 46.8968,234.49 L 46.8968,211.274"/>
    <path style="fill: #c9c9b6" d="M 46.8968 211.274 L 60.2167,198.647 L 185.836,198.647 L 172.516,211.274 L 46.8968,211.274z"/>
    <path style="fill: none; fill-opacity:0; stroke-width: 0.02; stroke: #494936" d="M 46.8968 211.274 L 60.2167,198.647 L 185.836,198.647 L 172.516,211.274 L 46.8968,211.274"/>
    <path style="fill: none; fill-opacity:0; stroke-width: 2.12; stroke: #000000" d="M 165.49 221.843 L 135.347,221.843"/>
    <path style="fill: #7a7a5a" d="M 172.516 234.49 L 185.836,221.13 L 185.836,198.647 L 172.516,211.274 L 172.516,234.49z"/>
    <path style="fill: none; fill-opacity:0; stroke-width: 0.02; stroke: #494936" d="M 172.516 234.49 L 185.836,221.13 L 185.836,198.647 L 172.516,211.274 L 172.516,234.49"/>
    <path style="fill: #c9c9b6" d="M 47.6093 249.215 L 61.6219,231.659 L 158.483,231.659 L 144.471,249.215 L 47.6093,249.215z"/>
    <path style="fill: none; fill-opacity:0; stroke-width: 0.02; stroke: #494936" d="M 47.6093 249.215 L 61.6219,231.659 L 158.483,231.659 L 144.471,249.215 L 47.6093,249.215"/>
    <path style="fill: #7a7a5a" d="M 144.471 252.718 L 158.483,237.993 L 158.483,231.659 L 144.471,249.215 L 144.471,252.718z"/>
    <path style="fill: none; fill-opacity:0; stroke-width: 0.02; stroke: #494936" d="M 144.471 252.718 L 158.483,237.993 L 158.483,231.659 L 144.471,249.215 L 144.471,252.718"/>
    <path style="fill: #b7b79d" d="M 47.6093 249.215 L 144.471,249.215 L 144.471,252.718 L 47.6093,252.718 L 47.6093,249.215z"/>
    <path style="fill: none; fill-opacity:0; stroke-width: 0.02; stroke: #494936" d="M 47.6093 249.215 L 144.471,249.215 L 144.471,252.718 L 47.6093,252.718 L 47.6093,249.215"/>
    <path style="fill: #000000" d="M 65.8376 208.483 L 76.3867,198.647 L 165.49,198.647 L 155.693,208.483 L 65.8376,208.483z"/>
    <path style="fill: none; fill-opacity:0; stroke-width: 0.02; stroke: #000000" d="M 65.8376 208.483 L 76.3867,198.647 L 165.49,198.647 L 155.693,208.483 L 65.8376,208.483"/>
    <path style="fill: #c9c9b6" d="M 65.1251 136.124 L 74.9815,127 L 164.124,127 L 154.268,136.124 L 65.1251,136.124z"/>
    <path style="fill: none; fill-opacity:0; stroke-width: 0.02; stroke: #494936" d="M 65.1251 136.124 L 74.9815,127 L 164.124,127 L 154.268,136.124 L 65.1251,136.124"/>
    <path style="fill: #b7b79d" d="M 65.1251 136.124 L 154.98,136.124 L 154.98,207.058 L 65.1251,207.058 L 65.1251,136.124z"/>
    <path style="fill: none; fill-opacity:0; stroke-width: 0.02; stroke: #494936" d="M 65.1251 136.124 L 154.941,136.124 L 154.941,207.038 L 65.1251,207.038 L 65.1251,136.124"/>
    <path style="fill: #ffffff" d="M 72.8439 145.228 L 147.242,145.228 L 147.242,200.032 L 72.8439,200.032 L 72.8439,145.228z"/>
    <path style="fill: none; fill-opacity:0; stroke-width: 0.02; stroke: #494936" d="M 72.8439 145.228 L 147.242,145.228 L 147.242,200.012 L 72.8439,200.012 L 72.8439,145.228"/>
    <path style="fill: #7a7a5a" d="M 154.268 206.385 L 164.124,196.549 L 164.124,127 L 154.268,136.124 L 154.268,206.385z"/>
    <path style="fill: none; fill-opacity:0; stroke-width: 0.02; stroke: #494936" d="M 154.268 206.385 L 164.124,196.549 L 164.124,127 L 154.268,136.124 L 154.268,206.385"/>
  </g>
  <g>
    <path style="fill: #b7b79d" d="M 594.148 162.507 L 594.148,256.288 L 652.591,256.288 L 652.591,162.507 L 594.148,162.507z"/>
    <path style="fill: #b7b79d" d="M 594.467 162.863 L 594.467,256.645 L 652.91,256.645 L 652.91,162.863 L 594.467,162.863z"/>
    <path style="fill: none; fill-opacity:0; stroke-width: 0.2; stroke: #494936" d="M 594.467 162.863 L 594.467,256.645 L 652.91,256.645 L 652.91,162.863 L 594.467,162.863"/>
    <path style="fill: #000000" d="M 598.029 187.81 L 621.171,187.81 L 621.171,196.003 L 598.029,196.003 L 598.029,187.81z"/>
    <path style="fill: none; fill-opacity:0; stroke-width: 0.2; stroke: #ecece7" d="M 598.029 187.81 L 621.159,187.81 L 621.159,195.991 L 598.029,195.991 L 598.029,187.81"/>
    <path style="fill: none; fill-opacity:0; stroke-width: 0.2; stroke: #494936" d="M 598.373 195.659 L 598.373,188.142 L 620.815,188.142"/>
    <path style="fill: #c9c9b6" d="M 594.148 162.507 L 615.201,141.355 L 673.669,141.355 L 652.591,162.507 L 594.148,162.507z"/>
    <path style="fill: #c9c9b6" d="M 594.467 162.863 L 615.557,141.675 L 674.001,141.675 L 652.91,162.863 L 594.467,162.863z"/>
    <path style="fill: none; fill-opacity:0; stroke-width: 0.2; stroke: #494936" d="M 594.467 162.863 L 615.557,141.675 L 674.001,141.675 L 652.91,162.863 L 594.467,162.863"/>
    <path style="fill: #7a7a5a" d="M 652.591 256.288 L 673.669,235.1 L 673.669,141.355 L 652.591,162.507 L 652.591,256.288z"/>
    <path style="fill: #7a7a5a" d="M 652.91 256.645 L 674.001,235.456 L 674.001,141.675 L 652.91,162.863 L 652.91,256.645z"/>
    <path style="fill: none; fill-opacity:0; stroke-width: 0.2; stroke: #494936" d="M 652.91 256.645 L 674.001,235.456 L 674.001,141.675 L 652.91,162.863 L 652.91,256.645"/>
    <path style="fill: none; fill-opacity:0; stroke-width: 22.4; stroke: #ecece7" d="M 652.591 173.107 L 594.824,173.107"/>
    <path style="fill: none; fill-opacity:0; stroke-width: 22.4; stroke: #494936" d="M 652.591 172.419 L 594.824,172.419"/>
    <path style="fill: none; fill-opacity:0; stroke-width: 30.6; stroke: #ecece7" d="M 651.215 173.807 L 651.228,173.795"/>
    <path style="fill: none; fill-opacity:0; stroke-width: 30.6; stroke: #494936" d="M 651.215 173.107 L 651.228,173.095"/>
    <path style="fill: #000000" d="M 625.237 187.81 L 648.353,187.81 L 648.353,196.003 L 625.237,196.003 L 625.237,187.81z"/>
    <path style="fill: none; fill-opacity:0; stroke-width: 0.2; stroke: #ecece7" d="M 625.237 187.81 L 648.341,187.81 L 648.341,195.991 L 625.237,195.991 L 625.237,187.81"/>
    <path style="fill: none; fill-opacity:0; stroke-width: 0.2; stroke: #494936" d="M 625.556 195.659 L 625.556,188.142 L 647.997,188.142"/>
  </g>
  <text font-size="12.8" style="fill: #000000;text-anchor:start;font-family:sans-serif;font-style:normal;font-weight:normal" x="87" y="115">
    <tspan x="87" y="115">A</tspan>
  </text>
  <text font-size="12.8" style="fill: #000000;text-anchor:start;font-family:sans-serif;font-style:normal;font-weight:normal" x="698" y="89">
    <tspan x="698" y="89">http://info.cern.ch</tspan>
  </text>
  <line style="fill: none; fill-opacity:0; stroke-width: 20; stroke: #00ff00" x1="185.836" y1="209.888" x2="594.148" y2="209.576"/>
</svg>
