<?xml version="1.0" encoding="UTF-8" standalone="no"?>
<!DOCTYPE svg PUBLIC "-//W3C//DTD SVG 1.0//EN" "http://www.w3.org/TR/2001/PR-SVG-20010719/DTD/svg10.dtd">
<svg width="27cm" height="15cm" viewBox="100 81 539 282" xmlns="http://www.w3.org/2000/svg" xmlns:xlink="http://www.w3.org/1999/xlink">
  <g>
    <line style="fill: none; fill-opacity:0; stroke-width: 2; stroke: #0000ff" x1="138.134" y1="324.999" x2="182.979" y2="295.604"/>
    <polygon style="fill: #0000ff" points="189.252,291.492 183.629,301.156 182.979,295.604 178.147,292.793 "/>
    <polygon style="fill: none; fill-opacity:0; stroke-width: 2; stroke: #0000ff" points="189.252,291.492 183.629,301.156 182.979,295.604 178.147,292.793 "/>
  </g>
  <g>
    <path style="fill: #b7b79d" d="M 100.897 337.814 L 140.865,337.814 L 140.865,345.2 L 100.897,345.2 L 100.897,337.814z"/>
    <path style="fill: none; fill-opacity:0; stroke-width: 0.02; stroke: #494936" d="M 100.897 337.814 L 140.865,337.814 L 140.865,345.2 L 100.897,345.2 L 100.897,337.814"/>
    <path style="fill: #c9c9b6" d="M 100.897 337.814 L 105.135,333.796 L 145.103,333.796 L 140.865,337.814 L 100.897,337.814z"/>
    <path style="fill: none; fill-opacity:0; stroke-width: 0.02; stroke: #494936" d="M 100.897 337.814 L 105.135,333.796 L 145.103,333.796 L 140.865,337.814 L 100.897,337.814"/>
    <path style="fill: none; fill-opacity:0; stroke-width: 2.12; stroke: #000000" d="M 138.63 341.176 L 129.039,341.176"/>
    <path style="fill: #7a7a5a" d="M 140.865 345.2 L 145.103,340.95 L 145.103,333.796 L 140.865,337.814 L 140.865,345.2z"/>
    <path style="fill: none; fill-opacity:0; stroke-width: 0.02; stroke: #494936" d="M 140.865 345.2 L 145.103,340.95 L 145.103,333.796 L 140.865,337.814 L 140.865,345.2"/>
    <path style="fill: #c9c9b6" d="M 101.124 349.885 L 105.582,344.3 L 136.401,344.3 L 131.942,349.885 L 101.124,349.885z"/>
    <path style="fill: none; fill-opacity:0; stroke-width: 0.02; stroke: #494936" d="M 101.124 349.885 L 105.582,344.3 L 136.401,344.3 L 131.942,349.885 L 101.124,349.885"/>
    <path style="fill: #7a7a5a" d="M 131.942 351 L 136.401,346.315 L 136.401,344.3 L 131.942,349.885 L 131.942,351z"/>
    <path style="fill: none; fill-opacity:0; stroke-width: 0.02; stroke: #494936" d="M 131.942 351 L 136.401,346.315 L 136.401,344.3 L 131.942,349.885 L 131.942,351"/>
    <path style="fill: #b7b79d" d="M 101.124 349.885 L 131.942,349.885 L 131.942,351 L 101.124,351 L 101.124,349.885z"/>
    <path style="fill: none; fill-opacity:0; stroke-width: 0.02; stroke: #494936" d="M 101.124 349.885 L 131.942,349.885 L 131.942,351 L 101.124,351 L 101.124,349.885"/>
    <path style="fill: #000000" d="M 106.923 336.926 L 110.28,333.796 L 138.63,333.796 L 135.513,336.926 L 106.923,336.926z"/>
    <path style="fill: none; fill-opacity:0; stroke-width: 0.02; stroke: #000000" d="M 106.923 336.926 L 110.28,333.796 L 138.63,333.796 L 135.513,336.926 L 106.923,336.926"/>
    <path style="fill: #c9c9b6" d="M 106.697 313.903 L 109.833,311 L 138.195,311 L 135.059,313.903 L 106.697,313.903z"/>
    <path style="fill: none; fill-opacity:0; stroke-width: 0.02; stroke: #494936" d="M 106.697 313.903 L 109.833,311 L 138.195,311 L 135.059,313.903 L 106.697,313.903"/>
    <path style="fill: #b7b79d" d="M 106.697 313.903 L 135.286,313.903 L 135.286,336.472 L 106.697,336.472 L 106.697,313.903z"/>
    <path style="fill: none; fill-opacity:0; stroke-width: 0.02; stroke: #494936" d="M 106.697 313.903 L 135.273,313.903 L 135.273,336.466 L 106.697,336.466 L 106.697,313.903"/>
    <path style="fill: #ffffff" d="M 109.152 316.8 L 132.824,316.8 L 132.824,334.237 L 109.152,334.237 L 109.152,316.8z"/>
    <path style="fill: none; fill-opacity:0; stroke-width: 0.02; stroke: #494936" d="M 109.152 316.8 L 132.824,316.8 L 132.824,334.23 L 109.152,334.23 L 109.152,316.8"/>
    <path style="fill: #7a7a5a" d="M 135.059 336.258 L 138.195,333.128 L 138.195,311 L 135.059,313.903 L 135.059,336.258z"/>
    <path style="fill: none; fill-opacity:0; stroke-width: 0.02; stroke: #494936" d="M 135.059 336.258 L 138.195,333.128 L 138.195,311 L 135.059,313.903 L 135.059,336.258"/>
  </g>
  <g>
    <path style="fill: #b7b79d" d="M 191.147 270.339 L 191.147,302.876 L 211.424,302.876 L 211.424,270.339 L 191.147,270.339z"/>
    <path style="fill: #b7b79d" d="M 191.258 270.462 L 191.258,303 L 211.535,303 L 211.535,270.462 L 191.258,270.462z"/>
    <path style="fill: none; fill-opacity:0; stroke-width: 0.02; stroke: #494936" d="M 191.258 270.462 L 191.258,303 L 211.535,303 L 211.535,270.462 L 191.258,270.462"/>
    <path style="fill: #000000" d="M 192.494 279.118 L 200.523,279.118 L 200.523,281.96 L 192.494,281.96 L 192.494,279.118z"/>
    <path style="fill: none; fill-opacity:0; stroke-width: 0.02; stroke: #ecece7" d="M 192.494 279.118 L 200.519,279.118 L 200.519,281.956 L 192.494,281.956 L 192.494,279.118"/>
    <path style="fill: none; fill-opacity:0; stroke-width: 0.02; stroke: #494936" d="M 192.613 281.841 L 192.613,279.233 L 200.399,279.233"/>
    <path style="fill: #c9c9b6" d="M 191.147 270.339 L 198.452,263 L 218.737,263 L 211.424,270.339 L 191.147,270.339z"/>
    <path style="fill: #c9c9b6" d="M 191.258 270.462 L 198.575,263.111 L 218.852,263.111 L 211.535,270.462 L 191.258,270.462z"/>
    <path style="fill: none; fill-opacity:0; stroke-width: 0.02; stroke: #494936" d="M 191.258 270.462 L 198.575,263.111 L 218.852,263.111 L 211.535,270.462 L 191.258,270.462"/>
    <path style="fill: #7a7a5a" d="M 211.424 302.876 L 218.737,295.525 L 218.737,263 L 211.424,270.339 L 211.424,302.876z"/>
    <path style="fill: #7a7a5a" d="M 211.535 303 L 218.852,295.649 L 218.852,263.111 L 211.535,270.462 L 211.535,303z"/>
    <path style="fill: none; fill-opacity:0; stroke-width: 0.02; stroke: #494936" d="M 211.535 303 L 218.852,295.649 L 218.852,263.111 L 211.535,270.462 L 211.535,303"/>
    <path style="fill: none; fill-opacity:0; stroke-width: 2.24; stroke: #ecece7" d="M 211.424 274.016 L 191.382,274.016"/>
    <path style="fill: none; fill-opacity:0; stroke-width: 2.24; stroke: #494936" d="M 211.424 273.778 L 191.382,273.778"/>
    <path style="fill: none; fill-opacity:0; stroke-width: 3.06; stroke: #ecece7" d="M 210.947 274.259 L 210.951,274.255"/>
    <path style="fill: none; fill-opacity:0; stroke-width: 3.06; stroke: #494936" d="M 210.947 274.016 L 210.951,274.012"/>
    <path style="fill: #000000" d="M 201.934 279.118 L 209.954,279.118 L 209.954,281.96 L 201.934,281.96 L 201.934,279.118z"/>
    <path style="fill: none; fill-opacity:0; stroke-width: 0.02; stroke: #ecece7" d="M 201.934 279.118 L 209.95,279.118 L 209.95,281.956 L 201.934,281.956 L 201.934,279.118"/>
    <path style="fill: none; fill-opacity:0; stroke-width: 0.02; stroke: #494936" d="M 202.044 281.841 L 202.044,279.233 L 209.831,279.233"/>
  </g>
  <g>
    <path style="fill: #b7b79d" d="M 312.424 329.563 L 312.424,362.1 L 332.701,362.1 L 332.701,329.563 L 312.424,329.563z"/>
    <path style="fill: #b7b79d" d="M 312.535 329.686 L 312.535,362.224 L 332.812,362.224 L 332.812,329.686 L 312.535,329.686z"/>
    <path style="fill: none; fill-opacity:0; stroke-width: 0.02; stroke: #494936" d="M 312.535 329.686 L 312.535,362.224 L 332.812,362.224 L 332.812,329.686 L 312.535,329.686"/>
    <path style="fill: #000000" d="M 313.771 338.342 L 321.8,338.342 L 321.8,341.184 L 313.771,341.184 L 313.771,338.342z"/>
    <path style="fill: none; fill-opacity:0; stroke-width: 0.02; stroke: #ecece7" d="M 313.771 338.342 L 321.795,338.342 L 321.795,341.18 L 313.771,341.18 L 313.771,338.342"/>
    <path style="fill: none; fill-opacity:0; stroke-width: 0.02; stroke: #494936" d="M 313.89 341.065 L 313.89,338.457 L 321.676,338.457"/>
    <path style="fill: #c9c9b6" d="M 312.424 329.563 L 319.728,322.224 L 340.014,322.224 L 332.701,329.563 L 312.424,329.563z"/>
    <path style="fill: #c9c9b6" d="M 312.535 329.686 L 319.852,322.335 L 340.129,322.335 L 332.812,329.686 L 312.535,329.686z"/>
    <path style="fill: none; fill-opacity:0; stroke-width: 0.02; stroke: #494936" d="M 312.535 329.686 L 319.852,322.335 L 340.129,322.335 L 332.812,329.686 L 312.535,329.686"/>
    <path style="fill: #7a7a5a" d="M 332.701 362.1 L 340.014,354.749 L 340.014,322.224 L 332.701,329.563 L 332.701,362.1z"/>
    <path style="fill: #7a7a5a" d="M 332.812 362.224 L 340.129,354.873 L 340.129,322.335 L 332.812,329.686 L 332.812,362.224z"/>
    <path style="fill: none; fill-opacity:0; stroke-width: 0.02; stroke: #494936" d="M 332.812 362.224 L 340.129,354.873 L 340.129,322.335 L 332.812,329.686 L 332.812,362.224"/>
    <path style="fill: none; fill-opacity:0; stroke-width: 2.24; stroke: #ecece7" d="M 332.701 333.24 L 312.658,333.24"/>
    <path style="fill: none; fill-opacity:0; stroke-width: 2.24; stroke: #494936" d="M 332.701 333.002 L 312.658,333.002"/>
    <path style="fill: none; fill-opacity:0; stroke-width: 3.06; stroke: #ecece7" d="M 332.224 333.483 L 332.228,333.479"/>
    <path style="fill: none; fill-opacity:0; stroke-width: 3.06; stroke: #494936" d="M 332.224 333.24 L 332.228,333.236"/>
    <path style="fill: #000000" d="M 323.21 338.342 L 331.231,338.342 L 331.231,341.184 L 323.21,341.184 L 323.21,338.342z"/>
    <path style="fill: none; fill-opacity:0; stroke-width: 0.02; stroke: #ecece7" d="M 323.21 338.342 L 331.226,338.342 L 331.226,341.18 L 323.21,341.18 L 323.21,338.342"/>
    <path style="fill: none; fill-opacity:0; stroke-width: 0.02; stroke: #494936" d="M 323.321 341.065 L 323.321,338.457 L 331.107,338.457"/>
  </g>
  <g>
    <path style="fill: #b7b79d" d="M 359.624 235.663 L 359.624,268.2 L 379.901,268.2 L 379.901,235.663 L 359.624,235.663z"/>
    <path style="fill: #b7b79d" d="M 359.735 235.786 L 359.735,268.324 L 380.012,268.324 L 380.012,235.786 L 359.735,235.786z"/>
    <path style="fill: none; fill-opacity:0; stroke-width: 0.02; stroke: #494936" d="M 359.735 235.786 L 359.735,268.324 L 380.012,268.324 L 380.012,235.786 L 359.735,235.786"/>
    <path style="fill: #000000" d="M 360.971 244.442 L 369,244.442 L 369,247.284 L 360.971,247.284 L 360.971,244.442z"/>
    <path style="fill: none; fill-opacity:0; stroke-width: 0.02; stroke: #ecece7" d="M 360.971 244.442 L 368.995,244.442 L 368.995,247.28 L 360.971,247.28 L 360.971,244.442"/>
    <path style="fill: none; fill-opacity:0; stroke-width: 0.02; stroke: #494936" d="M 361.09 247.165 L 361.09,244.557 L 368.876,244.557"/>
    <path style="fill: #c9c9b6" d="M 359.624 235.663 L 366.928,228.324 L 387.214,228.324 L 379.901,235.663 L 359.624,235.663z"/>
    <path style="fill: #c9c9b6" d="M 359.735 235.786 L 367.052,228.435 L 387.329,228.435 L 380.012,235.786 L 359.735,235.786z"/>
    <path style="fill: none; fill-opacity:0; stroke-width: 0.02; stroke: #494936" d="M 359.735 235.786 L 367.052,228.435 L 387.329,228.435 L 380.012,235.786 L 359.735,235.786"/>
    <path style="fill: #7a7a5a" d="M 379.901 268.2 L 387.214,260.849 L 387.214,228.324 L 379.901,235.663 L 379.901,268.2z"/>
    <path style="fill: #7a7a5a" d="M 380.012 268.324 L 387.329,260.973 L 387.329,228.435 L 380.012,235.786 L 380.012,268.324z"/>
    <path style="fill: none; fill-opacity:0; stroke-width: 0.02; stroke: #494936" d="M 380.012 268.324 L 387.329,260.973 L 387.329,228.435 L 380.012,235.786 L 380.012,268.324"/>
    <path style="fill: none; fill-opacity:0; stroke-width: 2.24; stroke: #ecece7" d="M 379.901 239.34 L 359.858,239.34"/>
    <path style="fill: none; fill-opacity:0; stroke-width: 2.24; stroke: #494936" d="M 379.901 239.102 L 359.858,239.102"/>
    <path style="fill: none; fill-opacity:0; stroke-width: 3.06; stroke: #ecece7" d="M 379.424 239.583 L 379.428,239.579"/>
    <path style="fill: none; fill-opacity:0; stroke-width: 3.06; stroke: #494936" d="M 379.424 239.34 L 379.428,239.336"/>
    <path style="fill: #000000" d="M 370.41 244.442 L 378.431,244.442 L 378.431,247.284 L 370.41,247.284 L 370.41,244.442z"/>
    <path style="fill: none; fill-opacity:0; stroke-width: 0.02; stroke: #ecece7" d="M 370.41 244.442 L 378.426,244.442 L 378.426,247.28 L 370.41,247.28 L 370.41,244.442"/>
    <path style="fill: none; fill-opacity:0; stroke-width: 0.02; stroke: #494936" d="M 370.521 247.165 L 370.521,244.557 L 378.307,244.557"/>
  </g>
  <g>
    <path style="fill: #b7b79d" d="M 486.824 150.763 L 486.824,183.301 L 507.101,183.301 L 507.101,150.763 L 486.824,150.763z"/>
    <path style="fill: #b7b79d" d="M 486.935 150.886 L 486.935,183.424 L 507.212,183.424 L 507.212,150.886 L 486.935,150.886z"/>
    <path style="fill: none; fill-opacity:0; stroke-width: 0.02; stroke: #494936" d="M 486.935 150.886 L 486.935,183.424 L 507.212,183.424 L 507.212,150.886 L 486.935,150.886"/>
    <path style="fill: #000000" d="M 488.171 159.542 L 496.2,159.542 L 496.2,162.384 L 488.171,162.384 L 488.171,159.542z"/>
    <path style="fill: none; fill-opacity:0; stroke-width: 0.02; stroke: #ecece7" d="M 488.171 159.542 L 496.195,159.542 L 496.195,162.38 L 488.171,162.38 L 488.171,159.542"/>
    <path style="fill: none; fill-opacity:0; stroke-width: 0.02; stroke: #494936" d="M 488.29 162.265 L 488.29,159.657 L 496.076,159.657"/>
    <path style="fill: #c9c9b6" d="M 486.824 150.763 L 494.128,143.424 L 514.414,143.424 L 507.101,150.763 L 486.824,150.763z"/>
    <path style="fill: #c9c9b6" d="M 486.935 150.886 L 494.252,143.535 L 514.529,143.535 L 507.212,150.886 L 486.935,150.886z"/>
    <path style="fill: none; fill-opacity:0; stroke-width: 0.02; stroke: #494936" d="M 486.935 150.886 L 494.252,143.535 L 514.529,143.535 L 507.212,150.886 L 486.935,150.886"/>
    <path style="fill: #7a7a5a" d="M 507.101 183.301 L 514.414,175.949 L 514.414,143.424 L 507.101,150.763 L 507.101,183.301z"/>
    <path style="fill: #7a7a5a" d="M 507.212 183.424 L 514.529,176.073 L 514.529,143.535 L 507.212,150.886 L 507.212,183.424z"/>
    <path style="fill: none; fill-opacity:0; stroke-width: 0.02; stroke: #494936" d="M 507.212 183.424 L 514.529,176.073 L 514.529,143.535 L 507.212,150.886 L 507.212,183.424"/>
    <path style="fill: none; fill-opacity:0; stroke-width: 2.24; stroke: #ecece7" d="M 507.101 154.441 L 487.058,154.441"/>
    <path style="fill: none; fill-opacity:0; stroke-width: 2.24; stroke: #494936" d="M 507.101 154.202 L 487.058,154.202"/>
    <path style="fill: none; fill-opacity:0; stroke-width: 3.06; stroke: #ecece7" d="M 506.624 154.684 L 506.628,154.679"/>
    <path style="fill: none; fill-opacity:0; stroke-width: 3.06; stroke: #494936" d="M 506.624 154.441 L 506.628,154.436"/>
    <path style="fill: #000000" d="M 497.61 159.542 L 505.631,159.542 L 505.631,162.384 L 497.61,162.384 L 497.61,159.542z"/>
    <path style="fill: none; fill-opacity:0; stroke-width: 0.02; stroke: #ecece7" d="M 497.61 159.542 L 505.626,159.542 L 505.626,162.38 L 497.61,162.38 L 497.61,159.542"/>
    <path style="fill: none; fill-opacity:0; stroke-width: 0.02; stroke: #494936" d="M 497.721 162.265 L 497.721,159.657 L 505.507,159.657"/>
  </g>
  <g>
    <path style="fill: #b7b79d" d="M 499.024 282.863 L 499.024,315.4 L 519.301,315.4 L 519.301,282.863 L 499.024,282.863z"/>
    <path style="fill: #b7b79d" d="M 499.135 282.986 L 499.135,315.524 L 519.412,315.524 L 519.412,282.986 L 499.135,282.986z"/>
    <path style="fill: none; fill-opacity:0; stroke-width: 0.02; stroke: #494936" d="M 499.135 282.986 L 499.135,315.524 L 519.412,315.524 L 519.412,282.986 L 499.135,282.986"/>
    <path style="fill: #000000" d="M 500.371 291.642 L 508.4,291.642 L 508.4,294.484 L 500.371,294.484 L 500.371,291.642z"/>
    <path style="fill: none; fill-opacity:0; stroke-width: 0.02; stroke: #ecece7" d="M 500.371 291.642 L 508.395,291.642 L 508.395,294.48 L 500.371,294.48 L 500.371,291.642"/>
    <path style="fill: none; fill-opacity:0; stroke-width: 0.02; stroke: #494936" d="M 500.49 294.365 L 500.49,291.757 L 508.276,291.757"/>
    <path style="fill: #c9c9b6" d="M 499.024 282.863 L 506.328,275.524 L 526.614,275.524 L 519.301,282.863 L 499.024,282.863z"/>
    <path style="fill: #c9c9b6" d="M 499.135 282.986 L 506.452,275.635 L 526.729,275.635 L 519.412,282.986 L 499.135,282.986z"/>
    <path style="fill: none; fill-opacity:0; stroke-width: 0.02; stroke: #494936" d="M 499.135 282.986 L 506.452,275.635 L 526.729,275.635 L 519.412,282.986 L 499.135,282.986"/>
    <path style="fill: #7a7a5a" d="M 519.301 315.4 L 526.614,308.049 L 526.614,275.524 L 519.301,282.863 L 519.301,315.4z"/>
    <path style="fill: #7a7a5a" d="M 519.412 315.524 L 526.729,308.173 L 526.729,275.635 L 519.412,282.986 L 519.412,315.524z"/>
    <path style="fill: none; fill-opacity:0; stroke-width: 0.02; stroke: #494936" d="M 519.412 315.524 L 526.729,308.173 L 526.729,275.635 L 519.412,282.986 L 519.412,315.524"/>
    <path style="fill: none; fill-opacity:0; stroke-width: 2.24; stroke: #ecece7" d="M 519.301 286.54 L 499.258,286.54"/>
    <path style="fill: none; fill-opacity:0; stroke-width: 2.24; stroke: #494936" d="M 519.301 286.302 L 499.258,286.302"/>
    <path style="fill: none; fill-opacity:0; stroke-width: 3.06; stroke: #ecece7" d="M 518.824 286.783 L 518.828,286.779"/>
    <path style="fill: none; fill-opacity:0; stroke-width: 3.06; stroke: #494936" d="M 518.824 286.54 L 518.828,286.536"/>
    <path style="fill: #000000" d="M 509.81 291.642 L 517.831,291.642 L 517.831,294.484 L 509.81,294.484 L 509.81,291.642z"/>
    <path style="fill: none; fill-opacity:0; stroke-width: 0.02; stroke: #ecece7" d="M 509.81 291.642 L 517.826,291.642 L 517.826,294.48 L 509.81,294.48 L 509.81,291.642"/>
    <path style="fill: none; fill-opacity:0; stroke-width: 0.02; stroke: #494936" d="M 509.921 294.365 L 509.921,291.757 L 517.707,291.757"/>
  </g>
  <line style="fill: none; fill-opacity:0; stroke-width: 2; stroke: #000000" x1="218.866" y1="265.465" x2="312.201" y2="166.118"/>
  <line style="fill: none; fill-opacity:0; stroke-width: 2; stroke: #000000" x1="339.933" y1="154.669" x2="486.804" y2="162.492"/>
  <line style="fill: none; fill-opacity:0; stroke-width: 2; stroke: #000000" x1="333.51" y1="173.172" x2="363.182" y2="232.139"/>
  <line style="fill: none; fill-opacity:0; stroke-width: 2; stroke: #000000" x1="387.341" y1="253.484" x2="499.063" y2="291.313"/>
  <g>
    <line style="fill: none; fill-opacity:0; stroke-width: 2; stroke: #0000ff" x1="218.863" y1="290.582" x2="303.656" y2="331.989"/>
    <polygon style="fill: #0000ff" points="310.395,335.28 299.215,335.385 303.656,331.989 303.603,326.399 "/>
    <polygon style="fill: none; fill-opacity:0; stroke-width: 2; stroke: #0000ff" points="310.395,335.28 299.215,335.385 303.656,331.989 303.603,326.399 "/>
  </g>
  <g>
    <line style="fill: none; fill-opacity:0; stroke-width: 2; stroke: #0000ff" x1="340.145" y1="337.859" x2="489.596" y2="300.456"/>
    <polygon style="fill: #0000ff" points="496.871,298.635 488.384,305.914 489.596,300.456 485.957,296.213 "/>
    <polygon style="fill: none; fill-opacity:0; stroke-width: 2; stroke: #0000ff" points="496.871,298.635 488.384,305.914 489.596,300.456 485.957,296.213 "/>
  </g>
  <g>
    <line style="fill: none; fill-opacity:0; stroke-width: 2; stroke: #0000ff" x1="508.748" y1="275.519" x2="501.14" y2="193.137"/>
    <polygon style="fill: #0000ff" points="500.45,185.669 506.348,195.167 501.14,193.137 496.391,196.086 "/>
    <polygon style="fill: none; fill-opacity:0; stroke-width: 2; stroke: #0000ff" points="500.45,185.669 506.348,195.167 501.14,193.137 496.391,196.086 "/>
  </g>
  <g>
    <path style="fill: #b7b79d" d="M 587.226 127.936 L 627.195,127.936 L 627.195,135.323 L 587.226,135.323 L 587.226,127.936z"/>
    <path style="fill: none; fill-opacity:0; stroke-width: 0.02; stroke: #494936" d="M 587.226 127.936 L 627.195,127.936 L 627.195,135.323 L 587.226,135.323 L 587.226,127.936"/>
    <path style="fill: #c9c9b6" d="M 587.226 127.936 L 591.464,123.919 L 631.433,123.919 L 627.195,127.936 L 587.226,127.936z"/>
    <path style="fill: none; fill-opacity:0; stroke-width: 0.02; stroke: #494936" d="M 587.226 127.936 L 591.464,123.919 L 631.433,123.919 L 627.195,127.936 L 587.226,127.936"/>
    <path style="fill: none; fill-opacity:0; stroke-width: 2.12; stroke: #000000" d="M 624.959 131.299 L 615.368,131.299"/>
    <path style="fill: #7a7a5a" d="M 627.195 135.323 L 631.433,131.072 L 631.433,123.919 L 627.195,127.936 L 627.195,135.323z"/>
    <path style="fill: none; fill-opacity:0; stroke-width: 0.02; stroke: #494936" d="M 627.195 135.323 L 631.433,131.072 L 631.433,123.919 L 627.195,127.936 L 627.195,135.323"/>
    <path style="fill: #c9c9b6" d="M 587.453 140.008 L 591.911,134.423 L 622.73,134.423 L 618.271,140.008 L 587.453,140.008z"/>
    <path style="fill: none; fill-opacity:0; stroke-width: 0.02; stroke: #494936" d="M 587.453 140.008 L 591.911,134.423 L 622.73,134.423 L 618.271,140.008 L 587.453,140.008"/>
    <path style="fill: #7a7a5a" d="M 618.271 141.123 L 622.73,136.438 L 622.73,134.423 L 618.271,140.008 L 618.271,141.123z"/>
    <path style="fill: none; fill-opacity:0; stroke-width: 0.02; stroke: #494936" d="M 618.271 141.123 L 622.73,136.438 L 622.73,134.423 L 618.271,140.008 L 618.271,141.123"/>
    <path style="fill: #b7b79d" d="M 587.453 140.008 L 618.271,140.008 L 618.271,141.123 L 587.453,141.123 L 587.453,140.008z"/>
    <path style="fill: none; fill-opacity:0; stroke-width: 0.02; stroke: #494936" d="M 587.453 140.008 L 618.271,140.008 L 618.271,141.123 L 587.453,141.123 L 587.453,140.008"/>
    <path style="fill: #000000" d="M 593.252 127.048 L 596.609,123.919 L 624.959,123.919 L 621.842,127.048 L 593.252,127.048z"/>
    <path style="fill: none; fill-opacity:0; stroke-width: 0.02; stroke: #000000" d="M 593.252 127.048 L 596.609,123.919 L 624.959,123.919 L 621.842,127.048 L 593.252,127.048"/>
    <path style="fill: #c9c9b6" d="M 593.026 104.026 L 596.162,101.123 L 624.524,101.123 L 621.388,104.026 L 593.026,104.026z"/>
    <path style="fill: none; fill-opacity:0; stroke-width: 0.02; stroke: #494936" d="M 593.026 104.026 L 596.162,101.123 L 624.524,101.123 L 621.388,104.026 L 593.026,104.026"/>
    <path style="fill: #b7b79d" d="M 593.026 104.026 L 621.615,104.026 L 621.615,126.595 L 593.026,126.595 L 593.026,104.026z"/>
    <path style="fill: none; fill-opacity:0; stroke-width: 0.02; stroke: #494936" d="M 593.026 104.026 L 621.603,104.026 L 621.603,126.589 L 593.026,126.589 L 593.026,104.026"/>
    <path style="fill: #ffffff" d="M 595.482 106.923 L 619.153,106.923 L 619.153,124.36 L 595.482,124.36 L 595.482,106.923z"/>
    <path style="fill: none; fill-opacity:0; stroke-width: 0.02; stroke: #494936" d="M 595.482 106.923 L 619.153,106.923 L 619.153,124.353 L 595.482,124.353 L 595.482,106.923"/>
    <path style="fill: #7a7a5a" d="M 621.388 126.381 L 624.524,123.251 L 624.524,101.123 L 621.388,104.026 L 621.388,126.381z"/>
    <path style="fill: none; fill-opacity:0; stroke-width: 0.02; stroke: #494936" d="M 621.388 126.381 L 624.524,123.251 L 624.524,101.123 L 621.388,104.026 L 621.388,126.381"/>
  </g>
  <line style="fill: none; fill-opacity:0; stroke-width: 2; stroke: #000000" x1="218.865" y1="279.355" x2="359.598" y2="250.389"/>
  <g>
    <line style="fill: none; fill-opacity:0; stroke-width: 2; stroke: #0000ff" x1="514.541" y1="157.536" x2="578.872" y2="135.373"/>
    <polygon style="fill: #0000ff" points="585.963,132.93 578.137,140.914 578.872,135.373 574.88,131.46 "/>
    <polygon style="fill: none; fill-opacity:0; stroke-width: 2; stroke: #0000ff" points="585.963,132.93 578.137,140.914 578.872,135.373 574.88,131.46 "/>
  </g>
  <text font-size="12.7998" style="fill: #000000;text-anchor:start;font-family:sans-serif;font-style:normal;font-weight:normal" x="100" y="303">
    <tspan x="100" y="303">A</tspan>
  </text>
  <text font-size="12.7998" style="fill: #000000;text-anchor:start;font-family:sans-serif;font-style:normal;font-weight:normal" x="630" y="93">
    <tspan x="630" y="93">B</tspan>
  </text>
  <g>
    <rect style="fill: #ff0000" x="288" y="125" width="65" height="63"/>
    <rect style="fill: none; fill-opacity:0; stroke-width: 2; stroke: #ff0000" x="288" y="125" width="65" height="63"/>
  </g>
  <g>
    <path style="fill: #b7b79d" d="M 303.024 142.963 L 303.024,175.501 L 323.301,175.501 L 323.301,142.963 L 303.024,142.963z"/>
    <path style="fill: #b7b79d" d="M 303.135 143.086 L 303.135,175.624 L 323.412,175.624 L 323.412,143.086 L 303.135,143.086z"/>
    <path style="fill: none; fill-opacity:0; stroke-width: 0.02; stroke: #494936" d="M 303.135 143.086 L 303.135,175.624 L 323.412,175.624 L 323.412,143.086 L 303.135,143.086"/>
    <path style="fill: #000000" d="M 304.371 151.742 L 312.4,151.742 L 312.4,154.584 L 304.371,154.584 L 304.371,151.742z"/>
    <path style="fill: none; fill-opacity:0; stroke-width: 0.02; stroke: #ecece7" d="M 304.371 151.742 L 312.395,151.742 L 312.395,154.58 L 304.371,154.58 L 304.371,151.742"/>
    <path style="fill: none; fill-opacity:0; stroke-width: 0.02; stroke: #494936" d="M 304.49 154.465 L 304.49,151.857 L 312.276,151.857"/>
    <path style="fill: #c9c9b6" d="M 303.024 142.963 L 310.329,135.624 L 330.614,135.624 L 323.301,142.963 L 303.024,142.963z"/>
    <path style="fill: #c9c9b6" d="M 303.135 143.086 L 310.452,135.735 L 330.729,135.735 L 323.412,143.086 L 303.135,143.086z"/>
    <path style="fill: none; fill-opacity:0; stroke-width: 0.02; stroke: #494936" d="M 303.135 143.086 L 310.452,135.735 L 330.729,135.735 L 323.412,143.086 L 303.135,143.086"/>
    <path style="fill: #7a7a5a" d="M 323.301 175.501 L 330.614,168.149 L 330.614,135.624 L 323.301,142.963 L 323.301,175.501z"/>
    <path style="fill: #7a7a5a" d="M 323.412 175.624 L 330.729,168.273 L 330.729,135.735 L 323.412,143.086 L 323.412,175.624z"/>
    <path style="fill: none; fill-opacity:0; stroke-width: 0.02; stroke: #494936" d="M 323.412 175.624 L 330.729,168.273 L 330.729,135.735 L 323.412,143.086 L 323.412,175.624"/>
    <path style="fill: none; fill-opacity:0; stroke-width: 2.24; stroke: #ecece7" d="M 323.301 146.641 L 303.258,146.641"/>
    <path style="fill: none; fill-opacity:0; stroke-width: 2.24; stroke: #494936" d="M 323.301 146.402 L 303.258,146.402"/>
    <path style="fill: none; fill-opacity:0; stroke-width: 3.06; stroke: #ecece7" d="M 322.824 146.884 L 322.828,146.879"/>
    <path style="fill: none; fill-opacity:0; stroke-width: 3.06; stroke: #494936" d="M 322.824 146.641 L 322.828,146.636"/>
    <path style="fill: #000000" d="M 313.81 151.742 L 321.831,151.742 L 321.831,154.584 L 313.81,154.584 L 313.81,151.742z"/>
    <path style="fill: none; fill-opacity:0; stroke-width: 0.02; stroke: #ecece7" d="M 313.81 151.742 L 321.827,151.742 L 321.827,154.58 L 313.81,154.58 L 313.81,151.742"/>
    <path style="fill: none; fill-opacity:0; stroke-width: 0.02; stroke: #494936" d="M 313.921 154.465 L 313.921,151.857 L 321.707,151.857"/>
  </g>
</svg>
