<?xml version="1.0" encoding="UTF-8" standalone="no"?>
<!DOCTYPE svg PUBLIC "-//W3C//DTD SVG 1.0//EN" "http://www.w3.org/TR/2001/PR-SVG-20010719/DTD/svg10.dtd">
<svg width="16cm" height="22cm" viewBox="62 -381 313 438" xmlns="http://www.w3.org/2000/svg" xmlns:xlink="http://www.w3.org/1999/xlink">
  <g>
    <rect style="fill: #ffffff" x="202" y="-371.915" width="51.575" height="45.5074"/>
    <ellipse style="fill: #ffffff" cx="227.787" cy="-326.408" rx="25.7875" ry="7.58456"/>
    <ellipse style="fill: #ffffff" cx="227.787" cy="-371.915" rx="25.7875" ry="7.58456"/>
    <ellipse style="fill: none; fill-opacity:0; stroke-width: 2; stroke: #000000" cx="227.787" cy="-371.915" rx="25.7875" ry="7.58456"/>
    <path style="fill: none; fill-opacity:0; stroke-width: 2; stroke: #000000" d="M 253.575 -371.915 L 253.575,-326.408 C 253.575,-322.219 242.03,-318.824 227.787,-318.824 C 213.545,-318.824 202,-322.219 202,-326.408 L 202,-371.915"/>
    <text font-size="12.8" style="fill: #000000;text-anchor:middle;font-family:sans-serif;font-style:normal;font-weight:normal" x="227.787" y="-306.824">
      <tspan x="227.787" y="-306.824"></tspan>
    </text>
  </g>
  <g>
    <rect style="fill: #b3b3b3" x="86.8971" y="-237.5" width="27.3804" height="63.8876"/>
    <rect style="fill: none; fill-opacity:0; stroke-width: 1.6; stroke: #000000" x="86.8971" y="-237.5" width="27.3804" height="63.8876"/>
    <rect style="fill: none; fill-opacity:0; stroke-width: 0.2; stroke: #000000" x="89.6351" y="-233.667" width="21.9043" height="7.30144"/>
    <rect style="fill: none; fill-opacity:0; stroke-width: 0.2; stroke: #000000" x="89.6351" y="-226.365" width="21.9043" height="7.30144"/>
    <rect style="fill: none; fill-opacity:0; stroke-width: 0.2; stroke: #000000" x="89.6351" y="-219.064" width="21.9043" height="7.30144"/>
    <rect style="fill: none; fill-opacity:0; stroke-width: 0.2; stroke: #000000" x="89.6351" y="-211.762" width="21.9043" height="7.30144"/>
    <rect style="fill: none; fill-opacity:0; stroke-width: 0.2; stroke: #000000" x="89.6351" y="-203.001" width="13.6902" height="4.38086"/>
    <ellipse style="fill: #00ff00" cx="110.17" cy="-202.271" rx="0.958313" ry="0.958313"/>
    <ellipse style="fill: none; fill-opacity:0; stroke-width: 0.2; stroke: #000000" cx="110.17" cy="-202.271" rx="0.958313" ry="0.958313"/>
    <ellipse style="fill: #ffff00" cx="110.17" cy="-199.35" rx="0.958313" ry="0.958313"/>
    <ellipse style="fill: none; fill-opacity:0; stroke-width: 0.2; stroke: #000000" cx="110.17" cy="-199.35" rx="0.958313" ry="0.958313"/>
    <rect style="fill: #ffffff" x="104.694" y="-201.54" width="3.28565" height="2.92057"/>
    <rect style="fill: none; fill-opacity:0; stroke-width: 0.2; stroke: #000000" x="104.694" y="-201.54" width="3.28565" height="2.92057"/>
    <path style="fill: none; fill-opacity:0; stroke-width: 0.2; stroke: #000000" d="M 91.4605 -192.779 L 91.4605,-176.807"/>
    <path style="fill: none; fill-opacity:0; stroke-width: 0.2; stroke: #000000" d="M 96.0239 -192.779 L 96.0239,-176.807"/>
    <path style="fill: none; fill-opacity:0; stroke-width: 0.2; stroke: #000000" d="M 100.587 -192.779 L 100.587,-176.807"/>
    <path style="fill: none; fill-opacity:0; stroke-width: 0.2; stroke: #000000" d="M 105.151 -192.779 L 105.151,-176.807"/>
    <path style="fill: none; fill-opacity:0; stroke-width: 0.2; stroke: #000000" d="M 109.714 -192.779 L 109.714,-176.807"/>
    <path style="fill: none; fill-opacity:0; stroke-width: 0.2; stroke: #000000" d="M 114.277 -192.779 L 114.277,-176.807"/>
    <polygon style="fill: #999999" points="81.421,-168.136 86.8971,-179.089 86.8971,-173.612 114.277,-173.612 114.277,-179.089 121.579,-168.136 "/>
    <polygon style="fill: none; fill-opacity:0; stroke-width: 0.2; stroke: #000000" points="81.421,-168.136 86.8971,-179.089 86.8971,-173.612 114.277,-173.612 114.277,-179.089 121.579,-168.136 "/>
    <text font-size="12.8" style="fill: #000000;text-anchor:middle;font-family:sans-serif;font-style:normal;font-weight:normal" x="101.5" y="-154.311">
      <tspan x="101.5" y="-154.311"></tspan>
    </text>
  </g>
  <g>
    <rect style="fill: #b3b3b3" x="164.138" y="-204.1" width="27.3804" height="63.8876"/>
    <rect style="fill: none; fill-opacity:0; stroke-width: 1.6; stroke: #000000" x="164.138" y="-204.1" width="27.3804" height="63.8876"/>
    <rect style="fill: none; fill-opacity:0; stroke-width: 0.2; stroke: #000000" x="166.876" y="-200.267" width="21.9043" height="7.30144"/>
    <rect style="fill: none; fill-opacity:0; stroke-width: 0.2; stroke: #000000" x="166.876" y="-192.965" width="21.9043" height="7.30144"/>
    <rect style="fill: none; fill-opacity:0; stroke-width: 0.2; stroke: #000000" x="166.876" y="-185.664" width="21.9043" height="7.30144"/>
    <rect style="fill: none; fill-opacity:0; stroke-width: 0.2; stroke: #000000" x="166.876" y="-178.362" width="21.9043" height="7.30144"/>
    <rect style="fill: none; fill-opacity:0; stroke-width: 0.2; stroke: #000000" x="166.876" y="-169.601" width="13.6902" height="4.38086"/>
    <ellipse style="fill: #00ff00" cx="187.411" cy="-168.871" rx="0.958313" ry="0.958313"/>
    <ellipse style="fill: none; fill-opacity:0; stroke-width: 0.2; stroke: #000000" cx="187.411" cy="-168.871" rx="0.958313" ry="0.958313"/>
    <ellipse style="fill: #ffff00" cx="187.411" cy="-165.95" rx="0.958313" ry="0.958313"/>
    <ellipse style="fill: none; fill-opacity:0; stroke-width: 0.2; stroke: #000000" cx="187.411" cy="-165.95" rx="0.958313" ry="0.958313"/>
    <rect style="fill: #ffffff" x="181.935" y="-168.14" width="3.28565" height="2.92057"/>
    <rect style="fill: none; fill-opacity:0; stroke-width: 0.2; stroke: #000000" x="181.935" y="-168.14" width="3.28565" height="2.92057"/>
    <path style="fill: none; fill-opacity:0; stroke-width: 0.2; stroke: #000000" d="M 168.701 -159.379 L 168.701,-143.407"/>
    <path style="fill: none; fill-opacity:0; stroke-width: 0.2; stroke: #000000" d="M 173.265 -159.379 L 173.265,-143.407"/>
    <path style="fill: none; fill-opacity:0; stroke-width: 0.2; stroke: #000000" d="M 177.828 -159.379 L 177.828,-143.407"/>
    <path style="fill: none; fill-opacity:0; stroke-width: 0.2; stroke: #000000" d="M 182.391 -159.379 L 182.391,-143.407"/>
    <path style="fill: none; fill-opacity:0; stroke-width: 0.2; stroke: #000000" d="M 186.955 -159.379 L 186.955,-143.407"/>
    <path style="fill: none; fill-opacity:0; stroke-width: 0.2; stroke: #000000" d="M 191.518 -159.379 L 191.518,-143.407"/>
    <polygon style="fill: #999999" points="158.662,-134.736 164.138,-145.689 164.138,-140.212 191.518,-140.212 191.518,-145.689 198.82,-134.736 "/>
    <polygon style="fill: none; fill-opacity:0; stroke-width: 0.2; stroke: #000000" points="158.662,-134.736 164.138,-145.689 164.138,-140.212 191.518,-140.212 191.518,-145.689 198.82,-134.736 "/>
    <text font-size="12.8" style="fill: #000000;text-anchor:middle;font-family:sans-serif;font-style:normal;font-weight:normal" x="178.741" y="-120.911">
      <tspan x="178.741" y="-120.911"></tspan>
    </text>
  </g>
  <g>
    <rect style="fill: #b3b3b3" x="257.638" y="-204.5" width="27.3804" height="63.8876"/>
    <rect style="fill: none; fill-opacity:0; stroke-width: 1.6; stroke: #000000" x="257.638" y="-204.5" width="27.3804" height="63.8876"/>
    <rect style="fill: none; fill-opacity:0; stroke-width: 0.2; stroke: #000000" x="260.376" y="-200.667" width="21.9043" height="7.30144"/>
    <rect style="fill: none; fill-opacity:0; stroke-width: 0.2; stroke: #000000" x="260.376" y="-193.365" width="21.9043" height="7.30144"/>
    <rect style="fill: none; fill-opacity:0; stroke-width: 0.2; stroke: #000000" x="260.376" y="-186.064" width="21.9043" height="7.30144"/>
    <rect style="fill: none; fill-opacity:0; stroke-width: 0.2; stroke: #000000" x="260.376" y="-178.762" width="21.9043" height="7.30144"/>
    <rect style="fill: none; fill-opacity:0; stroke-width: 0.2; stroke: #000000" x="260.376" y="-170.001" width="13.6902" height="4.38086"/>
    <ellipse style="fill: #00ff00" cx="280.911" cy="-169.271" rx="0.958313" ry="0.958313"/>
    <ellipse style="fill: none; fill-opacity:0; stroke-width: 0.2; stroke: #000000" cx="280.911" cy="-169.271" rx="0.958313" ry="0.958313"/>
    <ellipse style="fill: #ffff00" cx="280.911" cy="-166.35" rx="0.958313" ry="0.958313"/>
    <ellipse style="fill: none; fill-opacity:0; stroke-width: 0.2; stroke: #000000" cx="280.911" cy="-166.35" rx="0.958313" ry="0.958313"/>
    <rect style="fill: #ffffff" x="275.435" y="-168.54" width="3.28565" height="2.92057"/>
    <rect style="fill: none; fill-opacity:0; stroke-width: 0.2; stroke: #000000" x="275.435" y="-168.54" width="3.28565" height="2.92057"/>
    <path style="fill: none; fill-opacity:0; stroke-width: 0.2; stroke: #000000" d="M 262.201 -159.779 L 262.201,-143.807"/>
    <path style="fill: none; fill-opacity:0; stroke-width: 0.2; stroke: #000000" d="M 266.765 -159.779 L 266.765,-143.807"/>
    <path style="fill: none; fill-opacity:0; stroke-width: 0.2; stroke: #000000" d="M 271.328 -159.779 L 271.328,-143.807"/>
    <path style="fill: none; fill-opacity:0; stroke-width: 0.2; stroke: #000000" d="M 275.892 -159.779 L 275.892,-143.807"/>
    <path style="fill: none; fill-opacity:0; stroke-width: 0.2; stroke: #000000" d="M 280.455 -159.779 L 280.455,-143.807"/>
    <path style="fill: none; fill-opacity:0; stroke-width: 0.2; stroke: #000000" d="M 285.018 -159.779 L 285.018,-143.807"/>
    <polygon style="fill: #999999" points="252.162,-135.136 257.638,-146.089 257.638,-140.612 285.018,-140.612 285.018,-146.089 292.32,-135.136 "/>
    <polygon style="fill: none; fill-opacity:0; stroke-width: 0.2; stroke: #000000" points="252.162,-135.136 257.638,-146.089 257.638,-140.612 285.018,-140.612 285.018,-146.089 292.32,-135.136 "/>
    <text font-size="12.8" style="fill: #000000;text-anchor:middle;font-family:sans-serif;font-style:normal;font-weight:normal" x="272.241" y="-121.311">
      <tspan x="272.241" y="-121.311"></tspan>
    </text>
  </g>
  <g>
    <rect style="fill: #b3b3b3" x="339.138" y="-236.9" width="27.3804" height="63.8876"/>
    <rect style="fill: none; fill-opacity:0; stroke-width: 1.6; stroke: #000000" x="339.138" y="-236.9" width="27.3804" height="63.8876"/>
    <rect style="fill: none; fill-opacity:0; stroke-width: 0.2; stroke: #000000" x="341.876" y="-233.067" width="21.9043" height="7.30144"/>
    <rect style="fill: none; fill-opacity:0; stroke-width: 0.2; stroke: #000000" x="341.876" y="-225.765" width="21.9043" height="7.30144"/>
    <rect style="fill: none; fill-opacity:0; stroke-width: 0.2; stroke: #000000" x="341.876" y="-218.464" width="21.9043" height="7.30144"/>
    <rect style="fill: none; fill-opacity:0; stroke-width: 0.2; stroke: #000000" x="341.876" y="-211.162" width="21.9043" height="7.30144"/>
    <rect style="fill: none; fill-opacity:0; stroke-width: 0.2; stroke: #000000" x="341.876" y="-202.401" width="13.6902" height="4.38086"/>
    <ellipse style="fill: #00ff00" cx="362.411" cy="-201.671" rx="0.958313" ry="0.958313"/>
    <ellipse style="fill: none; fill-opacity:0; stroke-width: 0.2; stroke: #000000" cx="362.411" cy="-201.671" rx="0.958313" ry="0.958313"/>
    <ellipse style="fill: #ffff00" cx="362.411" cy="-198.75" rx="0.958313" ry="0.958313"/>
    <ellipse style="fill: none; fill-opacity:0; stroke-width: 0.2; stroke: #000000" cx="362.411" cy="-198.75" rx="0.958313" ry="0.958313"/>
    <rect style="fill: #ffffff" x="356.935" y="-200.94" width="3.28565" height="2.92057"/>
    <rect style="fill: none; fill-opacity:0; stroke-width: 0.2; stroke: #000000" x="356.935" y="-200.94" width="3.28565" height="2.92057"/>
    <path style="fill: none; fill-opacity:0; stroke-width: 0.2; stroke: #000000" d="M 343.701 -192.179 L 343.701,-176.207"/>
    <path style="fill: none; fill-opacity:0; stroke-width: 0.2; stroke: #000000" d="M 348.265 -192.179 L 348.265,-176.207"/>
    <path style="fill: none; fill-opacity:0; stroke-width: 0.2; stroke: #000000" d="M 352.828 -192.179 L 352.828,-176.207"/>
    <path style="fill: none; fill-opacity:0; stroke-width: 0.2; stroke: #000000" d="M 357.392 -192.179 L 357.392,-176.207"/>
    <path style="fill: none; fill-opacity:0; stroke-width: 0.2; stroke: #000000" d="M 361.955 -192.179 L 361.955,-176.207"/>
    <path style="fill: none; fill-opacity:0; stroke-width: 0.2; stroke: #000000" d="M 366.518 -192.179 L 366.518,-176.207"/>
    <polygon style="fill: #999999" points="333.662,-167.536 339.138,-178.489 339.138,-173.012 366.518,-173.012 366.518,-178.489 373.82,-167.536 "/>
    <polygon style="fill: none; fill-opacity:0; stroke-width: 0.2; stroke: #000000" points="333.662,-167.536 339.138,-178.489 339.138,-173.012 366.518,-173.012 366.518,-178.489 373.82,-167.536 "/>
    <text font-size="12.8" style="fill: #000000;text-anchor:middle;font-family:sans-serif;font-style:normal;font-weight:normal" x="353.741" y="-153.711">
      <tspan x="353.741" y="-153.711"></tspan>
    </text>
  </g>
  <g>
    <polygon style="fill: #b3b3b3" points="197.24,-9.31667 193.68,-7.83333 183,18.8667 183,32.2167 188.34,36.6667 266.66,36.6667 272,32.2167 272,18.8667 261.32,-7.83333 257.76,-9.31667 "/>
    <polygon style="fill: none; fill-opacity:0; stroke-width: 1.6; stroke: #000000" points="197.24,-9.31667 193.68,-7.83333 183,18.8667 183,32.2167 188.34,36.6667 266.66,36.6667 272,32.2167 272,18.8667 261.32,-7.83333 257.76,-9.31667 "/>
    <path style="fill: none; fill-opacity:0; stroke-width: 1.6; stroke: #000000" d="M 184.78 14.4167 L 188.34,15.9 L 266.66,15.9 L 270.22,14.4167"/>
    <path style="fill: none; fill-opacity:0; stroke-width: 1.6; stroke: #000000" d="M 266.66 15.9 L 272,18.8667"/>
    <path style="fill: none; fill-opacity:0; stroke-width: 1.6; stroke: #000000" d="M 183 18.8667 L 188.34,15.9"/>
    <polygon style="fill: #ffffff" points="207.92,-37.5 206.14,-1.9 248.86,-1.9 247.08,-37.5 "/>
    <polygon style="fill: none; fill-opacity:0; stroke-width: 1.6; stroke: #000000" points="207.92,-37.5 206.14,-1.9 248.86,-1.9 247.08,-37.5 "/>
    <polygon style="fill: #000000" points="200.8,-1.9 197.24,8.48333 257.76,8.48333 254.2,-1.9 "/>
    <polygon style="fill: none; fill-opacity:0; stroke-width: 1.6; stroke: #000000" points="200.8,-1.9 197.24,8.48333 257.76,8.48333 254.2,-1.9 "/>
    <ellipse style="fill: #0000ff" cx="200.8" cy="21.0917" rx="0.89" ry="0.89"/>
    <ellipse style="fill: none; fill-opacity:0; stroke-width: 0.4; stroke: #000000" cx="200.8" cy="21.0917" rx="0.89" ry="0.89"/>
    <ellipse style="fill: #0000ff" cx="209.7" cy="21.0917" rx="0.89" ry="0.89"/>
    <ellipse style="fill: none; fill-opacity:0; stroke-width: 0.4; stroke: #000000" cx="209.7" cy="21.0917" rx="0.89" ry="0.89"/>
    <ellipse style="fill: #0000ff" cx="218.6" cy="21.0917" rx="0.89" ry="0.89"/>
    <ellipse style="fill: none; fill-opacity:0; stroke-width: 0.4; stroke: #000000" cx="218.6" cy="21.0917" rx="0.89" ry="0.89"/>
    <ellipse style="fill: #0000ff" cx="200.8" cy="24.8" rx="0.89" ry="0.89"/>
    <ellipse style="fill: none; fill-opacity:0; stroke-width: 0.4; stroke: #000000" cx="200.8" cy="24.8" rx="0.89" ry="0.89"/>
    <ellipse style="fill: #0000ff" cx="209.7" cy="24.8" rx="0.89" ry="0.89"/>
    <ellipse style="fill: none; fill-opacity:0; stroke-width: 0.4; stroke: #000000" cx="209.7" cy="24.8" rx="0.89" ry="0.89"/>
    <ellipse style="fill: #0000ff" cx="218.6" cy="24.8" rx="0.89" ry="0.89"/>
    <ellipse style="fill: none; fill-opacity:0; stroke-width: 0.4; stroke: #000000" cx="218.6" cy="24.8" rx="0.89" ry="0.89"/>
    <ellipse style="fill: #0000ff" cx="200.8" cy="28.5083" rx="0.89" ry="0.89"/>
    <ellipse style="fill: none; fill-opacity:0; stroke-width: 0.4; stroke: #000000" cx="200.8" cy="28.5083" rx="0.89" ry="0.89"/>
    <ellipse style="fill: #0000ff" cx="209.7" cy="28.5083" rx="0.89" ry="0.89"/>
    <ellipse style="fill: none; fill-opacity:0; stroke-width: 0.4; stroke: #000000" cx="209.7" cy="28.5083" rx="0.89" ry="0.89"/>
    <ellipse style="fill: #0000ff" cx="218.6" cy="28.5083" rx="0.89" ry="0.89"/>
    <ellipse style="fill: none; fill-opacity:0; stroke-width: 0.4; stroke: #000000" cx="218.6" cy="28.5083" rx="0.89" ry="0.89"/>
    <ellipse style="fill: #0000ff" cx="200.8" cy="32.2167" rx="0.89" ry="0.89"/>
    <ellipse style="fill: none; fill-opacity:0; stroke-width: 0.4; stroke: #000000" cx="200.8" cy="32.2167" rx="0.89" ry="0.89"/>
    <ellipse style="fill: #0000ff" cx="209.7" cy="32.2167" rx="0.89" ry="0.89"/>
    <ellipse style="fill: none; fill-opacity:0; stroke-width: 0.4; stroke: #000000" cx="209.7" cy="32.2167" rx="0.89" ry="0.89"/>
    <ellipse style="fill: #0000ff" cx="218.6" cy="32.2167" rx="0.89" ry="0.89"/>
    <ellipse style="fill: none; fill-opacity:0; stroke-width: 0.4; stroke: #000000" cx="218.6" cy="32.2167" rx="0.89" ry="0.89"/>
    <ellipse style="fill: #8f8f8f" cx="227.5" cy="21.8333" rx="11.125" ry="3.56"/>
    <ellipse style="fill: none; fill-opacity:0; stroke-width: 0.4; stroke: #000000" cx="227.5" cy="21.8333" rx="11.125" ry="3.56"/>
    <ellipse style="fill: #8f8f8f" cx="249.75" cy="21.8333" rx="11.125" ry="3.56"/>
    <ellipse style="fill: none; fill-opacity:0; stroke-width: 0.4; stroke: #000000" cx="249.75" cy="21.8333" rx="11.125" ry="3.56"/>
    <text font-size="12.8" style="fill: #000000;text-anchor:middle;font-family:sans-serif;font-style:normal;font-weight:normal" x="227.5" y="51.6333">
      <tspan x="227.5" y="51.6333"></tspan>
    </text>
  </g>
  <g>
    <polyline style="fill: none; fill-opacity:0; stroke-width: 2; stroke: #000000" points="227.787,-318.824 227.787,-278.162 101.5,-278.162 101.5,-241.972 "/>
    <polyline style="fill: none; fill-opacity:0; stroke-width: 2; stroke: #000000" points="96.4999,-249.736 101.5,-239.736 106.5,-249.736 "/>
  </g>
  <g>
    <polyline style="fill: none; fill-opacity:0; stroke-width: 2; stroke: #000000" points="227.788,-318.824 227.788,-278.5 178.741,-278.5 178.741,-208.572 "/>
    <polyline style="fill: none; fill-opacity:0; stroke-width: 2; stroke: #000000" points="173.741,-216.336 178.741,-206.336 183.741,-216.336 "/>
  </g>
  <g>
    <polyline style="fill: none; fill-opacity:0; stroke-width: 2; stroke: #000000" points="227.788,-318.824 227.788,-278.5 353.74,-278.5 353.74,-241.372 "/>
    <polyline style="fill: none; fill-opacity:0; stroke-width: 2; stroke: #000000" points="348.74,-249.136 353.74,-239.136 358.74,-249.136 "/>
  </g>
  <g>
    <polyline style="fill: none; fill-opacity:0; stroke-width: 2; stroke: #000000" points="227.788,-318.824 227.788,-278.5 272.24,-278.5 272.24,-208.972 "/>
    <polyline style="fill: none; fill-opacity:0; stroke-width: 2; stroke: #000000" points="267.24,-216.736 272.24,-206.736 277.24,-216.736 "/>
  </g>
  <g>
    <polygon style="fill: #ffffff" points="63,-291.5 84.4,-291.5 96.4,-279.5 96.4,-257.5 63,-257.5 "/>
    <polygon style="fill: none; fill-opacity:0; stroke-width: 2; stroke: #000000" points="63,-291.5 84.4,-291.5 96.4,-279.5 96.4,-257.5 63,-257.5 "/>
    <polyline style="fill: none; fill-opacity:0; stroke-width: 1; stroke: #000000" points="84.4,-291.5 84.4,-279.5 96.4,-279.5 "/>
    <text font-size="12.8" style="fill: #000000;text-anchor:start;font-family:monospace;font-style:normal;font-weight:normal" x="70" y="-266.6">
      <tspan x="70" y="-266.6">s1</tspan>
    </text>
  </g>
  <g>
    <polygon style="fill: #ffffff" points="142,-264.5 163.4,-264.5 175.4,-252.5 175.4,-230.5 142,-230.5 "/>
    <polygon style="fill: none; fill-opacity:0; stroke-width: 2; stroke: #000000" points="142,-264.5 163.4,-264.5 175.4,-252.5 175.4,-230.5 142,-230.5 "/>
    <polyline style="fill: none; fill-opacity:0; stroke-width: 1; stroke: #000000" points="163.4,-264.5 163.4,-252.5 175.4,-252.5 "/>
    <text font-size="12.8" style="fill: #000000;text-anchor:start;font-family:monospace;font-style:normal;font-weight:normal" x="149" y="-239.6">
      <tspan x="149" y="-239.6">s2</tspan>
    </text>
  </g>
  <g>
    <polygon style="fill: #ffffff" points="235,-264.5 256.4,-264.5 268.4,-252.5 268.4,-230.5 235,-230.5 "/>
    <polygon style="fill: none; fill-opacity:0; stroke-width: 2; stroke: #000000" points="235,-264.5 256.4,-264.5 268.4,-252.5 268.4,-230.5 235,-230.5 "/>
    <polyline style="fill: none; fill-opacity:0; stroke-width: 1; stroke: #000000" points="256.4,-264.5 256.4,-252.5 268.4,-252.5 "/>
    <text font-size="12.8" style="fill: #000000;text-anchor:start;font-family:monospace;font-style:normal;font-weight:normal" x="242" y="-239.6">
      <tspan x="242" y="-239.6">s3</tspan>
    </text>
  </g>
  <g>
    <polygon style="fill: #ffffff" points="318,-319.5 339.4,-319.5 351.4,-307.5 351.4,-285.5 318,-285.5 "/>
    <polygon style="fill: none; fill-opacity:0; stroke-width: 2; stroke: #000000" points="318,-319.5 339.4,-319.5 351.4,-307.5 351.4,-285.5 318,-285.5 "/>
    <polyline style="fill: none; fill-opacity:0; stroke-width: 1; stroke: #000000" points="339.4,-319.5 339.4,-307.5 351.4,-307.5 "/>
    <text font-size="12.8" style="fill: #000000;text-anchor:start;font-family:monospace;font-style:normal;font-weight:normal" x="325" y="-294.6">
      <tspan x="325" y="-294.6">s4</tspan>
    </text>
  </g>
  <g>
    <polyline style="fill: none; fill-opacity:0; stroke-width: 2; stroke: #000000" points="101.5,-168.136 101.5,-107.5 227.5,-107.5 227.5,-42.7771 "/>
    <polyline style="fill: none; fill-opacity:0; stroke-width: 2; stroke: #000000" points="222.5,-50.541 227.5,-40.541 232.5,-50.541 "/>
  </g>
  <g>
    <polyline style="fill: none; fill-opacity:0; stroke-width: 2; stroke: #000000" points="178.741,-134.736 178.741,-107.5 227.5,-107.5 227.5,-42.7771 "/>
    <polyline style="fill: none; fill-opacity:0; stroke-width: 2; stroke: #000000" points="222.5,-50.541 227.5,-40.541 232.5,-50.541 "/>
  </g>
  <g>
    <polyline style="fill: none; fill-opacity:0; stroke-width: 2; stroke: #000000" points="272.24,-135.136 272.24,-107.318 227.5,-107.318 227.5,-4.8888 "/>
    <polyline style="fill: none; fill-opacity:0; stroke-width: 2; stroke: #000000" points="222.5,-12.6527 227.5,-2.65273 232.5,-12.6527 "/>
  </g>
  <g>
    <polyline style="fill: none; fill-opacity:0; stroke-width: 2; stroke: #000000" points="353.741,-167.536 353.741,-107.5 227.5,-107.5 227.5,-42.7771 "/>
    <polyline style="fill: none; fill-opacity:0; stroke-width: 2; stroke: #000000" points="222.5,-50.541 227.5,-40.541 232.5,-50.541 "/>
  </g>
</svg>
