<?xml version="1.0" encoding="UTF-8" standalone="no"?>
<!DOCTYPE svg PUBLIC "-//W3C//DTD SVG 1.0//EN" "http://www.w3.org/TR/2001/PR-SVG-20010719/DTD/svg10.dtd">
<svg width="16cm" height="18cm" viewBox="62 -381 317 341" xmlns="http://www.w3.org/2000/svg" xmlns:xlink="http://www.w3.org/1999/xlink">
  <g>
    <rect style="fill: #ffffff" x="202" y="-371.915" width="51.575" height="45.5074"/>
    <ellipse style="fill: #ffffff" cx="227.787" cy="-326.408" rx="25.7875" ry="7.58456"/>
    <ellipse style="fill: #ffffff" cx="227.787" cy="-371.915" rx="25.7875" ry="7.58456"/>
    <ellipse style="fill: none; fill-opacity:0; stroke-width: 2; stroke: #000000" cx="227.787" cy="-371.915" rx="25.7875" ry="7.58456"/>
    <path style="fill: none; fill-opacity:0; stroke-width: 2; stroke: #000000" d="M 253.575 -371.915 L 253.575,-326.408 C 253.575,-322.219 242.03,-318.824 227.787,-318.824 C 213.545,-318.824 202,-322.219 202,-326.408 L 202,-371.915"/>
    <text font-size="12.7998" style="fill: #000000;text-anchor:middle;font-family:sans-serif;font-style:normal;font-weight:normal" x="227.787" y="-306.824">
      <tspan x="227.787" y="-306.824"></tspan>
    </text>
  </g>
  <g>
    <rect style="fill: #b3b3b3" x="86.8971" y="-237.5" width="27.3804" height="63.8876"/>
    <rect style="fill: none; fill-opacity:0; stroke-width: 1.6; stroke: #000000" x="86.8971" y="-237.5" width="27.3804" height="63.8876"/>
    <rect style="fill: none; fill-opacity:0; stroke-width: 0.2; stroke: #000000" x="89.6352" y="-233.667" width="21.9043" height="7.30144"/>
    <rect style="fill: none; fill-opacity:0; stroke-width: 0.2; stroke: #000000" x="89.6352" y="-226.365" width="21.9043" height="7.30144"/>
    <rect style="fill: none; fill-opacity:0; stroke-width: 0.2; stroke: #000000" x="89.6352" y="-219.064" width="21.9043" height="7.30144"/>
    <rect style="fill: none; fill-opacity:0; stroke-width: 0.2; stroke: #000000" x="89.6352" y="-211.762" width="21.9043" height="7.30144"/>
    <rect style="fill: none; fill-opacity:0; stroke-width: 0.2; stroke: #000000" x="89.6352" y="-203.001" width="13.6902" height="4.38086"/>
    <ellipse style="fill: #00ff00" cx="110.17" cy="-202.271" rx="0.958313" ry="0.958313"/>
    <ellipse style="fill: none; fill-opacity:0; stroke-width: 0.2; stroke: #000000" cx="110.17" cy="-202.271" rx="0.958313" ry="0.958313"/>
    <ellipse style="fill: #ffff00" cx="110.17" cy="-199.35" rx="0.958313" ry="0.958313"/>
    <ellipse style="fill: none; fill-opacity:0; stroke-width: 0.2; stroke: #000000" cx="110.17" cy="-199.35" rx="0.958313" ry="0.958313"/>
    <rect style="fill: #ffffff" x="104.694" y="-201.54" width="3.28565" height="2.92057"/>
    <rect style="fill: none; fill-opacity:0; stroke-width: 0.2; stroke: #000000" x="104.694" y="-201.54" width="3.28565" height="2.92057"/>
    <path style="fill: none; fill-opacity:0; stroke-width: 0.2; stroke: #000000" d="M 91.4605 -192.779 L 91.4605,-176.807"/>
    <path style="fill: none; fill-opacity:0; stroke-width: 0.2; stroke: #000000" d="M 96.0239 -192.779 L 96.0239,-176.807"/>
    <path style="fill: none; fill-opacity:0; stroke-width: 0.2; stroke: #000000" d="M 100.587 -192.779 L 100.587,-176.807"/>
    <path style="fill: none; fill-opacity:0; stroke-width: 0.2; stroke: #000000" d="M 105.151 -192.779 L 105.151,-176.807"/>
    <path style="fill: none; fill-opacity:0; stroke-width: 0.2; stroke: #000000" d="M 109.714 -192.779 L 109.714,-176.807"/>
    <path style="fill: none; fill-opacity:0; stroke-width: 0.2; stroke: #000000" d="M 114.278 -192.779 L 114.278,-176.807"/>
    <polygon style="fill: #999999" points="81.4211,-168.136 86.8971,-179.089 86.8971,-173.612 114.278,-173.612 114.278,-179.089 121.579,-168.136 "/>
    <polygon style="fill: none; fill-opacity:0; stroke-width: 0.2; stroke: #000000" points="81.4211,-168.136 86.8971,-179.089 86.8971,-173.612 114.278,-173.612 114.278,-179.089 121.579,-168.136 "/>
    <text font-size="12.7998" style="fill: #000000;text-anchor:middle;font-family:sans-serif;font-style:normal;font-weight:normal" x="101.5" y="-154.311">
      <tspan x="101.5" y="-154.311"></tspan>
    </text>
  </g>
  <g>
    <rect style="fill: #b3b3b3" x="164.138" y="-204.1" width="27.3804" height="63.8876"/>
    <rect style="fill: none; fill-opacity:0; stroke-width: 1.6; stroke: #000000" x="164.138" y="-204.1" width="27.3804" height="63.8876"/>
    <rect style="fill: none; fill-opacity:0; stroke-width: 0.2; stroke: #000000" x="166.876" y="-200.267" width="21.9043" height="7.30144"/>
    <rect style="fill: none; fill-opacity:0; stroke-width: 0.2; stroke: #000000" x="166.876" y="-192.965" width="21.9043" height="7.30144"/>
    <rect style="fill: none; fill-opacity:0; stroke-width: 0.2; stroke: #000000" x="166.876" y="-185.664" width="21.9043" height="7.30144"/>
    <rect style="fill: none; fill-opacity:0; stroke-width: 0.2; stroke: #000000" x="166.876" y="-178.362" width="21.9043" height="7.30144"/>
    <rect style="fill: none; fill-opacity:0; stroke-width: 0.2; stroke: #000000" x="166.876" y="-169.601" width="13.6902" height="4.38086"/>
    <ellipse style="fill: #00ff00" cx="187.411" cy="-168.871" rx="0.958313" ry="0.958313"/>
    <ellipse style="fill: none; fill-opacity:0; stroke-width: 0.2; stroke: #000000" cx="187.411" cy="-168.871" rx="0.958313" ry="0.958313"/>
    <ellipse style="fill: #ffff00" cx="187.411" cy="-165.95" rx="0.958313" ry="0.958313"/>
    <ellipse style="fill: none; fill-opacity:0; stroke-width: 0.2; stroke: #000000" cx="187.411" cy="-165.95" rx="0.958313" ry="0.958313"/>
    <rect style="fill: #ffffff" x="181.935" y="-168.14" width="3.28565" height="2.92057"/>
    <rect style="fill: none; fill-opacity:0; stroke-width: 0.2; stroke: #000000" x="181.935" y="-168.14" width="3.28565" height="2.92057"/>
    <path style="fill: none; fill-opacity:0; stroke-width: 0.2; stroke: #000000" d="M 168.701 -159.379 L 168.701,-143.407"/>
    <path style="fill: none; fill-opacity:0; stroke-width: 0.2; stroke: #000000" d="M 173.265 -159.379 L 173.265,-143.407"/>
    <path style="fill: none; fill-opacity:0; stroke-width: 0.2; stroke: #000000" d="M 177.828 -159.379 L 177.828,-143.407"/>
    <path style="fill: none; fill-opacity:0; stroke-width: 0.2; stroke: #000000" d="M 182.391 -159.379 L 182.391,-143.407"/>
    <path style="fill: none; fill-opacity:0; stroke-width: 0.2; stroke: #000000" d="M 186.955 -159.379 L 186.955,-143.407"/>
    <path style="fill: none; fill-opacity:0; stroke-width: 0.2; stroke: #000000" d="M 191.518 -159.379 L 191.518,-143.407"/>
    <polygon style="fill: #999999" points="158.662,-134.736 164.138,-145.689 164.138,-140.212 191.518,-140.212 191.518,-145.689 198.82,-134.736 "/>
    <polygon style="fill: none; fill-opacity:0; stroke-width: 0.2; stroke: #000000" points="158.662,-134.736 164.138,-145.689 164.138,-140.212 191.518,-140.212 191.518,-145.689 198.82,-134.736 "/>
    <text font-size="12.7998" style="fill: #000000;text-anchor:middle;font-family:sans-serif;font-style:normal;font-weight:normal" x="178.741" y="-120.911">
      <tspan x="178.741" y="-120.911"></tspan>
    </text>
  </g>
  <g>
    <rect style="fill: #b3b3b3" x="257.638" y="-204.5" width="27.3804" height="63.8876"/>
    <rect style="fill: none; fill-opacity:0; stroke-width: 1.6; stroke: #000000" x="257.638" y="-204.5" width="27.3804" height="63.8876"/>
    <rect style="fill: none; fill-opacity:0; stroke-width: 0.2; stroke: #000000" x="260.376" y="-200.667" width="21.9043" height="7.30144"/>
    <rect style="fill: none; fill-opacity:0; stroke-width: 0.2; stroke: #000000" x="260.376" y="-193.365" width="21.9043" height="7.30144"/>
    <rect style="fill: none; fill-opacity:0; stroke-width: 0.2; stroke: #000000" x="260.376" y="-186.064" width="21.9043" height="7.30144"/>
    <rect style="fill: none; fill-opacity:0; stroke-width: 0.2; stroke: #000000" x="260.376" y="-178.762" width="21.9043" height="7.30144"/>
    <rect style="fill: none; fill-opacity:0; stroke-width: 0.2; stroke: #000000" x="260.376" y="-170.001" width="13.6902" height="4.38086"/>
    <ellipse style="fill: #00ff00" cx="280.911" cy="-169.271" rx="0.958313" ry="0.958313"/>
    <ellipse style="fill: none; fill-opacity:0; stroke-width: 0.2; stroke: #000000" cx="280.911" cy="-169.271" rx="0.958313" ry="0.958313"/>
    <ellipse style="fill: #ffff00" cx="280.911" cy="-166.35" rx="0.958313" ry="0.958313"/>
    <ellipse style="fill: none; fill-opacity:0; stroke-width: 0.2; stroke: #000000" cx="280.911" cy="-166.35" rx="0.958313" ry="0.958313"/>
    <rect style="fill: #ffffff" x="275.435" y="-168.54" width="3.28565" height="2.92057"/>
    <rect style="fill: none; fill-opacity:0; stroke-width: 0.2; stroke: #000000" x="275.435" y="-168.54" width="3.28565" height="2.92057"/>
    <path style="fill: none; fill-opacity:0; stroke-width: 0.2; stroke: #000000" d="M 262.201 -159.779 L 262.201,-143.807"/>
    <path style="fill: none; fill-opacity:0; stroke-width: 0.2; stroke: #000000" d="M 266.765 -159.779 L 266.765,-143.807"/>
    <path style="fill: none; fill-opacity:0; stroke-width: 0.2; stroke: #000000" d="M 271.328 -159.779 L 271.328,-143.807"/>
    <path style="fill: none; fill-opacity:0; stroke-width: 0.2; stroke: #000000" d="M 275.891 -159.779 L 275.891,-143.807"/>
    <path style="fill: none; fill-opacity:0; stroke-width: 0.2; stroke: #000000" d="M 280.455 -159.779 L 280.455,-143.807"/>
    <path style="fill: none; fill-opacity:0; stroke-width: 0.2; stroke: #000000" d="M 285.018 -159.779 L 285.018,-143.807"/>
    <polygon style="fill: #999999" points="252.162,-135.136 257.638,-146.089 257.638,-140.612 285.018,-140.612 285.018,-146.089 292.32,-135.136 "/>
    <polygon style="fill: none; fill-opacity:0; stroke-width: 0.2; stroke: #000000" points="252.162,-135.136 257.638,-146.089 257.638,-140.612 285.018,-140.612 285.018,-146.089 292.32,-135.136 "/>
    <text font-size="12.7998" style="fill: #000000;text-anchor:middle;font-family:sans-serif;font-style:normal;font-weight:normal" x="272.241" y="-121.311">
      <tspan x="272.241" y="-121.311"></tspan>
    </text>
  </g>
  <g>
    <rect style="fill: #b3b3b3" x="339.138" y="-236.9" width="27.3804" height="63.8876"/>
    <rect style="fill: none; fill-opacity:0; stroke-width: 1.6; stroke: #000000" x="339.138" y="-236.9" width="27.3804" height="63.8876"/>
    <rect style="fill: none; fill-opacity:0; stroke-width: 0.2; stroke: #000000" x="341.876" y="-233.067" width="21.9043" height="7.30144"/>
    <rect style="fill: none; fill-opacity:0; stroke-width: 0.2; stroke: #000000" x="341.876" y="-225.765" width="21.9043" height="7.30144"/>
    <rect style="fill: none; fill-opacity:0; stroke-width: 0.2; stroke: #000000" x="341.876" y="-218.464" width="21.9043" height="7.30144"/>
    <rect style="fill: none; fill-opacity:0; stroke-width: 0.2; stroke: #000000" x="341.876" y="-211.162" width="21.9043" height="7.30144"/>
    <rect style="fill: none; fill-opacity:0; stroke-width: 0.2; stroke: #000000" x="341.876" y="-202.401" width="13.6902" height="4.38086"/>
    <ellipse style="fill: #00ff00" cx="362.411" cy="-201.671" rx="0.958313" ry="0.958313"/>
    <ellipse style="fill: none; fill-opacity:0; stroke-width: 0.2; stroke: #000000" cx="362.411" cy="-201.671" rx="0.958313" ry="0.958313"/>
    <ellipse style="fill: #ffff00" cx="362.411" cy="-198.75" rx="0.958313" ry="0.958313"/>
    <ellipse style="fill: none; fill-opacity:0; stroke-width: 0.2; stroke: #000000" cx="362.411" cy="-198.75" rx="0.958313" ry="0.958313"/>
    <rect style="fill: #ffffff" x="356.935" y="-200.94" width="3.28565" height="2.92057"/>
    <rect style="fill: none; fill-opacity:0; stroke-width: 0.2; stroke: #000000" x="356.935" y="-200.94" width="3.28565" height="2.92057"/>
    <path style="fill: none; fill-opacity:0; stroke-width: 0.2; stroke: #000000" d="M 343.701 -192.179 L 343.701,-176.207"/>
    <path style="fill: none; fill-opacity:0; stroke-width: 0.2; stroke: #000000" d="M 348.265 -192.179 L 348.265,-176.207"/>
    <path style="fill: none; fill-opacity:0; stroke-width: 0.2; stroke: #000000" d="M 352.828 -192.179 L 352.828,-176.207"/>
    <path style="fill: none; fill-opacity:0; stroke-width: 0.2; stroke: #000000" d="M 357.391 -192.179 L 357.391,-176.207"/>
    <path style="fill: none; fill-opacity:0; stroke-width: 0.2; stroke: #000000" d="M 361.955 -192.179 L 361.955,-176.207"/>
    <path style="fill: none; fill-opacity:0; stroke-width: 0.2; stroke: #000000" d="M 366.518 -192.179 L 366.518,-176.207"/>
    <polygon style="fill: #999999" points="333.662,-167.536 339.138,-178.489 339.138,-173.012 366.518,-173.012 366.518,-178.489 373.82,-167.536 "/>
    <polygon style="fill: none; fill-opacity:0; stroke-width: 0.2; stroke: #000000" points="333.662,-167.536 339.138,-178.489 339.138,-173.012 366.518,-173.012 366.518,-178.489 373.82,-167.536 "/>
    <text font-size="12.7998" style="fill: #000000;text-anchor:middle;font-family:sans-serif;font-style:normal;font-weight:normal" x="353.741" y="-153.711">
      <tspan x="353.741" y="-153.711"></tspan>
    </text>
  </g>
  <g>
    <polygon style="fill: #b3b3b3" points="85.68,-111.3 83.76,-110.5 78,-96.1 78,-88.9 80.88,-86.5 123.12,-86.5 126,-88.9 126,-96.1 120.24,-110.5 118.32,-111.3 "/>
    <polygon style="fill: none; fill-opacity:0; stroke-width: 1.6; stroke: #000000" points="85.68,-111.3 83.76,-110.5 78,-96.1 78,-88.9 80.88,-86.5 123.12,-86.5 126,-88.9 126,-96.1 120.24,-110.5 118.32,-111.3 "/>
    <path style="fill: none; fill-opacity:0; stroke-width: 1.6; stroke: #000000" d="M 78.96 -98.5 L 80.88,-97.7 L 123.12,-97.7 L 125.04,-98.5"/>
    <path style="fill: none; fill-opacity:0; stroke-width: 1.6; stroke: #000000" d="M 123.12 -97.7 L 126,-96.1"/>
    <path style="fill: none; fill-opacity:0; stroke-width: 1.6; stroke: #000000" d="M 78 -96.1 L 80.88,-97.7"/>
    <polygon style="fill: #ffffff" points="91.44,-126.5 90.48,-107.3 113.52,-107.3 112.56,-126.5 "/>
    <polygon style="fill: none; fill-opacity:0; stroke-width: 1.6; stroke: #000000" points="91.44,-126.5 90.48,-107.3 113.52,-107.3 112.56,-126.5 "/>
    <polygon style="fill: #000000" points="87.6,-107.3 85.68,-101.7 118.32,-101.7 116.4,-107.3 "/>
    <polygon style="fill: none; fill-opacity:0; stroke-width: 1.6; stroke: #000000" points="87.6,-107.3 85.68,-101.7 118.32,-101.7 116.4,-107.3 "/>
    <ellipse style="fill: #0000ff" cx="87.6" cy="-94.9" rx="0.48" ry="0.48"/>
    <ellipse style="fill: none; fill-opacity:0; stroke-width: 0.4; stroke: #000000" cx="87.6" cy="-94.9" rx="0.48" ry="0.48"/>
    <ellipse style="fill: #0000ff" cx="92.4" cy="-94.9" rx="0.48" ry="0.48"/>
    <ellipse style="fill: none; fill-opacity:0; stroke-width: 0.4; stroke: #000000" cx="92.4" cy="-94.9" rx="0.48" ry="0.48"/>
    <ellipse style="fill: #0000ff" cx="97.2" cy="-94.9" rx="0.48" ry="0.48"/>
    <ellipse style="fill: none; fill-opacity:0; stroke-width: 0.4; stroke: #000000" cx="97.2" cy="-94.9" rx="0.48" ry="0.48"/>
    <ellipse style="fill: #0000ff" cx="87.6" cy="-92.9" rx="0.48" ry="0.48"/>
    <ellipse style="fill: none; fill-opacity:0; stroke-width: 0.4; stroke: #000000" cx="87.6" cy="-92.9" rx="0.48" ry="0.48"/>
    <ellipse style="fill: #0000ff" cx="92.4" cy="-92.9" rx="0.48" ry="0.48"/>
    <ellipse style="fill: none; fill-opacity:0; stroke-width: 0.4; stroke: #000000" cx="92.4" cy="-92.9" rx="0.48" ry="0.48"/>
    <ellipse style="fill: #0000ff" cx="97.2" cy="-92.9" rx="0.48" ry="0.48"/>
    <ellipse style="fill: none; fill-opacity:0; stroke-width: 0.4; stroke: #000000" cx="97.2" cy="-92.9" rx="0.48" ry="0.48"/>
    <ellipse style="fill: #0000ff" cx="87.6" cy="-90.9" rx="0.48" ry="0.48"/>
    <ellipse style="fill: none; fill-opacity:0; stroke-width: 0.4; stroke: #000000" cx="87.6" cy="-90.9" rx="0.48" ry="0.48"/>
    <ellipse style="fill: #0000ff" cx="92.4" cy="-90.9" rx="0.48" ry="0.48"/>
    <ellipse style="fill: none; fill-opacity:0; stroke-width: 0.4; stroke: #000000" cx="92.4" cy="-90.9" rx="0.48" ry="0.48"/>
    <ellipse style="fill: #0000ff" cx="97.2" cy="-90.9" rx="0.48" ry="0.48"/>
    <ellipse style="fill: none; fill-opacity:0; stroke-width: 0.4; stroke: #000000" cx="97.2" cy="-90.9" rx="0.48" ry="0.48"/>
    <ellipse style="fill: #0000ff" cx="87.6" cy="-88.9" rx="0.48" ry="0.48"/>
    <ellipse style="fill: none; fill-opacity:0; stroke-width: 0.4; stroke: #000000" cx="87.6" cy="-88.9" rx="0.48" ry="0.48"/>
    <ellipse style="fill: #0000ff" cx="92.4" cy="-88.9" rx="0.48" ry="0.48"/>
    <ellipse style="fill: none; fill-opacity:0; stroke-width: 0.4; stroke: #000000" cx="92.4" cy="-88.9" rx="0.48" ry="0.48"/>
    <ellipse style="fill: #0000ff" cx="97.2" cy="-88.9" rx="0.48" ry="0.48"/>
    <ellipse style="fill: none; fill-opacity:0; stroke-width: 0.4; stroke: #000000" cx="97.2" cy="-88.9" rx="0.48" ry="0.48"/>
    <ellipse style="fill: #8f8f8f" cx="102" cy="-94.5" rx="6" ry="1.92"/>
    <ellipse style="fill: none; fill-opacity:0; stroke-width: 0.4; stroke: #000000" cx="102" cy="-94.5" rx="6" ry="1.92"/>
    <ellipse style="fill: #8f8f8f" cx="114" cy="-94.5" rx="6" ry="1.92"/>
    <ellipse style="fill: none; fill-opacity:0; stroke-width: 0.4; stroke: #000000" cx="114" cy="-94.5" rx="6" ry="1.92"/>
    <text font-size="12.7998" style="fill: #000000;text-anchor:middle;font-family:sans-serif;font-style:normal;font-weight:normal" x="102" y="-72.9">
      <tspan x="102" y="-72.9"></tspan>
    </text>
  </g>
  <g>
    <polygon style="fill: #b3b3b3" points="162.68,-84.3 160.76,-83.5 155,-69.1 155,-61.9 157.88,-59.5 200.12,-59.5 203,-61.9 203,-69.1 197.24,-83.5 195.32,-84.3 "/>
    <polygon style="fill: none; fill-opacity:0; stroke-width: 1.6; stroke: #000000" points="162.68,-84.3 160.76,-83.5 155,-69.1 155,-61.9 157.88,-59.5 200.12,-59.5 203,-61.9 203,-69.1 197.24,-83.5 195.32,-84.3 "/>
    <path style="fill: none; fill-opacity:0; stroke-width: 1.6; stroke: #000000" d="M 155.96 -71.5 L 157.88,-70.7 L 200.12,-70.7 L 202.04,-71.5"/>
    <path style="fill: none; fill-opacity:0; stroke-width: 1.6; stroke: #000000" d="M 200.12 -70.7 L 203,-69.1"/>
    <path style="fill: none; fill-opacity:0; stroke-width: 1.6; stroke: #000000" d="M 155 -69.1 L 157.88,-70.7"/>
    <polygon style="fill: #ffffff" points="168.44,-99.5 167.48,-80.3 190.52,-80.3 189.56,-99.5 "/>
    <polygon style="fill: none; fill-opacity:0; stroke-width: 1.6; stroke: #000000" points="168.44,-99.5 167.48,-80.3 190.52,-80.3 189.56,-99.5 "/>
    <polygon style="fill: #000000" points="164.6,-80.3 162.68,-74.7 195.32,-74.7 193.4,-80.3 "/>
    <polygon style="fill: none; fill-opacity:0; stroke-width: 1.6; stroke: #000000" points="164.6,-80.3 162.68,-74.7 195.32,-74.7 193.4,-80.3 "/>
    <ellipse style="fill: #0000ff" cx="164.6" cy="-67.9" rx="0.48" ry="0.48"/>
    <ellipse style="fill: none; fill-opacity:0; stroke-width: 0.4; stroke: #000000" cx="164.6" cy="-67.9" rx="0.48" ry="0.48"/>
    <ellipse style="fill: #0000ff" cx="169.4" cy="-67.9" rx="0.48" ry="0.48"/>
    <ellipse style="fill: none; fill-opacity:0; stroke-width: 0.4; stroke: #000000" cx="169.4" cy="-67.9" rx="0.48" ry="0.48"/>
    <ellipse style="fill: #0000ff" cx="174.2" cy="-67.9" rx="0.48" ry="0.48"/>
    <ellipse style="fill: none; fill-opacity:0; stroke-width: 0.4; stroke: #000000" cx="174.2" cy="-67.9" rx="0.48" ry="0.48"/>
    <ellipse style="fill: #0000ff" cx="164.6" cy="-65.9" rx="0.48" ry="0.48"/>
    <ellipse style="fill: none; fill-opacity:0; stroke-width: 0.4; stroke: #000000" cx="164.6" cy="-65.9" rx="0.48" ry="0.48"/>
    <ellipse style="fill: #0000ff" cx="169.4" cy="-65.9" rx="0.48" ry="0.48"/>
    <ellipse style="fill: none; fill-opacity:0; stroke-width: 0.4; stroke: #000000" cx="169.4" cy="-65.9" rx="0.48" ry="0.48"/>
    <ellipse style="fill: #0000ff" cx="174.2" cy="-65.9" rx="0.48" ry="0.48"/>
    <ellipse style="fill: none; fill-opacity:0; stroke-width: 0.4; stroke: #000000" cx="174.2" cy="-65.9" rx="0.48" ry="0.48"/>
    <ellipse style="fill: #0000ff" cx="164.6" cy="-63.9" rx="0.48" ry="0.48"/>
    <ellipse style="fill: none; fill-opacity:0; stroke-width: 0.4; stroke: #000000" cx="164.6" cy="-63.9" rx="0.48" ry="0.48"/>
    <ellipse style="fill: #0000ff" cx="169.4" cy="-63.9" rx="0.48" ry="0.48"/>
    <ellipse style="fill: none; fill-opacity:0; stroke-width: 0.4; stroke: #000000" cx="169.4" cy="-63.9" rx="0.48" ry="0.48"/>
    <ellipse style="fill: #0000ff" cx="174.2" cy="-63.9" rx="0.48" ry="0.48"/>
    <ellipse style="fill: none; fill-opacity:0; stroke-width: 0.4; stroke: #000000" cx="174.2" cy="-63.9" rx="0.48" ry="0.48"/>
    <ellipse style="fill: #0000ff" cx="164.6" cy="-61.9" rx="0.48" ry="0.48"/>
    <ellipse style="fill: none; fill-opacity:0; stroke-width: 0.4; stroke: #000000" cx="164.6" cy="-61.9" rx="0.48" ry="0.48"/>
    <ellipse style="fill: #0000ff" cx="169.4" cy="-61.9" rx="0.48" ry="0.48"/>
    <ellipse style="fill: none; fill-opacity:0; stroke-width: 0.4; stroke: #000000" cx="169.4" cy="-61.9" rx="0.48" ry="0.48"/>
    <ellipse style="fill: #0000ff" cx="174.2" cy="-61.9" rx="0.48" ry="0.48"/>
    <ellipse style="fill: none; fill-opacity:0; stroke-width: 0.4; stroke: #000000" cx="174.2" cy="-61.9" rx="0.48" ry="0.48"/>
    <ellipse style="fill: #8f8f8f" cx="179" cy="-67.5" rx="6" ry="1.92"/>
    <ellipse style="fill: none; fill-opacity:0; stroke-width: 0.4; stroke: #000000" cx="179" cy="-67.5" rx="6" ry="1.92"/>
    <ellipse style="fill: #8f8f8f" cx="191" cy="-67.5" rx="6" ry="1.92"/>
    <ellipse style="fill: none; fill-opacity:0; stroke-width: 0.4; stroke: #000000" cx="191" cy="-67.5" rx="6" ry="1.92"/>
    <text font-size="12.7998" style="fill: #000000;text-anchor:middle;font-family:sans-serif;font-style:normal;font-weight:normal" x="179" y="-45.9">
      <tspan x="179" y="-45.9"></tspan>
    </text>
  </g>
  <g>
    <polygon style="fill: #b3b3b3" points="255.68,-83.3 253.76,-82.5 248,-68.1 248,-60.9 250.88,-58.5 293.12,-58.5 296,-60.9 296,-68.1 290.24,-82.5 288.32,-83.3 "/>
    <polygon style="fill: none; fill-opacity:0; stroke-width: 1.6; stroke: #000000" points="255.68,-83.3 253.76,-82.5 248,-68.1 248,-60.9 250.88,-58.5 293.12,-58.5 296,-60.9 296,-68.1 290.24,-82.5 288.32,-83.3 "/>
    <path style="fill: none; fill-opacity:0; stroke-width: 1.6; stroke: #000000" d="M 248.96 -70.5 L 250.88,-69.7 L 293.12,-69.7 L 295.04,-70.5"/>
    <path style="fill: none; fill-opacity:0; stroke-width: 1.6; stroke: #000000" d="M 293.12 -69.7 L 296,-68.1"/>
    <path style="fill: none; fill-opacity:0; stroke-width: 1.6; stroke: #000000" d="M 248 -68.1 L 250.88,-69.7"/>
    <polygon style="fill: #ffffff" points="261.44,-98.5 260.48,-79.3 283.52,-79.3 282.56,-98.5 "/>
    <polygon style="fill: none; fill-opacity:0; stroke-width: 1.6; stroke: #000000" points="261.44,-98.5 260.48,-79.3 283.52,-79.3 282.56,-98.5 "/>
    <polygon style="fill: #000000" points="257.6,-79.3 255.68,-73.7 288.32,-73.7 286.4,-79.3 "/>
    <polygon style="fill: none; fill-opacity:0; stroke-width: 1.6; stroke: #000000" points="257.6,-79.3 255.68,-73.7 288.32,-73.7 286.4,-79.3 "/>
    <ellipse style="fill: #0000ff" cx="257.6" cy="-66.9" rx="0.48" ry="0.48"/>
    <ellipse style="fill: none; fill-opacity:0; stroke-width: 0.4; stroke: #000000" cx="257.6" cy="-66.9" rx="0.48" ry="0.48"/>
    <ellipse style="fill: #0000ff" cx="262.4" cy="-66.9" rx="0.48" ry="0.48"/>
    <ellipse style="fill: none; fill-opacity:0; stroke-width: 0.4; stroke: #000000" cx="262.4" cy="-66.9" rx="0.48" ry="0.48"/>
    <ellipse style="fill: #0000ff" cx="267.2" cy="-66.9" rx="0.48" ry="0.48"/>
    <ellipse style="fill: none; fill-opacity:0; stroke-width: 0.4; stroke: #000000" cx="267.2" cy="-66.9" rx="0.48" ry="0.48"/>
    <ellipse style="fill: #0000ff" cx="257.6" cy="-64.9" rx="0.48" ry="0.48"/>
    <ellipse style="fill: none; fill-opacity:0; stroke-width: 0.4; stroke: #000000" cx="257.6" cy="-64.9" rx="0.48" ry="0.48"/>
    <ellipse style="fill: #0000ff" cx="262.4" cy="-64.9" rx="0.48" ry="0.48"/>
    <ellipse style="fill: none; fill-opacity:0; stroke-width: 0.4; stroke: #000000" cx="262.4" cy="-64.9" rx="0.48" ry="0.48"/>
    <ellipse style="fill: #0000ff" cx="267.2" cy="-64.9" rx="0.48" ry="0.48"/>
    <ellipse style="fill: none; fill-opacity:0; stroke-width: 0.4; stroke: #000000" cx="267.2" cy="-64.9" rx="0.48" ry="0.48"/>
    <ellipse style="fill: #0000ff" cx="257.6" cy="-62.9" rx="0.48" ry="0.48"/>
    <ellipse style="fill: none; fill-opacity:0; stroke-width: 0.4; stroke: #000000" cx="257.6" cy="-62.9" rx="0.48" ry="0.48"/>
    <ellipse style="fill: #0000ff" cx="262.4" cy="-62.9" rx="0.48" ry="0.48"/>
    <ellipse style="fill: none; fill-opacity:0; stroke-width: 0.4; stroke: #000000" cx="262.4" cy="-62.9" rx="0.48" ry="0.48"/>
    <ellipse style="fill: #0000ff" cx="267.2" cy="-62.9" rx="0.48" ry="0.48"/>
    <ellipse style="fill: none; fill-opacity:0; stroke-width: 0.4; stroke: #000000" cx="267.2" cy="-62.9" rx="0.48" ry="0.48"/>
    <ellipse style="fill: #0000ff" cx="257.6" cy="-60.9" rx="0.48" ry="0.48"/>
    <ellipse style="fill: none; fill-opacity:0; stroke-width: 0.4; stroke: #000000" cx="257.6" cy="-60.9" rx="0.48" ry="0.48"/>
    <ellipse style="fill: #0000ff" cx="262.4" cy="-60.9" rx="0.48" ry="0.48"/>
    <ellipse style="fill: none; fill-opacity:0; stroke-width: 0.4; stroke: #000000" cx="262.4" cy="-60.9" rx="0.48" ry="0.48"/>
    <ellipse style="fill: #0000ff" cx="267.2" cy="-60.9" rx="0.48" ry="0.48"/>
    <ellipse style="fill: none; fill-opacity:0; stroke-width: 0.4; stroke: #000000" cx="267.2" cy="-60.9" rx="0.48" ry="0.48"/>
    <ellipse style="fill: #8f8f8f" cx="272" cy="-66.5" rx="6" ry="1.92"/>
    <ellipse style="fill: none; fill-opacity:0; stroke-width: 0.4; stroke: #000000" cx="272" cy="-66.5" rx="6" ry="1.92"/>
    <ellipse style="fill: #8f8f8f" cx="284" cy="-66.5" rx="6" ry="1.92"/>
    <ellipse style="fill: none; fill-opacity:0; stroke-width: 0.4; stroke: #000000" cx="284" cy="-66.5" rx="6" ry="1.92"/>
    <text font-size="12.7998" style="fill: #000000;text-anchor:middle;font-family:sans-serif;font-style:normal;font-weight:normal" x="272" y="-44.9">
      <tspan x="272" y="-44.9"></tspan>
    </text>
  </g>
  <g>
    <polygon style="fill: #b3b3b3" points="337.68,-107.3 335.76,-106.5 330,-92.1 330,-84.9 332.88,-82.5 375.12,-82.5 378,-84.9 378,-92.1 372.24,-106.5 370.32,-107.3 "/>
    <polygon style="fill: none; fill-opacity:0; stroke-width: 1.6; stroke: #000000" points="337.68,-107.3 335.76,-106.5 330,-92.1 330,-84.9 332.88,-82.5 375.12,-82.5 378,-84.9 378,-92.1 372.24,-106.5 370.32,-107.3 "/>
    <path style="fill: none; fill-opacity:0; stroke-width: 1.6; stroke: #000000" d="M 330.96 -94.5 L 332.88,-93.7 L 375.12,-93.7 L 377.04,-94.5"/>
    <path style="fill: none; fill-opacity:0; stroke-width: 1.6; stroke: #000000" d="M 375.12 -93.7 L 378,-92.1"/>
    <path style="fill: none; fill-opacity:0; stroke-width: 1.6; stroke: #000000" d="M 330 -92.1 L 332.88,-93.7"/>
    <polygon style="fill: #ffffff" points="343.44,-122.5 342.48,-103.3 365.52,-103.3 364.56,-122.5 "/>
    <polygon style="fill: none; fill-opacity:0; stroke-width: 1.6; stroke: #000000" points="343.44,-122.5 342.48,-103.3 365.52,-103.3 364.56,-122.5 "/>
    <polygon style="fill: #000000" points="339.6,-103.3 337.68,-97.7 370.32,-97.7 368.4,-103.3 "/>
    <polygon style="fill: none; fill-opacity:0; stroke-width: 1.6; stroke: #000000" points="339.6,-103.3 337.68,-97.7 370.32,-97.7 368.4,-103.3 "/>
    <ellipse style="fill: #0000ff" cx="339.6" cy="-90.9" rx="0.48" ry="0.48"/>
    <ellipse style="fill: none; fill-opacity:0; stroke-width: 0.4; stroke: #000000" cx="339.6" cy="-90.9" rx="0.48" ry="0.48"/>
    <ellipse style="fill: #0000ff" cx="344.4" cy="-90.9" rx="0.48" ry="0.48"/>
    <ellipse style="fill: none; fill-opacity:0; stroke-width: 0.4; stroke: #000000" cx="344.4" cy="-90.9" rx="0.48" ry="0.48"/>
    <ellipse style="fill: #0000ff" cx="349.2" cy="-90.9" rx="0.48" ry="0.48"/>
    <ellipse style="fill: none; fill-opacity:0; stroke-width: 0.4; stroke: #000000" cx="349.2" cy="-90.9" rx="0.48" ry="0.48"/>
    <ellipse style="fill: #0000ff" cx="339.6" cy="-88.9" rx="0.48" ry="0.48"/>
    <ellipse style="fill: none; fill-opacity:0; stroke-width: 0.4; stroke: #000000" cx="339.6" cy="-88.9" rx="0.48" ry="0.48"/>
    <ellipse style="fill: #0000ff" cx="344.4" cy="-88.9" rx="0.48" ry="0.48"/>
    <ellipse style="fill: none; fill-opacity:0; stroke-width: 0.4; stroke: #000000" cx="344.4" cy="-88.9" rx="0.48" ry="0.48"/>
    <ellipse style="fill: #0000ff" cx="349.2" cy="-88.9" rx="0.48" ry="0.48"/>
    <ellipse style="fill: none; fill-opacity:0; stroke-width: 0.4; stroke: #000000" cx="349.2" cy="-88.9" rx="0.48" ry="0.48"/>
    <ellipse style="fill: #0000ff" cx="339.6" cy="-86.9" rx="0.48" ry="0.48"/>
    <ellipse style="fill: none; fill-opacity:0; stroke-width: 0.4; stroke: #000000" cx="339.6" cy="-86.9" rx="0.48" ry="0.48"/>
    <ellipse style="fill: #0000ff" cx="344.4" cy="-86.9" rx="0.48" ry="0.48"/>
    <ellipse style="fill: none; fill-opacity:0; stroke-width: 0.4; stroke: #000000" cx="344.4" cy="-86.9" rx="0.48" ry="0.48"/>
    <ellipse style="fill: #0000ff" cx="349.2" cy="-86.9" rx="0.48" ry="0.48"/>
    <ellipse style="fill: none; fill-opacity:0; stroke-width: 0.4; stroke: #000000" cx="349.2" cy="-86.9" rx="0.48" ry="0.48"/>
    <ellipse style="fill: #0000ff" cx="339.6" cy="-84.9" rx="0.48" ry="0.48"/>
    <ellipse style="fill: none; fill-opacity:0; stroke-width: 0.4; stroke: #000000" cx="339.6" cy="-84.9" rx="0.48" ry="0.48"/>
    <ellipse style="fill: #0000ff" cx="344.4" cy="-84.9" rx="0.48" ry="0.48"/>
    <ellipse style="fill: none; fill-opacity:0; stroke-width: 0.4; stroke: #000000" cx="344.4" cy="-84.9" rx="0.48" ry="0.48"/>
    <ellipse style="fill: #0000ff" cx="349.2" cy="-84.9" rx="0.48" ry="0.48"/>
    <ellipse style="fill: none; fill-opacity:0; stroke-width: 0.4; stroke: #000000" cx="349.2" cy="-84.9" rx="0.48" ry="0.48"/>
    <ellipse style="fill: #8f8f8f" cx="354" cy="-90.5" rx="6" ry="1.92"/>
    <ellipse style="fill: none; fill-opacity:0; stroke-width: 0.4; stroke: #000000" cx="354" cy="-90.5" rx="6" ry="1.92"/>
    <ellipse style="fill: #8f8f8f" cx="366" cy="-90.5" rx="6" ry="1.92"/>
    <ellipse style="fill: none; fill-opacity:0; stroke-width: 0.4; stroke: #000000" cx="366" cy="-90.5" rx="6" ry="1.92"/>
    <text font-size="12.7998" style="fill: #000000;text-anchor:middle;font-family:sans-serif;font-style:normal;font-weight:normal" x="354" y="-68.9">
      <tspan x="354" y="-68.9"></tspan>
    </text>
  </g>
  <g>
    <polyline style="fill: none; fill-opacity:0; stroke-width: 2; stroke: #000000" points="227.787,-318.824 227.787,-278.162 101.5,-278.162 101.5,-241.972 "/>
    <polyline style="fill: none; fill-opacity:0; stroke-width: 2; stroke: #000000" points="96.5,-249.736 101.5,-239.736 106.5,-249.736 "/>
  </g>
  <g>
    <polyline style="fill: none; fill-opacity:0; stroke-width: 2; stroke: #000000" points="227.787,-318.824 227.787,-278.5 178.741,-278.5 178.741,-208.572 "/>
    <polyline style="fill: none; fill-opacity:0; stroke-width: 2; stroke: #000000" points="173.741,-216.336 178.741,-206.336 183.741,-216.336 "/>
  </g>
  <g>
    <polyline style="fill: none; fill-opacity:0; stroke-width: 2; stroke: #000000" points="227.787,-318.824 227.787,-278.5 353.741,-278.5 353.741,-241.372 "/>
    <polyline style="fill: none; fill-opacity:0; stroke-width: 2; stroke: #000000" points="348.741,-249.136 353.741,-239.136 358.741,-249.136 "/>
  </g>
  <g>
    <polyline style="fill: none; fill-opacity:0; stroke-width: 2; stroke: #000000" points="227.787,-318.824 227.787,-278.5 272.241,-278.5 272.241,-208.972 "/>
    <polyline style="fill: none; fill-opacity:0; stroke-width: 2; stroke: #000000" points="267.241,-216.736 272.241,-206.736 277.241,-216.736 "/>
  </g>
  <g>
    <polygon style="fill: #ffffff" points="63,-291.5 84.4,-291.5 96.4,-279.5 96.4,-257.5 63,-257.5 "/>
    <polygon style="fill: none; fill-opacity:0; stroke-width: 2; stroke: #000000" points="63,-291.5 84.4,-291.5 96.4,-279.5 96.4,-257.5 63,-257.5 "/>
    <polyline style="fill: none; fill-opacity:0; stroke-width: 1; stroke: #000000" points="84.4,-291.5 84.4,-279.5 96.4,-279.5 "/>
    <text font-size="12.7998" style="fill: #000000;text-anchor:start;font-family:monospace;font-style:normal;font-weight:normal" x="70" y="-266.6">
      <tspan x="70" y="-266.6">s1</tspan>
    </text>
  </g>
  <g>
    <polygon style="fill: #ffffff" points="142,-264.5 163.4,-264.5 175.4,-252.5 175.4,-230.5 142,-230.5 "/>
    <polygon style="fill: none; fill-opacity:0; stroke-width: 2; stroke: #000000" points="142,-264.5 163.4,-264.5 175.4,-252.5 175.4,-230.5 142,-230.5 "/>
    <polyline style="fill: none; fill-opacity:0; stroke-width: 1; stroke: #000000" points="163.4,-264.5 163.4,-252.5 175.4,-252.5 "/>
    <text font-size="12.7998" style="fill: #000000;text-anchor:start;font-family:monospace;font-style:normal;font-weight:normal" x="149" y="-239.6">
      <tspan x="149" y="-239.6">s2</tspan>
    </text>
  </g>
  <g>
    <polygon style="fill: #ffffff" points="235,-264.5 256.4,-264.5 268.4,-252.5 268.4,-230.5 235,-230.5 "/>
    <polygon style="fill: none; fill-opacity:0; stroke-width: 2; stroke: #000000" points="235,-264.5 256.4,-264.5 268.4,-252.5 268.4,-230.5 235,-230.5 "/>
    <polyline style="fill: none; fill-opacity:0; stroke-width: 1; stroke: #000000" points="256.4,-264.5 256.4,-252.5 268.4,-252.5 "/>
    <text font-size="12.7998" style="fill: #000000;text-anchor:start;font-family:monospace;font-style:normal;font-weight:normal" x="242" y="-239.6">
      <tspan x="242" y="-239.6">s3</tspan>
    </text>
  </g>
  <g>
    <polygon style="fill: #ffffff" points="318,-319.5 339.4,-319.5 351.4,-307.5 351.4,-285.5 318,-285.5 "/>
    <polygon style="fill: none; fill-opacity:0; stroke-width: 2; stroke: #000000" points="318,-319.5 339.4,-319.5 351.4,-307.5 351.4,-285.5 318,-285.5 "/>
    <polyline style="fill: none; fill-opacity:0; stroke-width: 1; stroke: #000000" points="339.4,-319.5 339.4,-307.5 351.4,-307.5 "/>
    <text font-size="12.7998" style="fill: #000000;text-anchor:start;font-family:monospace;font-style:normal;font-weight:normal" x="325" y="-294.6">
      <tspan x="325" y="-294.6">s4</tspan>
    </text>
  </g>
  <g>
    <polyline style="fill: none; fill-opacity:0; stroke-width: 2; stroke: #000000" points="101.5,-168.136 101.5,-132.318 102,-132.318 102,-110.972 "/>
    <polyline style="fill: none; fill-opacity:0; stroke-width: 2; stroke: #000000" points="97,-118.736 102,-108.736 107,-118.736 "/>
  </g>
  <g>
    <polyline style="fill: none; fill-opacity:0; stroke-width: 2; stroke: #000000" points="178.741,-134.736 178.741,-118.5 179,-118.5 179,-83.9721 "/>
    <polyline style="fill: none; fill-opacity:0; stroke-width: 2; stroke: #000000" points="174,-91.7361 179,-81.7361 184,-91.7361 "/>
  </g>
  <g>
    <polyline style="fill: none; fill-opacity:0; stroke-width: 2; stroke: #000000" points="272.241,-135.136 272.241,-107.318 272,-107.318 272,-82.9721 "/>
    <polyline style="fill: none; fill-opacity:0; stroke-width: 2; stroke: #000000" points="267,-90.7361 272,-80.7361 277,-90.7361 "/>
  </g>
  <g>
    <polyline style="fill: none; fill-opacity:0; stroke-width: 2; stroke: #000000" points="353.741,-167.536 353.741,-168.5 354,-168.5 354,-106.972 "/>
    <polyline style="fill: none; fill-opacity:0; stroke-width: 2; stroke: #000000" points="349,-114.736 354,-104.736 359,-114.736 "/>
  </g>
</svg>
