<?xml version="1.0" encoding="UTF-8" standalone="no"?>
<!DOCTYPE svg PUBLIC "-//W3C//DTD SVG 1.0//EN" "http://www.w3.org/TR/2001/PR-SVG-20010719/DTD/svg10.dtd">
<svg width="37cm" height="26cm" viewBox="191 -19 734 511" xmlns="http://www.w3.org/2000/svg" xmlns:xlink="http://www.w3.org/1999/xlink">
  <g>
    <path style="fill: #b7b79d" d="M 191.147 270.339 L 191.147,302.876 L 211.424,302.876 L 211.424,270.339 L 191.147,270.339z"/>
    <path style="fill: #b7b79d" d="M 191.258 270.462 L 191.258,303 L 211.535,303 L 211.535,270.462 L 191.258,270.462z"/>
    <path style="fill: none; fill-opacity:0; stroke-width: 0.02; stroke: #494936" d="M 191.258 270.462 L 191.258,303 L 211.535,303 L 211.535,270.462 L 191.258,270.462"/>
    <path style="fill: #000000" d="M 192.494 279.118 L 200.523,279.118 L 200.523,281.96 L 192.494,281.96 L 192.494,279.118z"/>
    <path style="fill: none; fill-opacity:0; stroke-width: 0.02; stroke: #ecece7" d="M 192.494 279.118 L 200.519,279.118 L 200.519,281.956 L 192.494,281.956 L 192.494,279.118"/>
    <path style="fill: none; fill-opacity:0; stroke-width: 0.02; stroke: #494936" d="M 192.613 281.841 L 192.613,279.233 L 200.399,279.233"/>
    <path style="fill: #c9c9b6" d="M 191.147 270.339 L 198.452,263 L 218.737,263 L 211.424,270.339 L 191.147,270.339z"/>
    <path style="fill: #c9c9b6" d="M 191.258 270.462 L 198.575,263.111 L 218.852,263.111 L 211.535,270.462 L 191.258,270.462z"/>
    <path style="fill: none; fill-opacity:0; stroke-width: 0.02; stroke: #494936" d="M 191.258 270.462 L 198.575,263.111 L 218.852,263.111 L 211.535,270.462 L 191.258,270.462"/>
    <path style="fill: #7a7a5a" d="M 211.424 302.876 L 218.737,295.525 L 218.737,263 L 211.424,270.339 L 211.424,302.876z"/>
    <path style="fill: #7a7a5a" d="M 211.535 303 L 218.852,295.649 L 218.852,263.111 L 211.535,270.462 L 211.535,303z"/>
    <path style="fill: none; fill-opacity:0; stroke-width: 0.02; stroke: #494936" d="M 211.535 303 L 218.852,295.649 L 218.852,263.111 L 211.535,270.462 L 211.535,303"/>
    <path style="fill: none; fill-opacity:0; stroke-width: 2.24; stroke: #ecece7" d="M 211.424 274.016 L 191.382,274.016"/>
    <path style="fill: none; fill-opacity:0; stroke-width: 2.24; stroke: #494936" d="M 211.424 273.778 L 191.382,273.778"/>
    <path style="fill: none; fill-opacity:0; stroke-width: 3.06; stroke: #ecece7" d="M 210.947 274.259 L 210.951,274.255"/>
    <path style="fill: none; fill-opacity:0; stroke-width: 3.06; stroke: #494936" d="M 210.947 274.016 L 210.951,274.012"/>
    <path style="fill: #000000" d="M 201.934 279.118 L 209.954,279.118 L 209.954,281.96 L 201.934,281.96 L 201.934,279.118z"/>
    <path style="fill: none; fill-opacity:0; stroke-width: 0.02; stroke: #ecece7" d="M 201.934 279.118 L 209.95,279.118 L 209.95,281.956 L 201.934,281.956 L 201.934,279.118"/>
    <path style="fill: none; fill-opacity:0; stroke-width: 0.02; stroke: #494936" d="M 202.044 281.841 L 202.044,279.233 L 209.831,279.233"/>
  </g>
  <g>
    <path style="fill: #b7b79d" d="M 312.224 141.463 L 312.224,174.001 L 332.501,174.001 L 332.501,141.463 L 312.224,141.463z"/>
    <path style="fill: #b7b79d" d="M 312.335 141.586 L 312.335,174.124 L 332.612,174.124 L 332.612,141.586 L 312.335,141.586z"/>
    <path style="fill: none; fill-opacity:0; stroke-width: 0.02; stroke: #494936" d="M 312.335 141.586 L 312.335,174.124 L 332.612,174.124 L 332.612,141.586 L 312.335,141.586"/>
    <path style="fill: #000000" d="M 313.571 150.242 L 321.6,150.242 L 321.6,153.084 L 313.571,153.084 L 313.571,150.242z"/>
    <path style="fill: none; fill-opacity:0; stroke-width: 0.02; stroke: #ecece7" d="M 313.571 150.242 L 321.595,150.242 L 321.595,153.08 L 313.571,153.08 L 313.571,150.242"/>
    <path style="fill: none; fill-opacity:0; stroke-width: 0.02; stroke: #494936" d="M 313.69 152.965 L 313.69,150.357 L 321.476,150.357"/>
    <path style="fill: #c9c9b6" d="M 312.224 141.463 L 319.528,134.124 L 339.814,134.124 L 332.501,141.463 L 312.224,141.463z"/>
    <path style="fill: #c9c9b6" d="M 312.335 141.586 L 319.652,134.235 L 339.929,134.235 L 332.612,141.586 L 312.335,141.586z"/>
    <path style="fill: none; fill-opacity:0; stroke-width: 0.02; stroke: #494936" d="M 312.335 141.586 L 319.652,134.235 L 339.929,134.235 L 332.612,141.586 L 312.335,141.586"/>
    <path style="fill: #7a7a5a" d="M 332.501 174.001 L 339.814,166.649 L 339.814,134.124 L 332.501,141.463 L 332.501,174.001z"/>
    <path style="fill: #7a7a5a" d="M 332.612 174.124 L 339.929,166.773 L 339.929,134.235 L 332.612,141.586 L 332.612,174.124z"/>
    <path style="fill: none; fill-opacity:0; stroke-width: 0.02; stroke: #494936" d="M 332.612 174.124 L 339.929,166.773 L 339.929,134.235 L 332.612,141.586 L 332.612,174.124"/>
    <path style="fill: none; fill-opacity:0; stroke-width: 2.24; stroke: #ecece7" d="M 332.501 145.141 L 312.458,145.141"/>
    <path style="fill: none; fill-opacity:0; stroke-width: 2.24; stroke: #494936" d="M 332.501 144.902 L 312.458,144.902"/>
    <path style="fill: none; fill-opacity:0; stroke-width: 3.06; stroke: #ecece7" d="M 332.024 145.384 L 332.028,145.379"/>
    <path style="fill: none; fill-opacity:0; stroke-width: 3.06; stroke: #494936" d="M 332.024 145.141 L 332.028,145.136"/>
    <path style="fill: #000000" d="M 323.01 150.242 L 331.031,150.242 L 331.031,153.084 L 323.01,153.084 L 323.01,150.242z"/>
    <path style="fill: none; fill-opacity:0; stroke-width: 0.02; stroke: #ecece7" d="M 323.01 150.242 L 331.026,150.242 L 331.026,153.08 L 323.01,153.08 L 323.01,150.242"/>
    <path style="fill: none; fill-opacity:0; stroke-width: 0.02; stroke: #494936" d="M 323.121 152.965 L 323.121,150.357 L 330.907,150.357"/>
  </g>
  <g>
    <path style="fill: #b7b79d" d="M 312.424 329.563 L 312.424,362.1 L 332.701,362.1 L 332.701,329.563 L 312.424,329.563z"/>
    <path style="fill: #b7b79d" d="M 312.535 329.686 L 312.535,362.224 L 332.812,362.224 L 332.812,329.686 L 312.535,329.686z"/>
    <path style="fill: none; fill-opacity:0; stroke-width: 0.02; stroke: #494936" d="M 312.535 329.686 L 312.535,362.224 L 332.812,362.224 L 332.812,329.686 L 312.535,329.686"/>
    <path style="fill: #000000" d="M 313.771 338.342 L 321.8,338.342 L 321.8,341.184 L 313.771,341.184 L 313.771,338.342z"/>
    <path style="fill: none; fill-opacity:0; stroke-width: 0.02; stroke: #ecece7" d="M 313.771 338.342 L 321.795,338.342 L 321.795,341.18 L 313.771,341.18 L 313.771,338.342"/>
    <path style="fill: none; fill-opacity:0; stroke-width: 0.02; stroke: #494936" d="M 313.89 341.065 L 313.89,338.457 L 321.676,338.457"/>
    <path style="fill: #c9c9b6" d="M 312.424 329.563 L 319.728,322.224 L 340.014,322.224 L 332.701,329.563 L 312.424,329.563z"/>
    <path style="fill: #c9c9b6" d="M 312.535 329.686 L 319.852,322.335 L 340.129,322.335 L 332.812,329.686 L 312.535,329.686z"/>
    <path style="fill: none; fill-opacity:0; stroke-width: 0.02; stroke: #494936" d="M 312.535 329.686 L 319.852,322.335 L 340.129,322.335 L 332.812,329.686 L 312.535,329.686"/>
    <path style="fill: #7a7a5a" d="M 332.701 362.1 L 340.014,354.749 L 340.014,322.224 L 332.701,329.563 L 332.701,362.1z"/>
    <path style="fill: #7a7a5a" d="M 332.812 362.224 L 340.129,354.873 L 340.129,322.335 L 332.812,329.686 L 332.812,362.224z"/>
    <path style="fill: none; fill-opacity:0; stroke-width: 0.02; stroke: #494936" d="M 332.812 362.224 L 340.129,354.873 L 340.129,322.335 L 332.812,329.686 L 332.812,362.224"/>
    <path style="fill: none; fill-opacity:0; stroke-width: 2.24; stroke: #ecece7" d="M 332.701 333.24 L 312.658,333.24"/>
    <path style="fill: none; fill-opacity:0; stroke-width: 2.24; stroke: #494936" d="M 332.701 333.002 L 312.658,333.002"/>
    <path style="fill: none; fill-opacity:0; stroke-width: 3.06; stroke: #ecece7" d="M 332.224 333.483 L 332.228,333.479"/>
    <path style="fill: none; fill-opacity:0; stroke-width: 3.06; stroke: #494936" d="M 332.224 333.24 L 332.228,333.236"/>
    <path style="fill: #000000" d="M 323.21 338.342 L 331.231,338.342 L 331.231,341.184 L 323.21,341.184 L 323.21,338.342z"/>
    <path style="fill: none; fill-opacity:0; stroke-width: 0.02; stroke: #ecece7" d="M 323.21 338.342 L 331.226,338.342 L 331.226,341.18 L 323.21,341.18 L 323.21,338.342"/>
    <path style="fill: none; fill-opacity:0; stroke-width: 0.02; stroke: #494936" d="M 323.321 341.065 L 323.321,338.457 L 331.107,338.457"/>
  </g>
  <g>
    <path style="fill: #b7b79d" d="M 359.624 235.663 L 359.624,268.2 L 379.901,268.2 L 379.901,235.663 L 359.624,235.663z"/>
    <path style="fill: #b7b79d" d="M 359.735 235.786 L 359.735,268.324 L 380.012,268.324 L 380.012,235.786 L 359.735,235.786z"/>
    <path style="fill: none; fill-opacity:0; stroke-width: 0.02; stroke: #494936" d="M 359.735 235.786 L 359.735,268.324 L 380.012,268.324 L 380.012,235.786 L 359.735,235.786"/>
    <path style="fill: #000000" d="M 360.971 244.442 L 369,244.442 L 369,247.284 L 360.971,247.284 L 360.971,244.442z"/>
    <path style="fill: none; fill-opacity:0; stroke-width: 0.02; stroke: #ecece7" d="M 360.971 244.442 L 368.995,244.442 L 368.995,247.28 L 360.971,247.28 L 360.971,244.442"/>
    <path style="fill: none; fill-opacity:0; stroke-width: 0.02; stroke: #494936" d="M 361.09 247.165 L 361.09,244.557 L 368.876,244.557"/>
    <path style="fill: #c9c9b6" d="M 359.624 235.663 L 366.928,228.324 L 387.214,228.324 L 379.901,235.663 L 359.624,235.663z"/>
    <path style="fill: #c9c9b6" d="M 359.735 235.786 L 367.052,228.435 L 387.329,228.435 L 380.012,235.786 L 359.735,235.786z"/>
    <path style="fill: none; fill-opacity:0; stroke-width: 0.02; stroke: #494936" d="M 359.735 235.786 L 367.052,228.435 L 387.329,228.435 L 380.012,235.786 L 359.735,235.786"/>
    <path style="fill: #7a7a5a" d="M 379.901 268.2 L 387.214,260.849 L 387.214,228.324 L 379.901,235.663 L 379.901,268.2z"/>
    <path style="fill: #7a7a5a" d="M 380.012 268.324 L 387.329,260.973 L 387.329,228.435 L 380.012,235.786 L 380.012,268.324z"/>
    <path style="fill: none; fill-opacity:0; stroke-width: 0.02; stroke: #494936" d="M 380.012 268.324 L 387.329,260.973 L 387.329,228.435 L 380.012,235.786 L 380.012,268.324"/>
    <path style="fill: none; fill-opacity:0; stroke-width: 2.24; stroke: #ecece7" d="M 379.901 239.34 L 359.858,239.34"/>
    <path style="fill: none; fill-opacity:0; stroke-width: 2.24; stroke: #494936" d="M 379.901 239.102 L 359.858,239.102"/>
    <path style="fill: none; fill-opacity:0; stroke-width: 3.06; stroke: #ecece7" d="M 379.424 239.583 L 379.428,239.579"/>
    <path style="fill: none; fill-opacity:0; stroke-width: 3.06; stroke: #494936" d="M 379.424 239.34 L 379.428,239.336"/>
    <path style="fill: #000000" d="M 370.41 244.442 L 378.431,244.442 L 378.431,247.284 L 370.41,247.284 L 370.41,244.442z"/>
    <path style="fill: none; fill-opacity:0; stroke-width: 0.02; stroke: #ecece7" d="M 370.41 244.442 L 378.426,244.442 L 378.426,247.28 L 370.41,247.28 L 370.41,244.442"/>
    <path style="fill: none; fill-opacity:0; stroke-width: 0.02; stroke: #494936" d="M 370.521 247.165 L 370.521,244.557 L 378.307,244.557"/>
  </g>
  <g>
    <path style="fill: #b7b79d" d="M 486.824 150.763 L 486.824,183.301 L 507.101,183.301 L 507.101,150.763 L 486.824,150.763z"/>
    <path style="fill: #b7b79d" d="M 486.935 150.886 L 486.935,183.424 L 507.212,183.424 L 507.212,150.886 L 486.935,150.886z"/>
    <path style="fill: none; fill-opacity:0; stroke-width: 0.02; stroke: #494936" d="M 486.935 150.886 L 486.935,183.424 L 507.212,183.424 L 507.212,150.886 L 486.935,150.886"/>
    <path style="fill: #000000" d="M 488.171 159.542 L 496.2,159.542 L 496.2,162.384 L 488.171,162.384 L 488.171,159.542z"/>
    <path style="fill: none; fill-opacity:0; stroke-width: 0.02; stroke: #ecece7" d="M 488.171 159.542 L 496.195,159.542 L 496.195,162.38 L 488.171,162.38 L 488.171,159.542"/>
    <path style="fill: none; fill-opacity:0; stroke-width: 0.02; stroke: #494936" d="M 488.29 162.265 L 488.29,159.657 L 496.076,159.657"/>
    <path style="fill: #c9c9b6" d="M 486.824 150.763 L 494.128,143.424 L 514.414,143.424 L 507.101,150.763 L 486.824,150.763z"/>
    <path style="fill: #c9c9b6" d="M 486.935 150.886 L 494.252,143.535 L 514.529,143.535 L 507.212,150.886 L 486.935,150.886z"/>
    <path style="fill: none; fill-opacity:0; stroke-width: 0.02; stroke: #494936" d="M 486.935 150.886 L 494.252,143.535 L 514.529,143.535 L 507.212,150.886 L 486.935,150.886"/>
    <path style="fill: #7a7a5a" d="M 507.101 183.301 L 514.414,175.949 L 514.414,143.424 L 507.101,150.763 L 507.101,183.301z"/>
    <path style="fill: #7a7a5a" d="M 507.212 183.424 L 514.529,176.073 L 514.529,143.535 L 507.212,150.886 L 507.212,183.424z"/>
    <path style="fill: none; fill-opacity:0; stroke-width: 0.02; stroke: #494936" d="M 507.212 183.424 L 514.529,176.073 L 514.529,143.535 L 507.212,150.886 L 507.212,183.424"/>
    <path style="fill: none; fill-opacity:0; stroke-width: 2.24; stroke: #ecece7" d="M 507.101 154.441 L 487.058,154.441"/>
    <path style="fill: none; fill-opacity:0; stroke-width: 2.24; stroke: #494936" d="M 507.101 154.202 L 487.058,154.202"/>
    <path style="fill: none; fill-opacity:0; stroke-width: 3.06; stroke: #ecece7" d="M 506.624 154.684 L 506.628,154.679"/>
    <path style="fill: none; fill-opacity:0; stroke-width: 3.06; stroke: #494936" d="M 506.624 154.441 L 506.628,154.436"/>
    <path style="fill: #000000" d="M 497.61 159.542 L 505.631,159.542 L 505.631,162.384 L 497.61,162.384 L 497.61,159.542z"/>
    <path style="fill: none; fill-opacity:0; stroke-width: 0.02; stroke: #ecece7" d="M 497.61 159.542 L 505.626,159.542 L 505.626,162.38 L 497.61,162.38 L 497.61,159.542"/>
    <path style="fill: none; fill-opacity:0; stroke-width: 0.02; stroke: #494936" d="M 497.721 162.265 L 497.721,159.657 L 505.507,159.657"/>
  </g>
  <g>
    <path style="fill: #b7b79d" d="M 499.024 282.863 L 499.024,315.4 L 519.301,315.4 L 519.301,282.863 L 499.024,282.863z"/>
    <path style="fill: #b7b79d" d="M 499.135 282.986 L 499.135,315.524 L 519.412,315.524 L 519.412,282.986 L 499.135,282.986z"/>
    <path style="fill: none; fill-opacity:0; stroke-width: 0.02; stroke: #494936" d="M 499.135 282.986 L 499.135,315.524 L 519.412,315.524 L 519.412,282.986 L 499.135,282.986"/>
    <path style="fill: #000000" d="M 500.371 291.642 L 508.4,291.642 L 508.4,294.484 L 500.371,294.484 L 500.371,291.642z"/>
    <path style="fill: none; fill-opacity:0; stroke-width: 0.02; stroke: #ecece7" d="M 500.371 291.642 L 508.395,291.642 L 508.395,294.48 L 500.371,294.48 L 500.371,291.642"/>
    <path style="fill: none; fill-opacity:0; stroke-width: 0.02; stroke: #494936" d="M 500.49 294.365 L 500.49,291.757 L 508.276,291.757"/>
    <path style="fill: #c9c9b6" d="M 499.024 282.863 L 506.328,275.524 L 526.614,275.524 L 519.301,282.863 L 499.024,282.863z"/>
    <path style="fill: #c9c9b6" d="M 499.135 282.986 L 506.452,275.635 L 526.729,275.635 L 519.412,282.986 L 499.135,282.986z"/>
    <path style="fill: none; fill-opacity:0; stroke-width: 0.02; stroke: #494936" d="M 499.135 282.986 L 506.452,275.635 L 526.729,275.635 L 519.412,282.986 L 499.135,282.986"/>
    <path style="fill: #7a7a5a" d="M 519.301 315.4 L 526.614,308.049 L 526.614,275.524 L 519.301,282.863 L 519.301,315.4z"/>
    <path style="fill: #7a7a5a" d="M 519.412 315.524 L 526.729,308.173 L 526.729,275.635 L 519.412,282.986 L 519.412,315.524z"/>
    <path style="fill: none; fill-opacity:0; stroke-width: 0.02; stroke: #494936" d="M 519.412 315.524 L 526.729,308.173 L 526.729,275.635 L 519.412,282.986 L 519.412,315.524"/>
    <path style="fill: none; fill-opacity:0; stroke-width: 2.24; stroke: #ecece7" d="M 519.301 286.54 L 499.258,286.54"/>
    <path style="fill: none; fill-opacity:0; stroke-width: 2.24; stroke: #494936" d="M 519.301 286.302 L 499.258,286.302"/>
    <path style="fill: none; fill-opacity:0; stroke-width: 3.06; stroke: #ecece7" d="M 518.824 286.783 L 518.828,286.779"/>
    <path style="fill: none; fill-opacity:0; stroke-width: 3.06; stroke: #494936" d="M 518.824 286.54 L 518.828,286.536"/>
    <path style="fill: #000000" d="M 509.81 291.642 L 517.831,291.642 L 517.831,294.484 L 509.81,294.484 L 509.81,291.642z"/>
    <path style="fill: none; fill-opacity:0; stroke-width: 0.02; stroke: #ecece7" d="M 509.81 291.642 L 517.826,291.642 L 517.826,294.48 L 509.81,294.48 L 509.81,291.642"/>
    <path style="fill: none; fill-opacity:0; stroke-width: 0.02; stroke: #494936" d="M 509.921 294.365 L 509.921,291.757 L 517.707,291.757"/>
  </g>
  <line style="fill: none; fill-opacity:0; stroke-width: 2; stroke: #000000" x1="218.866" y1="265.465" x2="312.201" y2="166.118"/>
  <line style="fill: none; fill-opacity:0; stroke-width: 2; stroke: #000000" x1="339.933" y1="154.669" x2="486.804" y2="162.492"/>
  <line style="fill: none; fill-opacity:0; stroke-width: 2; stroke: #000000" x1="333.51" y1="173.172" x2="363.182" y2="232.139"/>
  <line style="fill: none; fill-opacity:0; stroke-width: 2; stroke: #000000" x1="387.341" y1="253.484" x2="499.063" y2="291.313"/>
  <line style="fill: none; fill-opacity:0; stroke-width: 2; stroke: #000000" x1="218.863" y1="290.582" x2="312.404" y2="336.262"/>
  <line style="fill: none; fill-opacity:0; stroke-width: 2; stroke: #000000" x1="340.145" y1="337.859" x2="499.041" y2="298.092"/>
  <line style="fill: none; fill-opacity:0; stroke-width: 2; stroke: #000000" x1="508.748" y1="275.519" x2="500.244" y2="183.442"/>
  <line style="fill: none; fill-opacity:0; stroke-width: 2; stroke: #000000" x1="218.865" y1="279.355" x2="359.598" y2="250.389"/>
  <line style="fill: none; fill-opacity:0; stroke-width: 2; stroke: #000000" x1="514.541" y1="157.536" x2="588.077" y2="132.201"/>
  <g>
    <path style="fill: #b7b79d" d="M 588.524 117.839 L 588.524,150.376 L 608.801,150.376 L 608.801,117.839 L 588.524,117.839z"/>
    <path style="fill: #b7b79d" d="M 588.635 117.962 L 588.635,150.5 L 608.912,150.5 L 608.912,117.962 L 588.635,117.962z"/>
    <path style="fill: none; fill-opacity:0; stroke-width: 0.02; stroke: #494936" d="M 588.635 117.962 L 588.635,150.5 L 608.912,150.5 L 608.912,117.962 L 588.635,117.962"/>
    <path style="fill: #000000" d="M 589.871 126.618 L 597.9,126.618 L 597.9,129.46 L 589.871,129.46 L 589.871,126.618z"/>
    <path style="fill: none; fill-opacity:0; stroke-width: 0.02; stroke: #ecece7" d="M 589.871 126.618 L 597.895,126.618 L 597.895,129.456 L 589.871,129.456 L 589.871,126.618"/>
    <path style="fill: none; fill-opacity:0; stroke-width: 0.02; stroke: #494936" d="M 589.99 129.341 L 589.99,126.733 L 597.776,126.733"/>
    <path style="fill: #c9c9b6" d="M 588.524 117.839 L 595.829,110.5 L 616.114,110.5 L 608.801,117.839 L 588.524,117.839z"/>
    <path style="fill: #c9c9b6" d="M 588.635 117.962 L 595.952,110.611 L 616.229,110.611 L 608.912,117.962 L 588.635,117.962z"/>
    <path style="fill: none; fill-opacity:0; stroke-width: 0.02; stroke: #494936" d="M 588.635 117.962 L 595.952,110.611 L 616.229,110.611 L 608.912,117.962 L 588.635,117.962"/>
    <path style="fill: #7a7a5a" d="M 608.801 150.376 L 616.114,143.025 L 616.114,110.5 L 608.801,117.839 L 608.801,150.376z"/>
    <path style="fill: #7a7a5a" d="M 608.912 150.5 L 616.229,143.149 L 616.229,110.611 L 608.912,117.962 L 608.912,150.5z"/>
    <path style="fill: none; fill-opacity:0; stroke-width: 0.02; stroke: #494936" d="M 608.912 150.5 L 616.229,143.149 L 616.229,110.611 L 608.912,117.962 L 608.912,150.5"/>
    <path style="fill: none; fill-opacity:0; stroke-width: 2.24; stroke: #ecece7" d="M 608.801 121.516 L 588.758,121.516"/>
    <path style="fill: none; fill-opacity:0; stroke-width: 2.24; stroke: #494936" d="M 608.801 121.278 L 588.758,121.278"/>
    <path style="fill: none; fill-opacity:0; stroke-width: 3.06; stroke: #ecece7" d="M 608.324 121.759 L 608.328,121.755"/>
    <path style="fill: none; fill-opacity:0; stroke-width: 3.06; stroke: #494936" d="M 608.324 121.516 L 608.328,121.512"/>
    <path style="fill: #000000" d="M 599.31 126.618 L 607.331,126.618 L 607.331,129.46 L 599.31,129.46 L 599.31,126.618z"/>
    <path style="fill: none; fill-opacity:0; stroke-width: 0.02; stroke: #ecece7" d="M 599.31 126.618 L 607.327,126.618 L 607.327,129.456 L 599.31,129.456 L 599.31,126.618"/>
    <path style="fill: none; fill-opacity:0; stroke-width: 0.02; stroke: #494936" d="M 599.421 129.341 L 599.421,126.733 L 607.207,126.733"/>
  </g>
  <g>
    <path style="fill: #b7b79d" d="M 709.601 -11.0372 L 709.601,21.5006 L 729.878,21.5006 L 729.878,-11.0372 L 709.601,-11.0372z"/>
    <path style="fill: #b7b79d" d="M 709.711 -10.9136 L 709.711,21.6242 L 729.988,21.6242 L 729.988,-10.9136 L 709.711,-10.9136z"/>
    <path style="fill: none; fill-opacity:0; stroke-width: 0.02; stroke: #494936" d="M 709.711 -10.9136 L 709.711,21.6242 L 729.988,21.6242 L 729.988,-10.9136 L 709.711,-10.9136"/>
    <path style="fill: #000000" d="M 710.947 -2.25818 L 718.976,-2.25818 L 718.976,0.584355 L 710.947,0.584355 L 710.947,-2.25818z"/>
    <path style="fill: none; fill-opacity:0; stroke-width: 0.02; stroke: #ecece7" d="M 710.947 -2.25818 L 718.972,-2.25818 L 718.972,0.580094 L 710.947,0.580094 L 710.947,-2.25818"/>
    <path style="fill: none; fill-opacity:0; stroke-width: 0.02; stroke: #494936" d="M 711.067 0.465029 L 711.067,-2.14311 L 718.853,-2.14311"/>
    <path style="fill: #c9c9b6" d="M 709.601 -11.0372 L 716.905,-18.3758 L 737.191,-18.3758 L 729.878,-11.0372 L 709.601,-11.0372z"/>
    <path style="fill: #c9c9b6" d="M 709.711 -10.9136 L 717.029,-18.265 L 737.306,-18.265 L 729.988,-10.9136 L 709.711,-10.9136z"/>
    <path style="fill: none; fill-opacity:0; stroke-width: 0.02; stroke: #494936" d="M 709.711 -10.9136 L 717.029,-18.265 L 737.306,-18.265 L 729.988,-10.9136 L 709.711,-10.9136"/>
    <path style="fill: #7a7a5a" d="M 729.878 21.5006 L 737.191,14.1492 L 737.191,-18.3758 L 729.878,-11.0372 L 729.878,21.5006z"/>
    <path style="fill: #7a7a5a" d="M 729.988 21.6242 L 737.306,14.2728 L 737.306,-18.265 L 729.988,-10.9136 L 729.988,21.6242z"/>
    <path style="fill: none; fill-opacity:0; stroke-width: 0.02; stroke: #494936" d="M 729.988 21.6242 L 737.306,14.2728 L 737.306,-18.265 L 729.988,-10.9136 L 729.988,21.6242"/>
    <path style="fill: none; fill-opacity:0; stroke-width: 2.24; stroke: #ecece7" d="M 729.878 -7.35939 L 709.835,-7.35939"/>
    <path style="fill: none; fill-opacity:0; stroke-width: 2.24; stroke: #494936" d="M 729.878 -7.59804 L 709.835,-7.59804"/>
    <path style="fill: none; fill-opacity:0; stroke-width: 3.06; stroke: #ecece7" d="M 729.4 -7.11648 L 729.405,-7.12074"/>
    <path style="fill: none; fill-opacity:0; stroke-width: 3.06; stroke: #494936" d="M 729.4 -7.35939 L 729.405,-7.36365"/>
    <path style="fill: #000000" d="M 720.387 -2.25818 L 728.407,-2.25818 L 728.407,0.584355 L 720.387,0.584355 L 720.387,-2.25818z"/>
    <path style="fill: none; fill-opacity:0; stroke-width: 0.02; stroke: #ecece7" d="M 720.387 -2.25818 L 728.403,-2.25818 L 728.403,0.580094 L 720.387,0.580094 L 720.387,-2.25818"/>
    <path style="fill: none; fill-opacity:0; stroke-width: 0.02; stroke: #494936" d="M 720.498 0.465029 L 720.498,-2.14311 L 728.284,-2.14311"/>
  </g>
  <g>
    <path style="fill: #b7b79d" d="M 757.001 83.1626 L 757.001,115.7 L 777.278,115.7 L 777.278,83.1626 L 757.001,83.1626z"/>
    <path style="fill: #b7b79d" d="M 757.111 83.2862 L 757.111,115.824 L 777.388,115.824 L 777.388,83.2862 L 757.111,83.2862z"/>
    <path style="fill: none; fill-opacity:0; stroke-width: 0.02; stroke: #494936" d="M 757.111 83.2862 L 757.111,115.824 L 777.388,115.824 L 777.388,83.2862 L 757.111,83.2862"/>
    <path style="fill: #000000" d="M 758.347 91.9416 L 766.376,91.9416 L 766.376,94.7842 L 758.347,94.7842 L 758.347,91.9416z"/>
    <path style="fill: none; fill-opacity:0; stroke-width: 0.02; stroke: #ecece7" d="M 758.347 91.9416 L 766.372,91.9416 L 766.372,94.7799 L 758.347,94.7799 L 758.347,91.9416"/>
    <path style="fill: none; fill-opacity:0; stroke-width: 0.02; stroke: #494936" d="M 758.467 94.6648 L 758.467,92.0567 L 766.253,92.0567"/>
    <path style="fill: #c9c9b6" d="M 757.001 83.1626 L 764.305,75.824 L 784.591,75.824 L 777.278,83.1626 L 757.001,83.1626z"/>
    <path style="fill: #c9c9b6" d="M 757.111 83.2862 L 764.429,75.9348 L 784.706,75.9348 L 777.388,83.2862 L 757.111,83.2862z"/>
    <path style="fill: none; fill-opacity:0; stroke-width: 0.02; stroke: #494936" d="M 757.111 83.2862 L 764.429,75.9348 L 784.706,75.9348 L 777.388,83.2862 L 757.111,83.2862"/>
    <path style="fill: #7a7a5a" d="M 777.278 115.7 L 784.591,108.349 L 784.591,75.824 L 777.278,83.1626 L 777.278,115.7z"/>
    <path style="fill: #7a7a5a" d="M 777.388 115.824 L 784.706,108.473 L 784.706,75.9348 L 777.388,83.2862 L 777.388,115.824z"/>
    <path style="fill: none; fill-opacity:0; stroke-width: 0.02; stroke: #494936" d="M 777.388 115.824 L 784.706,108.473 L 784.706,75.9348 L 777.388,83.2862 L 777.388,115.824"/>
    <path style="fill: none; fill-opacity:0; stroke-width: 2.24; stroke: #ecece7" d="M 777.278 86.8404 L 757.235,86.8404"/>
    <path style="fill: none; fill-opacity:0; stroke-width: 2.24; stroke: #494936" d="M 777.278 86.6018 L 757.235,86.6018"/>
    <path style="fill: none; fill-opacity:0; stroke-width: 3.06; stroke: #ecece7" d="M 776.8 87.0833 L 776.805,87.0791"/>
    <path style="fill: none; fill-opacity:0; stroke-width: 3.06; stroke: #494936" d="M 776.8 86.8404 L 776.805,86.8361"/>
    <path style="fill: #000000" d="M 767.787 91.9416 L 775.807,91.9416 L 775.807,94.7842 L 767.787,94.7842 L 767.787,91.9416z"/>
    <path style="fill: none; fill-opacity:0; stroke-width: 0.02; stroke: #ecece7" d="M 767.787 91.9416 L 775.803,91.9416 L 775.803,94.7799 L 767.787,94.7799 L 767.787,91.9416"/>
    <path style="fill: none; fill-opacity:0; stroke-width: 0.02; stroke: #494936" d="M 767.898 94.6648 L 767.898,92.0567 L 775.684,92.0567"/>
  </g>
  <g>
    <path style="fill: #b7b79d" d="M 884.201 -1.73721 L 884.201,30.8006 L 904.478,30.8006 L 904.478,-1.73721 L 884.201,-1.73721z"/>
    <path style="fill: #b7b79d" d="M 884.311 -1.61362 L 884.311,30.9242 L 904.588,30.9242 L 904.588,-1.61362 L 884.311,-1.61362z"/>
    <path style="fill: none; fill-opacity:0; stroke-width: 0.02; stroke: #494936" d="M 884.311 -1.61362 L 884.311,30.9242 L 904.588,30.9242 L 904.588,-1.61362 L 884.311,-1.61362"/>
    <path style="fill: #000000" d="M 885.547 7.04182 L 893.576,7.04182 L 893.576,9.88436 L 885.547,9.88436 L 885.547,7.04182z"/>
    <path style="fill: none; fill-opacity:0; stroke-width: 0.02; stroke: #ecece7" d="M 885.547 7.04182 L 893.572,7.04182 L 893.572,9.88009 L 885.547,9.88009 L 885.547,7.04182"/>
    <path style="fill: none; fill-opacity:0; stroke-width: 0.02; stroke: #494936" d="M 885.667 9.76503 L 885.667,7.15689 L 893.453,7.15689"/>
    <path style="fill: #c9c9b6" d="M 884.201 -1.73721 L 891.505,-9.0758 L 911.791,-9.0758 L 904.478,-1.73721 L 884.201,-1.73721z"/>
    <path style="fill: #c9c9b6" d="M 884.311 -1.61362 L 891.629,-8.96499 L 911.906,-8.96499 L 904.588,-1.61362 L 884.311,-1.61362z"/>
    <path style="fill: none; fill-opacity:0; stroke-width: 0.02; stroke: #494936" d="M 884.311 -1.61362 L 891.629,-8.96499 L 911.906,-8.96499 L 904.588,-1.61362 L 884.311,-1.61362"/>
    <path style="fill: #7a7a5a" d="M 904.478 30.8006 L 911.791,23.4492 L 911.791,-9.0758 L 904.478,-1.73721 L 904.478,30.8006z"/>
    <path style="fill: #7a7a5a" d="M 904.588 30.9242 L 911.906,23.5728 L 911.906,-8.96499 L 904.588,-1.61362 L 904.588,30.9242z"/>
    <path style="fill: none; fill-opacity:0; stroke-width: 0.02; stroke: #494936" d="M 904.588 30.9242 L 911.906,23.5728 L 911.906,-8.96499 L 904.588,-1.61362 L 904.588,30.9242"/>
    <path style="fill: none; fill-opacity:0; stroke-width: 2.24; stroke: #ecece7" d="M 904.478 1.94061 L 884.435,1.94061"/>
    <path style="fill: none; fill-opacity:0; stroke-width: 2.24; stroke: #494936" d="M 904.478 1.70196 L 884.435,1.70196"/>
    <path style="fill: none; fill-opacity:0; stroke-width: 3.06; stroke: #ecece7" d="M 904 2.18352 L 904.005,2.17926"/>
    <path style="fill: none; fill-opacity:0; stroke-width: 3.06; stroke: #494936" d="M 904 1.94061 L 904.005,1.93635"/>
    <path style="fill: #000000" d="M 894.987 7.04182 L 903.007,7.04182 L 903.007,9.88436 L 894.987,9.88436 L 894.987,7.04182z"/>
    <path style="fill: none; fill-opacity:0; stroke-width: 0.02; stroke: #ecece7" d="M 894.987 7.04182 L 903.003,7.04182 L 903.003,9.88009 L 894.987,9.88009 L 894.987,7.04182"/>
    <path style="fill: none; fill-opacity:0; stroke-width: 0.02; stroke: #494936" d="M 895.098 9.76503 L 895.098,7.15689 L 902.884,7.15689"/>
  </g>
  <g>
    <path style="fill: #b7b79d" d="M 896.401 130.363 L 896.401,162.9 L 916.678,162.9 L 916.678,130.363 L 896.401,130.363z"/>
    <path style="fill: #b7b79d" d="M 896.511 130.486 L 896.511,163.024 L 916.788,163.024 L 916.788,130.486 L 896.511,130.486z"/>
    <path style="fill: none; fill-opacity:0; stroke-width: 0.02; stroke: #494936" d="M 896.511 130.486 L 896.511,163.024 L 916.788,163.024 L 916.788,130.486 L 896.511,130.486"/>
    <path style="fill: #000000" d="M 897.747 139.142 L 905.776,139.142 L 905.776,141.984 L 897.747,141.984 L 897.747,139.142z"/>
    <path style="fill: none; fill-opacity:0; stroke-width: 0.02; stroke: #ecece7" d="M 897.747 139.142 L 905.772,139.142 L 905.772,141.98 L 897.747,141.98 L 897.747,139.142"/>
    <path style="fill: none; fill-opacity:0; stroke-width: 0.02; stroke: #494936" d="M 897.867 141.865 L 897.867,139.257 L 905.653,139.257"/>
    <path style="fill: #c9c9b6" d="M 896.401 130.363 L 903.705,123.024 L 923.991,123.024 L 916.678,130.363 L 896.401,130.363z"/>
    <path style="fill: #c9c9b6" d="M 896.511 130.486 L 903.829,123.135 L 924.106,123.135 L 916.788,130.486 L 896.511,130.486z"/>
    <path style="fill: none; fill-opacity:0; stroke-width: 0.02; stroke: #494936" d="M 896.511 130.486 L 903.829,123.135 L 924.106,123.135 L 916.788,130.486 L 896.511,130.486"/>
    <path style="fill: #7a7a5a" d="M 916.678 162.9 L 923.991,155.549 L 923.991,123.024 L 916.678,130.363 L 916.678,162.9z"/>
    <path style="fill: #7a7a5a" d="M 916.788 163.024 L 924.106,155.673 L 924.106,123.135 L 916.788,130.486 L 916.788,163.024z"/>
    <path style="fill: none; fill-opacity:0; stroke-width: 0.02; stroke: #494936" d="M 916.788 163.024 L 924.106,155.673 L 924.106,123.135 L 916.788,130.486 L 916.788,163.024"/>
    <path style="fill: none; fill-opacity:0; stroke-width: 2.24; stroke: #ecece7" d="M 916.678 134.04 L 896.635,134.04"/>
    <path style="fill: none; fill-opacity:0; stroke-width: 2.24; stroke: #494936" d="M 916.678 133.802 L 896.635,133.802"/>
    <path style="fill: none; fill-opacity:0; stroke-width: 3.06; stroke: #ecece7" d="M 916.2 134.283 L 916.205,134.279"/>
    <path style="fill: none; fill-opacity:0; stroke-width: 3.06; stroke: #494936" d="M 916.2 134.04 L 916.205,134.036"/>
    <path style="fill: #000000" d="M 907.187 139.142 L 915.207,139.142 L 915.207,141.984 L 907.187,141.984 L 907.187,139.142z"/>
    <path style="fill: none; fill-opacity:0; stroke-width: 0.02; stroke: #ecece7" d="M 907.187 139.142 L 915.203,139.142 L 915.203,141.98 L 907.187,141.98 L 907.187,139.142"/>
    <path style="fill: none; fill-opacity:0; stroke-width: 0.02; stroke: #494936" d="M 907.298 141.865 L 907.298,139.257 L 915.084,139.257"/>
  </g>
  <line style="fill: none; fill-opacity:0; stroke-width: 2; stroke: #000000" x1="616.243" y1="112.965" x2="709.578" y2="13.6183"/>
  <line style="fill: none; fill-opacity:0; stroke-width: 2; stroke: #000000" x1="737.309" y1="2.16922" x2="884.18" y2="9.99225"/>
  <line style="fill: none; fill-opacity:0; stroke-width: 2; stroke: #000000" x1="730.887" y1="20.6724" x2="760.558" y2="79.6393"/>
  <line style="fill: none; fill-opacity:0; stroke-width: 2; stroke: #000000" x1="784.717" y1="100.984" x2="896.44" y2="138.813"/>
  <line style="fill: none; fill-opacity:0; stroke-width: 2; stroke: #000000" x1="616.191" y1="138.058" x2="709.781" y2="183.762"/>
  <line style="fill: none; fill-opacity:0; stroke-width: 2; stroke: #000000" x1="737.521" y1="185.359" x2="896.401" y2="146.693"/>
  <line style="fill: none; fill-opacity:0; stroke-width: 2; stroke: #000000" x1="906.125" y1="123.019" x2="897.621" y2="30.9423"/>
  <line style="fill: none; fill-opacity:0; stroke-width: 2; stroke: #000000" x1="616.242" y1="126.855" x2="756.975" y2="97.8889"/>
  <g>
    <path style="fill: #b7b79d" d="M 711.524 170.963 L 711.524,203.501 L 731.801,203.501 L 731.801,170.963 L 711.524,170.963z"/>
    <path style="fill: #b7b79d" d="M 711.635 171.086 L 711.635,203.624 L 731.912,203.624 L 731.912,171.086 L 711.635,171.086z"/>
    <path style="fill: none; fill-opacity:0; stroke-width: 0.02; stroke: #494936" d="M 711.635 171.086 L 711.635,203.624 L 731.912,203.624 L 731.912,171.086 L 711.635,171.086"/>
    <path style="fill: #000000" d="M 712.871 179.742 L 720.9,179.742 L 720.9,182.584 L 712.871,182.584 L 712.871,179.742z"/>
    <path style="fill: none; fill-opacity:0; stroke-width: 0.02; stroke: #ecece7" d="M 712.871 179.742 L 720.895,179.742 L 720.895,182.58 L 712.871,182.58 L 712.871,179.742"/>
    <path style="fill: none; fill-opacity:0; stroke-width: 0.02; stroke: #494936" d="M 712.99 182.465 L 712.99,179.857 L 720.776,179.857"/>
    <path style="fill: #c9c9b6" d="M 711.524 170.963 L 718.829,163.624 L 739.114,163.624 L 731.801,170.963 L 711.524,170.963z"/>
    <path style="fill: #c9c9b6" d="M 711.635 171.086 L 718.952,163.735 L 739.229,163.735 L 731.912,171.086 L 711.635,171.086z"/>
    <path style="fill: none; fill-opacity:0; stroke-width: 0.02; stroke: #494936" d="M 711.635 171.086 L 718.952,163.735 L 739.229,163.735 L 731.912,171.086 L 711.635,171.086"/>
    <path style="fill: #7a7a5a" d="M 731.801 203.501 L 739.114,196.149 L 739.114,163.624 L 731.801,170.963 L 731.801,203.501z"/>
    <path style="fill: #7a7a5a" d="M 731.912 203.624 L 739.229,196.273 L 739.229,163.735 L 731.912,171.086 L 731.912,203.624z"/>
    <path style="fill: none; fill-opacity:0; stroke-width: 0.02; stroke: #494936" d="M 731.912 203.624 L 739.229,196.273 L 739.229,163.735 L 731.912,171.086 L 731.912,203.624"/>
    <path style="fill: none; fill-opacity:0; stroke-width: 2.24; stroke: #ecece7" d="M 731.801 174.641 L 711.758,174.641"/>
    <path style="fill: none; fill-opacity:0; stroke-width: 2.24; stroke: #494936" d="M 731.801 174.402 L 711.758,174.402"/>
    <path style="fill: none; fill-opacity:0; stroke-width: 3.06; stroke: #ecece7" d="M 731.324 174.884 L 731.328,174.879"/>
    <path style="fill: none; fill-opacity:0; stroke-width: 3.06; stroke: #494936" d="M 731.324 174.641 L 731.328,174.636"/>
    <path style="fill: #000000" d="M 722.31 179.742 L 730.331,179.742 L 730.331,182.584 L 722.31,182.584 L 722.31,179.742z"/>
    <path style="fill: none; fill-opacity:0; stroke-width: 0.02; stroke: #ecece7" d="M 722.31 179.742 L 730.327,179.742 L 730.327,182.58 L 722.31,182.58 L 722.31,179.742"/>
    <path style="fill: none; fill-opacity:0; stroke-width: 0.02; stroke: #494936" d="M 722.421 182.465 L 722.421,179.857 L 730.207,179.857"/>
  </g>
  <g>
    <path style="fill: #b7b79d" d="M 533.524 399.839 L 533.524,432.376 L 553.801,432.376 L 553.801,399.839 L 533.524,399.839z"/>
    <path style="fill: #b7b79d" d="M 533.635 399.962 L 533.635,432.5 L 553.912,432.5 L 553.912,399.962 L 533.635,399.962z"/>
    <path style="fill: none; fill-opacity:0; stroke-width: 0.02; stroke: #494936" d="M 533.635 399.962 L 533.635,432.5 L 553.912,432.5 L 553.912,399.962 L 533.635,399.962"/>
    <path style="fill: #000000" d="M 534.871 408.618 L 542.9,408.618 L 542.9,411.46 L 534.871,411.46 L 534.871,408.618z"/>
    <path style="fill: none; fill-opacity:0; stroke-width: 0.02; stroke: #ecece7" d="M 534.871 408.618 L 542.895,408.618 L 542.895,411.456 L 534.871,411.456 L 534.871,408.618"/>
    <path style="fill: none; fill-opacity:0; stroke-width: 0.02; stroke: #494936" d="M 534.99 411.341 L 534.99,408.733 L 542.776,408.733"/>
    <path style="fill: #c9c9b6" d="M 533.524 399.839 L 540.829,392.5 L 561.114,392.5 L 553.801,399.839 L 533.524,399.839z"/>
    <path style="fill: #c9c9b6" d="M 533.635 399.962 L 540.952,392.611 L 561.229,392.611 L 553.912,399.962 L 533.635,399.962z"/>
    <path style="fill: none; fill-opacity:0; stroke-width: 0.02; stroke: #494936" d="M 533.635 399.962 L 540.952,392.611 L 561.229,392.611 L 553.912,399.962 L 533.635,399.962"/>
    <path style="fill: #7a7a5a" d="M 553.801 432.376 L 561.114,425.025 L 561.114,392.5 L 553.801,399.839 L 553.801,432.376z"/>
    <path style="fill: #7a7a5a" d="M 553.912 432.5 L 561.229,425.149 L 561.229,392.611 L 553.912,399.962 L 553.912,432.5z"/>
    <path style="fill: none; fill-opacity:0; stroke-width: 0.02; stroke: #494936" d="M 553.912 432.5 L 561.229,425.149 L 561.229,392.611 L 553.912,399.962 L 553.912,432.5"/>
    <path style="fill: none; fill-opacity:0; stroke-width: 2.24; stroke: #ecece7" d="M 553.801 403.516 L 533.758,403.516"/>
    <path style="fill: none; fill-opacity:0; stroke-width: 2.24; stroke: #494936" d="M 553.801 403.278 L 533.758,403.278"/>
    <path style="fill: none; fill-opacity:0; stroke-width: 3.06; stroke: #ecece7" d="M 553.324 403.759 L 553.328,403.755"/>
    <path style="fill: none; fill-opacity:0; stroke-width: 3.06; stroke: #494936" d="M 553.324 403.516 L 553.328,403.512"/>
    <path style="fill: #000000" d="M 544.31 408.618 L 552.331,408.618 L 552.331,411.46 L 544.31,411.46 L 544.31,408.618z"/>
    <path style="fill: none; fill-opacity:0; stroke-width: 0.02; stroke: #ecece7" d="M 544.31 408.618 L 552.327,408.618 L 552.327,411.456 L 544.31,411.456 L 544.31,408.618"/>
    <path style="fill: none; fill-opacity:0; stroke-width: 0.02; stroke: #494936" d="M 544.421 411.341 L 544.421,408.733 L 552.207,408.733"/>
  </g>
  <g>
    <path style="fill: #b7b79d" d="M 654.601 270.963 L 654.601,303.501 L 674.878,303.501 L 674.878,270.963 L 654.601,270.963z"/>
    <path style="fill: #b7b79d" d="M 654.711 271.086 L 654.711,303.624 L 674.988,303.624 L 674.988,271.086 L 654.711,271.086z"/>
    <path style="fill: none; fill-opacity:0; stroke-width: 0.02; stroke: #494936" d="M 654.711 271.086 L 654.711,303.624 L 674.988,303.624 L 674.988,271.086 L 654.711,271.086"/>
    <path style="fill: #000000" d="M 655.947 279.742 L 663.976,279.742 L 663.976,282.584 L 655.947,282.584 L 655.947,279.742z"/>
    <path style="fill: none; fill-opacity:0; stroke-width: 0.02; stroke: #ecece7" d="M 655.947 279.742 L 663.972,279.742 L 663.972,282.58 L 655.947,282.58 L 655.947,279.742"/>
    <path style="fill: none; fill-opacity:0; stroke-width: 0.02; stroke: #494936" d="M 656.067 282.465 L 656.067,279.857 L 663.853,279.857"/>
    <path style="fill: #c9c9b6" d="M 654.601 270.963 L 661.905,263.624 L 682.191,263.624 L 674.878,270.963 L 654.601,270.963z"/>
    <path style="fill: #c9c9b6" d="M 654.711 271.086 L 662.029,263.735 L 682.306,263.735 L 674.988,271.086 L 654.711,271.086z"/>
    <path style="fill: none; fill-opacity:0; stroke-width: 0.02; stroke: #494936" d="M 654.711 271.086 L 662.029,263.735 L 682.306,263.735 L 674.988,271.086 L 654.711,271.086"/>
    <path style="fill: #7a7a5a" d="M 674.878 303.501 L 682.191,296.149 L 682.191,263.624 L 674.878,270.963 L 674.878,303.501z"/>
    <path style="fill: #7a7a5a" d="M 674.988 303.624 L 682.306,296.273 L 682.306,263.735 L 674.988,271.086 L 674.988,303.624z"/>
    <path style="fill: none; fill-opacity:0; stroke-width: 0.02; stroke: #494936" d="M 674.988 303.624 L 682.306,296.273 L 682.306,263.735 L 674.988,271.086 L 674.988,303.624"/>
    <path style="fill: none; fill-opacity:0; stroke-width: 2.24; stroke: #ecece7" d="M 674.878 274.641 L 654.835,274.641"/>
    <path style="fill: none; fill-opacity:0; stroke-width: 2.24; stroke: #494936" d="M 674.878 274.402 L 654.835,274.402"/>
    <path style="fill: none; fill-opacity:0; stroke-width: 3.06; stroke: #ecece7" d="M 674.4 274.884 L 674.405,274.879"/>
    <path style="fill: none; fill-opacity:0; stroke-width: 3.06; stroke: #494936" d="M 674.4 274.641 L 674.405,274.636"/>
    <path style="fill: #000000" d="M 665.387 279.742 L 673.407,279.742 L 673.407,282.584 L 665.387,282.584 L 665.387,279.742z"/>
    <path style="fill: none; fill-opacity:0; stroke-width: 0.02; stroke: #ecece7" d="M 665.387 279.742 L 673.403,279.742 L 673.403,282.58 L 665.387,282.58 L 665.387,279.742"/>
    <path style="fill: none; fill-opacity:0; stroke-width: 0.02; stroke: #494936" d="M 665.498 282.465 L 665.498,279.857 L 673.284,279.857"/>
  </g>
  <g>
    <path style="fill: #b7b79d" d="M 654.801 459.063 L 654.801,491.6 L 675.078,491.6 L 675.078,459.063 L 654.801,459.063z"/>
    <path style="fill: #b7b79d" d="M 654.911 459.186 L 654.911,491.724 L 675.188,491.724 L 675.188,459.186 L 654.911,459.186z"/>
    <path style="fill: none; fill-opacity:0; stroke-width: 0.02; stroke: #494936" d="M 654.911 459.186 L 654.911,491.724 L 675.188,491.724 L 675.188,459.186 L 654.911,459.186"/>
    <path style="fill: #000000" d="M 656.147 467.842 L 664.176,467.842 L 664.176,470.684 L 656.147,470.684 L 656.147,467.842z"/>
    <path style="fill: none; fill-opacity:0; stroke-width: 0.02; stroke: #ecece7" d="M 656.147 467.842 L 664.172,467.842 L 664.172,470.68 L 656.147,470.68 L 656.147,467.842"/>
    <path style="fill: none; fill-opacity:0; stroke-width: 0.02; stroke: #494936" d="M 656.267 470.565 L 656.267,467.957 L 664.053,467.957"/>
    <path style="fill: #c9c9b6" d="M 654.801 459.063 L 662.105,451.724 L 682.391,451.724 L 675.078,459.063 L 654.801,459.063z"/>
    <path style="fill: #c9c9b6" d="M 654.911 459.186 L 662.229,451.835 L 682.506,451.835 L 675.188,459.186 L 654.911,459.186z"/>
    <path style="fill: none; fill-opacity:0; stroke-width: 0.02; stroke: #494936" d="M 654.911 459.186 L 662.229,451.835 L 682.506,451.835 L 675.188,459.186 L 654.911,459.186"/>
    <path style="fill: #7a7a5a" d="M 675.078 491.6 L 682.391,484.249 L 682.391,451.724 L 675.078,459.063 L 675.078,491.6z"/>
    <path style="fill: #7a7a5a" d="M 675.188 491.724 L 682.506,484.373 L 682.506,451.835 L 675.188,459.186 L 675.188,491.724z"/>
    <path style="fill: none; fill-opacity:0; stroke-width: 0.02; stroke: #494936" d="M 675.188 491.724 L 682.506,484.373 L 682.506,451.835 L 675.188,459.186 L 675.188,491.724"/>
    <path style="fill: none; fill-opacity:0; stroke-width: 2.24; stroke: #ecece7" d="M 675.078 462.74 L 655.035,462.74"/>
    <path style="fill: none; fill-opacity:0; stroke-width: 2.24; stroke: #494936" d="M 675.078 462.502 L 655.035,462.502"/>
    <path style="fill: none; fill-opacity:0; stroke-width: 3.06; stroke: #ecece7" d="M 674.6 462.983 L 674.605,462.979"/>
    <path style="fill: none; fill-opacity:0; stroke-width: 3.06; stroke: #494936" d="M 674.6 462.74 L 674.605,462.736"/>
    <path style="fill: #000000" d="M 665.587 467.842 L 673.607,467.842 L 673.607,470.684 L 665.587,470.684 L 665.587,467.842z"/>
    <path style="fill: none; fill-opacity:0; stroke-width: 0.02; stroke: #ecece7" d="M 665.587 467.842 L 673.603,467.842 L 673.603,470.68 L 665.587,470.68 L 665.587,467.842"/>
    <path style="fill: none; fill-opacity:0; stroke-width: 0.02; stroke: #494936" d="M 665.698 470.565 L 665.698,467.957 L 673.484,467.957"/>
  </g>
  <g>
    <path style="fill: #b7b79d" d="M 702.001 365.163 L 702.001,397.7 L 722.278,397.7 L 722.278,365.163 L 702.001,365.163z"/>
    <path style="fill: #b7b79d" d="M 702.111 365.286 L 702.111,397.824 L 722.388,397.824 L 722.388,365.286 L 702.111,365.286z"/>
    <path style="fill: none; fill-opacity:0; stroke-width: 0.02; stroke: #494936" d="M 702.111 365.286 L 702.111,397.824 L 722.388,397.824 L 722.388,365.286 L 702.111,365.286"/>
    <path style="fill: #000000" d="M 703.347 373.942 L 711.376,373.942 L 711.376,376.784 L 703.347,376.784 L 703.347,373.942z"/>
    <path style="fill: none; fill-opacity:0; stroke-width: 0.02; stroke: #ecece7" d="M 703.347 373.942 L 711.372,373.942 L 711.372,376.78 L 703.347,376.78 L 703.347,373.942"/>
    <path style="fill: none; fill-opacity:0; stroke-width: 0.02; stroke: #494936" d="M 703.467 376.665 L 703.467,374.057 L 711.253,374.057"/>
    <path style="fill: #c9c9b6" d="M 702.001 365.163 L 709.305,357.824 L 729.591,357.824 L 722.278,365.163 L 702.001,365.163z"/>
    <path style="fill: #c9c9b6" d="M 702.111 365.286 L 709.429,357.935 L 729.706,357.935 L 722.388,365.286 L 702.111,365.286z"/>
    <path style="fill: none; fill-opacity:0; stroke-width: 0.02; stroke: #494936" d="M 702.111 365.286 L 709.429,357.935 L 729.706,357.935 L 722.388,365.286 L 702.111,365.286"/>
    <path style="fill: #7a7a5a" d="M 722.278 397.7 L 729.591,390.349 L 729.591,357.824 L 722.278,365.163 L 722.278,397.7z"/>
    <path style="fill: #7a7a5a" d="M 722.388 397.824 L 729.706,390.473 L 729.706,357.935 L 722.388,365.286 L 722.388,397.824z"/>
    <path style="fill: none; fill-opacity:0; stroke-width: 0.02; stroke: #494936" d="M 722.388 397.824 L 729.706,390.473 L 729.706,357.935 L 722.388,365.286 L 722.388,397.824"/>
    <path style="fill: none; fill-opacity:0; stroke-width: 2.24; stroke: #ecece7" d="M 722.278 368.84 L 702.235,368.84"/>
    <path style="fill: none; fill-opacity:0; stroke-width: 2.24; stroke: #494936" d="M 722.278 368.602 L 702.235,368.602"/>
    <path style="fill: none; fill-opacity:0; stroke-width: 3.06; stroke: #ecece7" d="M 721.8 369.083 L 721.805,369.079"/>
    <path style="fill: none; fill-opacity:0; stroke-width: 3.06; stroke: #494936" d="M 721.8 368.84 L 721.805,368.836"/>
    <path style="fill: #000000" d="M 712.787 373.942 L 720.807,373.942 L 720.807,376.784 L 712.787,376.784 L 712.787,373.942z"/>
    <path style="fill: none; fill-opacity:0; stroke-width: 0.02; stroke: #ecece7" d="M 712.787 373.942 L 720.803,373.942 L 720.803,376.78 L 712.787,376.78 L 712.787,373.942"/>
    <path style="fill: none; fill-opacity:0; stroke-width: 0.02; stroke: #494936" d="M 712.898 376.665 L 712.898,374.057 L 720.684,374.057"/>
  </g>
  <g>
    <path style="fill: #b7b79d" d="M 829.201 280.263 L 829.201,312.801 L 849.478,312.801 L 849.478,280.263 L 829.201,280.263z"/>
    <path style="fill: #b7b79d" d="M 829.311 280.386 L 829.311,312.924 L 849.588,312.924 L 849.588,280.386 L 829.311,280.386z"/>
    <path style="fill: none; fill-opacity:0; stroke-width: 0.02; stroke: #494936" d="M 829.311 280.386 L 829.311,312.924 L 849.588,312.924 L 849.588,280.386 L 829.311,280.386"/>
    <path style="fill: #000000" d="M 830.547 289.042 L 838.576,289.042 L 838.576,291.884 L 830.547,291.884 L 830.547,289.042z"/>
    <path style="fill: none; fill-opacity:0; stroke-width: 0.02; stroke: #ecece7" d="M 830.547 289.042 L 838.572,289.042 L 838.572,291.88 L 830.547,291.88 L 830.547,289.042"/>
    <path style="fill: none; fill-opacity:0; stroke-width: 0.02; stroke: #494936" d="M 830.667 291.765 L 830.667,289.157 L 838.453,289.157"/>
    <path style="fill: #c9c9b6" d="M 829.201 280.263 L 836.505,272.924 L 856.791,272.924 L 849.478,280.263 L 829.201,280.263z"/>
    <path style="fill: #c9c9b6" d="M 829.311 280.386 L 836.629,273.035 L 856.906,273.035 L 849.588,280.386 L 829.311,280.386z"/>
    <path style="fill: none; fill-opacity:0; stroke-width: 0.02; stroke: #494936" d="M 829.311 280.386 L 836.629,273.035 L 856.906,273.035 L 849.588,280.386 L 829.311,280.386"/>
    <path style="fill: #7a7a5a" d="M 849.478 312.801 L 856.791,305.449 L 856.791,272.924 L 849.478,280.263 L 849.478,312.801z"/>
    <path style="fill: #7a7a5a" d="M 849.588 312.924 L 856.906,305.573 L 856.906,273.035 L 849.588,280.386 L 849.588,312.924z"/>
    <path style="fill: none; fill-opacity:0; stroke-width: 0.02; stroke: #494936" d="M 849.588 312.924 L 856.906,305.573 L 856.906,273.035 L 849.588,280.386 L 849.588,312.924"/>
    <path style="fill: none; fill-opacity:0; stroke-width: 2.24; stroke: #ecece7" d="M 849.478 283.941 L 829.435,283.941"/>
    <path style="fill: none; fill-opacity:0; stroke-width: 2.24; stroke: #494936" d="M 849.478 283.702 L 829.435,283.702"/>
    <path style="fill: none; fill-opacity:0; stroke-width: 3.06; stroke: #ecece7" d="M 849 284.184 L 849.005,284.179"/>
    <path style="fill: none; fill-opacity:0; stroke-width: 3.06; stroke: #494936" d="M 849 283.941 L 849.005,283.936"/>
    <path style="fill: #000000" d="M 839.987 289.042 L 848.007,289.042 L 848.007,291.884 L 839.987,291.884 L 839.987,289.042z"/>
    <path style="fill: none; fill-opacity:0; stroke-width: 0.02; stroke: #ecece7" d="M 839.987 289.042 L 848.003,289.042 L 848.003,291.88 L 839.987,291.88 L 839.987,289.042"/>
    <path style="fill: none; fill-opacity:0; stroke-width: 0.02; stroke: #494936" d="M 840.098 291.765 L 840.098,289.157 L 847.884,289.157"/>
  </g>
  <g>
    <path style="fill: #b7b79d" d="M 841.401 412.363 L 841.401,444.9 L 861.678,444.9 L 861.678,412.363 L 841.401,412.363z"/>
    <path style="fill: #b7b79d" d="M 841.511 412.486 L 841.511,445.024 L 861.788,445.024 L 861.788,412.486 L 841.511,412.486z"/>
    <path style="fill: none; fill-opacity:0; stroke-width: 0.02; stroke: #494936" d="M 841.511 412.486 L 841.511,445.024 L 861.788,445.024 L 861.788,412.486 L 841.511,412.486"/>
    <path style="fill: #000000" d="M 842.747 421.142 L 850.776,421.142 L 850.776,423.984 L 842.747,423.984 L 842.747,421.142z"/>
    <path style="fill: none; fill-opacity:0; stroke-width: 0.02; stroke: #ecece7" d="M 842.747 421.142 L 850.772,421.142 L 850.772,423.98 L 842.747,423.98 L 842.747,421.142"/>
    <path style="fill: none; fill-opacity:0; stroke-width: 0.02; stroke: #494936" d="M 842.867 423.865 L 842.867,421.257 L 850.653,421.257"/>
    <path style="fill: #c9c9b6" d="M 841.401 412.363 L 848.705,405.024 L 868.991,405.024 L 861.678,412.363 L 841.401,412.363z"/>
    <path style="fill: #c9c9b6" d="M 841.511 412.486 L 848.829,405.135 L 869.106,405.135 L 861.788,412.486 L 841.511,412.486z"/>
    <path style="fill: none; fill-opacity:0; stroke-width: 0.02; stroke: #494936" d="M 841.511 412.486 L 848.829,405.135 L 869.106,405.135 L 861.788,412.486 L 841.511,412.486"/>
    <path style="fill: #7a7a5a" d="M 861.678 444.9 L 868.991,437.549 L 868.991,405.024 L 861.678,412.363 L 861.678,444.9z"/>
    <path style="fill: #7a7a5a" d="M 861.788 445.024 L 869.106,437.673 L 869.106,405.135 L 861.788,412.486 L 861.788,445.024z"/>
    <path style="fill: none; fill-opacity:0; stroke-width: 0.02; stroke: #494936" d="M 861.788 445.024 L 869.106,437.673 L 869.106,405.135 L 861.788,412.486 L 861.788,445.024"/>
    <path style="fill: none; fill-opacity:0; stroke-width: 2.24; stroke: #ecece7" d="M 861.678 416.04 L 841.635,416.04"/>
    <path style="fill: none; fill-opacity:0; stroke-width: 2.24; stroke: #494936" d="M 861.678 415.802 L 841.635,415.802"/>
    <path style="fill: none; fill-opacity:0; stroke-width: 3.06; stroke: #ecece7" d="M 861.2 416.283 L 861.205,416.279"/>
    <path style="fill: none; fill-opacity:0; stroke-width: 3.06; stroke: #494936" d="M 861.2 416.04 L 861.205,416.036"/>
    <path style="fill: #000000" d="M 852.187 421.142 L 860.207,421.142 L 860.207,423.984 L 852.187,423.984 L 852.187,421.142z"/>
    <path style="fill: none; fill-opacity:0; stroke-width: 0.02; stroke: #ecece7" d="M 852.187 421.142 L 860.203,421.142 L 860.203,423.98 L 852.187,423.98 L 852.187,421.142"/>
    <path style="fill: none; fill-opacity:0; stroke-width: 0.02; stroke: #494936" d="M 852.298 423.865 L 852.298,421.257 L 860.084,421.257"/>
  </g>
  <line style="fill: none; fill-opacity:0; stroke-width: 2; stroke: #000000" x1="561.243" y1="394.965" x2="654.578" y2="295.618"/>
  <line style="fill: none; fill-opacity:0; stroke-width: 2; stroke: #000000" x1="682.309" y1="284.169" x2="829.18" y2="291.992"/>
  <line style="fill: none; fill-opacity:0; stroke-width: 2; stroke: #000000" x1="675.887" y1="302.672" x2="705.558" y2="361.639"/>
  <line style="fill: none; fill-opacity:0; stroke-width: 2; stroke: #000000" x1="729.717" y1="382.984" x2="841.44" y2="420.813"/>
  <line style="fill: none; fill-opacity:0; stroke-width: 2; stroke: #000000" x1="561.24" y1="420.082" x2="654.781" y2="465.762"/>
  <line style="fill: none; fill-opacity:0; stroke-width: 2; stroke: #000000" x1="682.521" y1="467.359" x2="841.417" y2="427.592"/>
  <line style="fill: none; fill-opacity:0; stroke-width: 2; stroke: #000000" x1="851.125" y1="405.019" x2="842.621" y2="312.942"/>
  <line style="fill: none; fill-opacity:0; stroke-width: 2; stroke: #000000" x1="561.242" y1="408.855" x2="701.975" y2="379.889"/>
  <line style="fill: none; fill-opacity:0; stroke-width: 2; stroke: #000000" x1="551.031" y1="392.5" x2="519.025" y2="315.546"/>
</svg>
