<?xml version="1.0" encoding="UTF-8" standalone="no"?>
<!DOCTYPE svg PUBLIC "-//W3C//DTD SVG 1.0//EN" "http://www.w3.org/TR/2001/PR-SVG-20010719/DTD/svg10.dtd">
<svg width="15cm" height="4cm" viewBox="151 118 283 68" xmlns="http://www.w3.org/2000/svg" xmlns:xlink="http://www.w3.org/1999/xlink">
  <line style="fill: none; fill-opacity:0; stroke-width: 2; stroke: #000000" x1="223.101" y1="158.472" x2="369.554" y2="158.241"/>
  <g>
    <path style="fill: #b7b79d" d="M 151.844 163.744 L 216.272,163.744 L 216.272,175.651 L 151.844,175.651 L 151.844,163.744z"/>
    <path style="fill: none; fill-opacity:0; stroke-width: 0.02; stroke: #494936" d="M 151.844 163.744 L 216.272,163.744 L 216.272,175.651 L 151.844,175.651 L 151.844,163.744"/>
    <path style="fill: #c9c9b6" d="M 151.844 163.744 L 158.676,157.268 L 223.103,157.268 L 216.272,163.744 L 151.844,163.744z"/>
    <path style="fill: none; fill-opacity:0; stroke-width: 0.02; stroke: #494936" d="M 151.844 163.744 L 158.676,157.268 L 223.103,157.268 L 216.272,163.744 L 151.844,163.744"/>
    <path style="fill: none; fill-opacity:0; stroke-width: 2.12; stroke: #000000" d="M 212.668 169.165 L 197.208,169.165"/>
    <path style="fill: #7a7a5a" d="M 216.272 175.651 L 223.103,168.799 L 223.103,157.268 L 216.272,163.744 L 216.272,175.651z"/>
    <path style="fill: none; fill-opacity:0; stroke-width: 0.02; stroke: #494936" d="M 216.272 175.651 L 223.103,168.799 L 223.103,157.268 L 216.272,163.744 L 216.272,175.651"/>
    <path style="fill: #c9c9b6" d="M 152.21 183.203 L 159.396,174.199 L 209.075,174.199 L 201.888,183.203 L 152.21,183.203z"/>
    <path style="fill: none; fill-opacity:0; stroke-width: 0.02; stroke: #494936" d="M 152.21 183.203 L 159.396,174.199 L 209.075,174.199 L 201.888,183.203 L 152.21,183.203"/>
    <path style="fill: #7a7a5a" d="M 201.888 185 L 209.075,177.448 L 209.075,174.199 L 201.888,183.203 L 201.888,185z"/>
    <path style="fill: none; fill-opacity:0; stroke-width: 0.02; stroke: #494936" d="M 201.888 185 L 209.075,177.448 L 209.075,174.199 L 201.888,183.203 L 201.888,185"/>
    <path style="fill: #b7b79d" d="M 152.21 183.203 L 201.888,183.203 L 201.888,185 L 152.21,185 L 152.21,183.203z"/>
    <path style="fill: none; fill-opacity:0; stroke-width: 0.02; stroke: #494936" d="M 152.21 183.203 L 201.888,183.203 L 201.888,185 L 152.21,185 L 152.21,183.203"/>
    <path style="fill: #000000" d="M 161.559 162.313 L 166.969,157.268 L 212.668,157.268 L 207.644,162.313 L 161.559,162.313z"/>
    <path style="fill: none; fill-opacity:0; stroke-width: 0.02; stroke: #000000" d="M 161.559 162.313 L 166.969,157.268 L 212.668,157.268 L 207.644,162.313 L 161.559,162.313"/>
    <path style="fill: #c9c9b6" d="M 161.193 125.201 L 166.248,120.522 L 211.968,120.522 L 206.913,125.201 L 161.193,125.201z"/>
    <path style="fill: none; fill-opacity:0; stroke-width: 0.02; stroke: #494936" d="M 161.193 125.201 L 166.248,120.522 L 211.968,120.522 L 206.913,125.201 L 161.193,125.201"/>
    <path style="fill: #b7b79d" d="M 161.193 125.201 L 207.278,125.201 L 207.278,161.582 L 161.193,161.582 L 161.193,125.201z"/>
    <path style="fill: none; fill-opacity:0; stroke-width: 0.02; stroke: #494936" d="M 161.193 125.201 L 207.258,125.201 L 207.258,161.572 L 161.193,161.572 L 161.193,125.201"/>
    <path style="fill: #ffffff" d="M 165.152 129.871 L 203.309,129.871 L 203.309,157.978 L 165.152,157.978 L 165.152,129.871z"/>
    <path style="fill: none; fill-opacity:0; stroke-width: 0.02; stroke: #494936" d="M 165.152 129.871 L 203.309,129.871 L 203.309,157.968 L 165.152,157.968 L 165.152,129.871"/>
    <path style="fill: #7a7a5a" d="M 206.913 161.237 L 211.968,156.192 L 211.968,120.522 L 206.913,125.201 L 206.913,161.237z"/>
    <path style="fill: none; fill-opacity:0; stroke-width: 0.02; stroke: #494936" d="M 206.913 161.237 L 211.968,156.192 L 211.968,120.522 L 206.913,125.201 L 206.913,161.237"/>
  </g>
  <g>
    <path style="fill: #b7b79d" d="M 364.226 163.304 L 427.329,163.304 L 427.329,174.966 L 364.226,174.966 L 364.226,163.304z"/>
    <path style="fill: none; fill-opacity:0; stroke-width: 0.02; stroke: #494936" d="M 364.226 163.304 L 427.329,163.304 L 427.329,174.966 L 364.226,174.966 L 364.226,163.304"/>
    <path style="fill: #c9c9b6" d="M 364.226 163.304 L 370.917,156.961 L 434.02,156.961 L 427.329,163.304 L 364.226,163.304z"/>
    <path style="fill: none; fill-opacity:0; stroke-width: 0.02; stroke: #494936" d="M 364.226 163.304 L 370.917,156.961 L 434.02,156.961 L 427.329,163.304 L 364.226,163.304"/>
    <path style="fill: none; fill-opacity:0; stroke-width: 2.12; stroke: #000000" d="M 423.8 168.613 L 408.658,168.613"/>
    <path style="fill: #7a7a5a" d="M 427.329 174.966 L 434.02,168.255 L 434.02,156.961 L 427.329,163.304 L 427.329,174.966z"/>
    <path style="fill: none; fill-opacity:0; stroke-width: 0.02; stroke: #494936" d="M 427.329 174.966 L 434.02,168.255 L 434.02,156.961 L 427.329,163.304 L 427.329,174.966"/>
    <path style="fill: #c9c9b6" d="M 364.584 182.363 L 371.623,173.544 L 420.28,173.544 L 413.241,182.363 L 364.584,182.363z"/>
    <path style="fill: none; fill-opacity:0; stroke-width: 0.02; stroke: #494936" d="M 364.584 182.363 L 371.623,173.544 L 420.28,173.544 L 413.241,182.363 L 364.584,182.363"/>
    <path style="fill: #7a7a5a" d="M 413.241 184.123 L 420.28,176.726 L 420.28,173.544 L 413.241,182.363 L 413.241,184.123z"/>
    <path style="fill: none; fill-opacity:0; stroke-width: 0.02; stroke: #494936" d="M 413.241 184.123 L 420.28,176.726 L 420.28,173.544 L 413.241,182.363 L 413.241,184.123"/>
    <path style="fill: #b7b79d" d="M 364.584 182.363 L 413.241,182.363 L 413.241,184.123 L 364.584,184.123 L 364.584,182.363z"/>
    <path style="fill: none; fill-opacity:0; stroke-width: 0.02; stroke: #494936" d="M 364.584 182.363 L 413.241,182.363 L 413.241,184.123 L 364.584,184.123 L 364.584,182.363"/>
    <path style="fill: #000000" d="M 373.741 161.902 L 379.04,156.961 L 423.8,156.961 L 418.878,161.902 L 373.741,161.902z"/>
    <path style="fill: none; fill-opacity:0; stroke-width: 0.02; stroke: #000000" d="M 373.741 161.902 L 379.04,156.961 L 423.8,156.961 L 418.878,161.902 L 373.741,161.902"/>
    <path style="fill: #c9c9b6" d="M 373.383 125.553 L 378.334,120.97 L 423.114,120.97 L 418.162,125.553 L 373.383,125.553z"/>
    <path style="fill: none; fill-opacity:0; stroke-width: 0.02; stroke: #494936" d="M 373.383 125.553 L 378.334,120.97 L 423.114,120.97 L 418.162,125.553 L 373.383,125.553"/>
    <path style="fill: #b7b79d" d="M 373.383 125.553 L 418.52,125.553 L 418.52,161.186 L 373.383,161.186 L 373.383,125.553z"/>
    <path style="fill: none; fill-opacity:0; stroke-width: 0.02; stroke: #494936" d="M 373.383 125.553 L 418.5,125.553 L 418.5,161.176 L 373.383,161.176 L 373.383,125.553"/>
    <path style="fill: #ffffff" d="M 377.26 130.127 L 414.633,130.127 L 414.633,157.657 L 377.26,157.657 L 377.26,130.127z"/>
    <path style="fill: none; fill-opacity:0; stroke-width: 0.02; stroke: #494936" d="M 377.26 130.127 L 414.633,130.127 L 414.633,157.647 L 377.26,157.647 L 377.26,130.127"/>
    <path style="fill: #7a7a5a" d="M 418.162 160.848 L 423.114,155.907 L 423.114,120.97 L 418.162,125.553 L 418.162,160.848z"/>
    <path style="fill: none; fill-opacity:0; stroke-width: 0.02; stroke: #494936" d="M 418.162 160.848 L 423.114,155.907 L 423.114,120.97 L 418.162,125.553 L 418.162,160.848"/>
  </g>
  <g>
    <polygon style="fill: #ffffff" points="274,119 326.2,119 338.2,131 338.2,153 274,153 "/>
    <polygon style="fill: none; fill-opacity:0; stroke-width: 2; stroke: #000000" points="274,119 326.2,119 338.2,131 338.2,153 274,153 "/>
    <polyline style="fill: none; fill-opacity:0; stroke-width: 1; stroke: #000000" points="326.2,119 326.2,131 338.2,131 "/>
    <text font-size="12.7998" style="fill: #000000;text-anchor:start;font-family:monospace;font-style:normal;font-weight:normal" x="281" y="143.9">
      <tspan x="281" y="143.9">packet</tspan>
    </text>
  </g>
</svg>
