<?xml version="1.0" encoding="UTF-8" standalone="no"?>
<!DOCTYPE svg PUBLIC "-//W3C//DTD SVG 1.0//EN" "http://www.w3.org/TR/2001/PR-SVG-20010719/DTD/svg10.dtd">
<svg width="28cm" height="14cm" viewBox="131 123 549 262" xmlns="http://www.w3.org/2000/svg" xmlns:xlink="http://www.w3.org/1999/xlink">
  <line style="fill: none; fill-opacity:0; stroke-width: 2; stroke: #000000" x1="198.654" y1="327.106" x2="200.844" y2="303.005"/>
  <g>
    <path style="fill: #b7b79d" d="M 173.897 353.814 L 213.865,353.814 L 213.865,361.2 L 173.897,361.2 L 173.897,353.814z"/>
    <path style="fill: none; fill-opacity:0; stroke-width: 0.02; stroke: #494936" d="M 173.897 353.814 L 213.865,353.814 L 213.865,361.2 L 173.897,361.2 L 173.897,353.814"/>
    <path style="fill: #c9c9b6" d="M 173.897 353.814 L 178.135,349.796 L 218.103,349.796 L 213.865,353.814 L 173.897,353.814z"/>
    <path style="fill: none; fill-opacity:0; stroke-width: 0.02; stroke: #494936" d="M 173.897 353.814 L 178.135,349.796 L 218.103,349.796 L 213.865,353.814 L 173.897,353.814"/>
    <path style="fill: none; fill-opacity:0; stroke-width: 2.12; stroke: #000000" d="M 211.63 357.176 L 202.039,357.176"/>
    <path style="fill: #7a7a5a" d="M 213.865 361.2 L 218.103,356.95 L 218.103,349.796 L 213.865,353.814 L 213.865,361.2z"/>
    <path style="fill: none; fill-opacity:0; stroke-width: 0.02; stroke: #494936" d="M 213.865 361.2 L 218.103,356.95 L 218.103,349.796 L 213.865,353.814 L 213.865,361.2"/>
    <path style="fill: #c9c9b6" d="M 174.124 365.885 L 178.582,360.3 L 209.401,360.3 L 204.942,365.885 L 174.124,365.885z"/>
    <path style="fill: none; fill-opacity:0; stroke-width: 0.02; stroke: #494936" d="M 174.124 365.885 L 178.582,360.3 L 209.401,360.3 L 204.942,365.885 L 174.124,365.885"/>
    <path style="fill: #7a7a5a" d="M 204.942 367 L 209.401,362.315 L 209.401,360.3 L 204.942,365.885 L 204.942,367z"/>
    <path style="fill: none; fill-opacity:0; stroke-width: 0.02; stroke: #494936" d="M 204.942 367 L 209.401,362.315 L 209.401,360.3 L 204.942,365.885 L 204.942,367"/>
    <path style="fill: #b7b79d" d="M 174.124 365.885 L 204.942,365.885 L 204.942,367 L 174.124,367 L 174.124,365.885z"/>
    <path style="fill: none; fill-opacity:0; stroke-width: 0.02; stroke: #494936" d="M 174.124 365.885 L 204.942,365.885 L 204.942,367 L 174.124,367 L 174.124,365.885"/>
    <path style="fill: #000000" d="M 179.923 352.926 L 183.28,349.796 L 211.63,349.796 L 208.513,352.926 L 179.923,352.926z"/>
    <path style="fill: none; fill-opacity:0; stroke-width: 0.02; stroke: #000000" d="M 179.923 352.926 L 183.28,349.796 L 211.63,349.796 L 208.513,352.926 L 179.923,352.926"/>
    <path style="fill: #c9c9b6" d="M 179.697 329.903 L 182.833,327 L 211.195,327 L 208.059,329.903 L 179.697,329.903z"/>
    <path style="fill: none; fill-opacity:0; stroke-width: 0.02; stroke: #494936" d="M 179.697 329.903 L 182.833,327 L 211.195,327 L 208.059,329.903 L 179.697,329.903"/>
    <path style="fill: #b7b79d" d="M 179.697 329.903 L 208.286,329.903 L 208.286,352.472 L 179.697,352.472 L 179.697,329.903z"/>
    <path style="fill: none; fill-opacity:0; stroke-width: 0.02; stroke: #494936" d="M 179.697 329.903 L 208.273,329.903 L 208.273,352.466 L 179.697,352.466 L 179.697,329.903"/>
    <path style="fill: #ffffff" d="M 182.152 332.8 L 205.824,332.8 L 205.824,350.237 L 182.152,350.237 L 182.152,332.8z"/>
    <path style="fill: none; fill-opacity:0; stroke-width: 0.02; stroke: #494936" d="M 182.152 332.8 L 205.824,332.8 L 205.824,350.23 L 182.152,350.23 L 182.152,332.8"/>
    <path style="fill: #7a7a5a" d="M 208.059 352.258 L 211.195,349.128 L 211.195,327 L 208.059,329.903 L 208.059,352.258z"/>
    <path style="fill: none; fill-opacity:0; stroke-width: 0.02; stroke: #494936" d="M 208.059 352.258 L 211.195,349.128 L 211.195,327 L 208.059,329.903 L 208.059,352.258"/>
  </g>
  <g>
    <path style="fill: #b7b79d" d="M 191.147 270.339 L 191.147,302.876 L 211.424,302.876 L 211.424,270.339 L 191.147,270.339z"/>
    <path style="fill: #b7b79d" d="M 191.258 270.462 L 191.258,303 L 211.535,303 L 211.535,270.462 L 191.258,270.462z"/>
    <path style="fill: none; fill-opacity:0; stroke-width: 0.02; stroke: #494936" d="M 191.258 270.462 L 191.258,303 L 211.535,303 L 211.535,270.462 L 191.258,270.462"/>
    <path style="fill: #000000" d="M 192.494 279.118 L 200.523,279.118 L 200.523,281.96 L 192.494,281.96 L 192.494,279.118z"/>
    <path style="fill: none; fill-opacity:0; stroke-width: 0.02; stroke: #ecece7" d="M 192.494 279.118 L 200.519,279.118 L 200.519,281.956 L 192.494,281.956 L 192.494,279.118"/>
    <path style="fill: none; fill-opacity:0; stroke-width: 0.02; stroke: #494936" d="M 192.613 281.841 L 192.613,279.233 L 200.399,279.233"/>
    <path style="fill: #c9c9b6" d="M 191.147 270.339 L 198.452,263 L 218.737,263 L 211.424,270.339 L 191.147,270.339z"/>
    <path style="fill: #c9c9b6" d="M 191.258 270.462 L 198.575,263.111 L 218.852,263.111 L 211.535,270.462 L 191.258,270.462z"/>
    <path style="fill: none; fill-opacity:0; stroke-width: 0.02; stroke: #494936" d="M 191.258 270.462 L 198.575,263.111 L 218.852,263.111 L 211.535,270.462 L 191.258,270.462"/>
    <path style="fill: #7a7a5a" d="M 211.424 302.876 L 218.737,295.525 L 218.737,263 L 211.424,270.339 L 211.424,302.876z"/>
    <path style="fill: #7a7a5a" d="M 211.535 303 L 218.852,295.649 L 218.852,263.111 L 211.535,270.462 L 211.535,303z"/>
    <path style="fill: none; fill-opacity:0; stroke-width: 0.02; stroke: #494936" d="M 211.535 303 L 218.852,295.649 L 218.852,263.111 L 211.535,270.462 L 211.535,303"/>
    <path style="fill: none; fill-opacity:0; stroke-width: 2.24; stroke: #ecece7" d="M 211.424 274.016 L 191.382,274.016"/>
    <path style="fill: none; fill-opacity:0; stroke-width: 2.24; stroke: #494936" d="M 211.424 273.778 L 191.382,273.778"/>
    <path style="fill: none; fill-opacity:0; stroke-width: 3.06; stroke: #ecece7" d="M 210.947 274.259 L 210.951,274.255"/>
    <path style="fill: none; fill-opacity:0; stroke-width: 3.06; stroke: #494936" d="M 210.947 274.016 L 210.951,274.012"/>
    <path style="fill: #000000" d="M 201.934 279.118 L 209.954,279.118 L 209.954,281.96 L 201.934,281.96 L 201.934,279.118z"/>
    <path style="fill: none; fill-opacity:0; stroke-width: 0.02; stroke: #ecece7" d="M 201.934 279.118 L 209.95,279.118 L 209.95,281.956 L 201.934,281.956 L 201.934,279.118"/>
    <path style="fill: none; fill-opacity:0; stroke-width: 0.02; stroke: #494936" d="M 202.044 281.841 L 202.044,279.233 L 209.831,279.233"/>
  </g>
  <g>
    <path style="fill: #b7b79d" d="M 327.224 130.463 L 327.224,163.001 L 347.501,163.001 L 347.501,130.463 L 327.224,130.463z"/>
    <path style="fill: #b7b79d" d="M 327.335 130.586 L 327.335,163.124 L 347.612,163.124 L 347.612,130.586 L 327.335,130.586z"/>
    <path style="fill: none; fill-opacity:0; stroke-width: 0.02; stroke: #494936" d="M 327.335 130.586 L 327.335,163.124 L 347.612,163.124 L 347.612,130.586 L 327.335,130.586"/>
    <path style="fill: #000000" d="M 328.571 139.242 L 336.6,139.242 L 336.6,142.084 L 328.571,142.084 L 328.571,139.242z"/>
    <path style="fill: none; fill-opacity:0; stroke-width: 0.02; stroke: #ecece7" d="M 328.571 139.242 L 336.595,139.242 L 336.595,142.08 L 328.571,142.08 L 328.571,139.242"/>
    <path style="fill: none; fill-opacity:0; stroke-width: 0.02; stroke: #494936" d="M 328.69 141.965 L 328.69,139.357 L 336.476,139.357"/>
    <path style="fill: #c9c9b6" d="M 327.224 130.463 L 334.528,123.124 L 354.814,123.124 L 347.501,130.463 L 327.224,130.463z"/>
    <path style="fill: #c9c9b6" d="M 327.335 130.586 L 334.652,123.235 L 354.929,123.235 L 347.612,130.586 L 327.335,130.586z"/>
    <path style="fill: none; fill-opacity:0; stroke-width: 0.02; stroke: #494936" d="M 327.335 130.586 L 334.652,123.235 L 354.929,123.235 L 347.612,130.586 L 327.335,130.586"/>
    <path style="fill: #7a7a5a" d="M 347.501 163.001 L 354.814,155.649 L 354.814,123.124 L 347.501,130.463 L 347.501,163.001z"/>
    <path style="fill: #7a7a5a" d="M 347.612 163.124 L 354.929,155.773 L 354.929,123.235 L 347.612,130.586 L 347.612,163.124z"/>
    <path style="fill: none; fill-opacity:0; stroke-width: 0.02; stroke: #494936" d="M 347.612 163.124 L 354.929,155.773 L 354.929,123.235 L 347.612,130.586 L 347.612,163.124"/>
    <path style="fill: none; fill-opacity:0; stroke-width: 2.24; stroke: #ecece7" d="M 347.501 134.141 L 327.458,134.141"/>
    <path style="fill: none; fill-opacity:0; stroke-width: 2.24; stroke: #494936" d="M 347.501 133.902 L 327.458,133.902"/>
    <path style="fill: none; fill-opacity:0; stroke-width: 3.06; stroke: #ecece7" d="M 347.024 134.384 L 347.028,134.379"/>
    <path style="fill: none; fill-opacity:0; stroke-width: 3.06; stroke: #494936" d="M 347.024 134.141 L 347.028,134.136"/>
    <path style="fill: #000000" d="M 338.01 139.242 L 346.031,139.242 L 346.031,142.084 L 338.01,142.084 L 338.01,139.242z"/>
    <path style="fill: none; fill-opacity:0; stroke-width: 0.02; stroke: #ecece7" d="M 338.01 139.242 L 346.026,139.242 L 346.026,142.08 L 338.01,142.08 L 338.01,139.242"/>
    <path style="fill: none; fill-opacity:0; stroke-width: 0.02; stroke: #494936" d="M 338.121 141.965 L 338.121,139.357 L 345.907,139.357"/>
  </g>
  <g>
    <path style="fill: #b7b79d" d="M 312.424 329.563 L 312.424,362.1 L 332.701,362.1 L 332.701,329.563 L 312.424,329.563z"/>
    <path style="fill: #b7b79d" d="M 312.535 329.686 L 312.535,362.224 L 332.812,362.224 L 332.812,329.686 L 312.535,329.686z"/>
    <path style="fill: none; fill-opacity:0; stroke-width: 0.02; stroke: #494936" d="M 312.535 329.686 L 312.535,362.224 L 332.812,362.224 L 332.812,329.686 L 312.535,329.686"/>
    <path style="fill: #000000" d="M 313.771 338.342 L 321.8,338.342 L 321.8,341.184 L 313.771,341.184 L 313.771,338.342z"/>
    <path style="fill: none; fill-opacity:0; stroke-width: 0.02; stroke: #ecece7" d="M 313.771 338.342 L 321.795,338.342 L 321.795,341.18 L 313.771,341.18 L 313.771,338.342"/>
    <path style="fill: none; fill-opacity:0; stroke-width: 0.02; stroke: #494936" d="M 313.89 341.065 L 313.89,338.457 L 321.676,338.457"/>
    <path style="fill: #c9c9b6" d="M 312.424 329.563 L 319.728,322.224 L 340.014,322.224 L 332.701,329.563 L 312.424,329.563z"/>
    <path style="fill: #c9c9b6" d="M 312.535 329.686 L 319.852,322.335 L 340.129,322.335 L 332.812,329.686 L 312.535,329.686z"/>
    <path style="fill: none; fill-opacity:0; stroke-width: 0.02; stroke: #494936" d="M 312.535 329.686 L 319.852,322.335 L 340.129,322.335 L 332.812,329.686 L 312.535,329.686"/>
    <path style="fill: #7a7a5a" d="M 332.701 362.1 L 340.014,354.749 L 340.014,322.224 L 332.701,329.563 L 332.701,362.1z"/>
    <path style="fill: #7a7a5a" d="M 332.812 362.224 L 340.129,354.873 L 340.129,322.335 L 332.812,329.686 L 332.812,362.224z"/>
    <path style="fill: none; fill-opacity:0; stroke-width: 0.02; stroke: #494936" d="M 332.812 362.224 L 340.129,354.873 L 340.129,322.335 L 332.812,329.686 L 332.812,362.224"/>
    <path style="fill: none; fill-opacity:0; stroke-width: 2.24; stroke: #ecece7" d="M 332.701 333.24 L 312.658,333.24"/>
    <path style="fill: none; fill-opacity:0; stroke-width: 2.24; stroke: #494936" d="M 332.701 333.002 L 312.658,333.002"/>
    <path style="fill: none; fill-opacity:0; stroke-width: 3.06; stroke: #ecece7" d="M 332.224 333.483 L 332.228,333.479"/>
    <path style="fill: none; fill-opacity:0; stroke-width: 3.06; stroke: #494936" d="M 332.224 333.24 L 332.228,333.236"/>
    <path style="fill: #000000" d="M 323.21 338.342 L 331.231,338.342 L 331.231,341.184 L 323.21,341.184 L 323.21,338.342z"/>
    <path style="fill: none; fill-opacity:0; stroke-width: 0.02; stroke: #ecece7" d="M 323.21 338.342 L 331.226,338.342 L 331.226,341.18 L 323.21,341.18 L 323.21,338.342"/>
    <path style="fill: none; fill-opacity:0; stroke-width: 0.02; stroke: #494936" d="M 323.321 341.065 L 323.321,338.457 L 331.107,338.457"/>
  </g>
  <g>
    <path style="fill: #b7b79d" d="M 394.914 206.696 L 394.914,241.193 L 416.412,241.193 L 416.412,206.696 L 394.914,206.696z"/>
    <path style="fill: #b7b79d" d="M 395.032 206.827 L 395.032,241.324 L 416.53,241.324 L 416.53,206.827 L 395.032,206.827z"/>
    <path style="fill: none; fill-opacity:0; stroke-width: 0.02; stroke: #494936" d="M 395.032 206.827 L 395.032,241.324 L 416.53,241.324 L 416.53,206.827 L 395.032,206.827"/>
    <path style="fill: #000000" d="M 396.342 216.004 L 404.855,216.004 L 404.855,219.017 L 396.342,219.017 L 396.342,216.004z"/>
    <path style="fill: none; fill-opacity:0; stroke-width: 0.02; stroke: #ecece7" d="M 396.342 216.004 L 404.85,216.004 L 404.85,219.013 L 396.342,219.013 L 396.342,216.004"/>
    <path style="fill: none; fill-opacity:0; stroke-width: 0.02; stroke: #494936" d="M 396.469 218.891 L 396.469,216.126 L 404.724,216.126"/>
    <path style="fill: #c9c9b6" d="M 394.914 206.696 L 402.659,198.915 L 424.166,198.915 L 416.412,206.696 L 394.914,206.696z"/>
    <path style="fill: #c9c9b6" d="M 395.032 206.827 L 402.79,199.033 L 424.288,199.033 L 416.53,206.827 L 395.032,206.827z"/>
    <path style="fill: none; fill-opacity:0; stroke-width: 0.02; stroke: #494936" d="M 395.032 206.827 L 402.79,199.033 L 424.288,199.033 L 416.53,206.827 L 395.032,206.827"/>
    <path style="fill: #7a7a5a" d="M 416.412 241.193 L 424.166,233.399 L 424.166,198.915 L 416.412,206.696 L 416.412,241.193z"/>
    <path style="fill: #7a7a5a" d="M 416.53 241.324 L 424.288,233.53 L 424.288,199.033 L 416.53,206.827 L 416.53,241.324z"/>
    <path style="fill: none; fill-opacity:0; stroke-width: 0.02; stroke: #494936" d="M 416.53 241.324 L 424.288,233.53 L 424.288,199.033 L 416.53,206.827 L 416.53,241.324"/>
    <path style="fill: none; fill-opacity:0; stroke-width: 2.24; stroke: #ecece7" d="M 416.412 210.595 L 395.163,210.595"/>
    <path style="fill: none; fill-opacity:0; stroke-width: 2.24; stroke: #494936" d="M 416.412 210.342 L 395.163,210.342"/>
    <path style="fill: none; fill-opacity:0; stroke-width: 3.06; stroke: #ecece7" d="M 415.906 210.853 L 415.911,210.848"/>
    <path style="fill: none; fill-opacity:0; stroke-width: 3.06; stroke: #494936" d="M 415.906 210.595 L 415.911,210.591"/>
    <path style="fill: #000000" d="M 406.35 216.004 L 414.854,216.004 L 414.854,219.017 L 406.35,219.017 L 406.35,216.004z"/>
    <path style="fill: none; fill-opacity:0; stroke-width: 0.02; stroke: #ecece7" d="M 406.35 216.004 L 414.849,216.004 L 414.849,219.013 L 406.35,219.013 L 406.35,216.004"/>
    <path style="fill: none; fill-opacity:0; stroke-width: 0.02; stroke: #494936" d="M 406.468 218.891 L 406.468,216.126 L 414.723,216.126"/>
  </g>
  <g>
    <path style="fill: #b7b79d" d="M 486.824 150.763 L 486.824,183.301 L 507.101,183.301 L 507.101,150.763 L 486.824,150.763z"/>
    <path style="fill: #b7b79d" d="M 486.935 150.886 L 486.935,183.424 L 507.212,183.424 L 507.212,150.886 L 486.935,150.886z"/>
    <path style="fill: none; fill-opacity:0; stroke-width: 0.02; stroke: #494936" d="M 486.935 150.886 L 486.935,183.424 L 507.212,183.424 L 507.212,150.886 L 486.935,150.886"/>
    <path style="fill: #000000" d="M 488.171 159.542 L 496.2,159.542 L 496.2,162.384 L 488.171,162.384 L 488.171,159.542z"/>
    <path style="fill: none; fill-opacity:0; stroke-width: 0.02; stroke: #ecece7" d="M 488.171 159.542 L 496.195,159.542 L 496.195,162.38 L 488.171,162.38 L 488.171,159.542"/>
    <path style="fill: none; fill-opacity:0; stroke-width: 0.02; stroke: #494936" d="M 488.29 162.265 L 488.29,159.657 L 496.076,159.657"/>
    <path style="fill: #c9c9b6" d="M 486.824 150.763 L 494.128,143.424 L 514.414,143.424 L 507.101,150.763 L 486.824,150.763z"/>
    <path style="fill: #c9c9b6" d="M 486.935 150.886 L 494.252,143.535 L 514.529,143.535 L 507.212,150.886 L 486.935,150.886z"/>
    <path style="fill: none; fill-opacity:0; stroke-width: 0.02; stroke: #494936" d="M 486.935 150.886 L 494.252,143.535 L 514.529,143.535 L 507.212,150.886 L 486.935,150.886"/>
    <path style="fill: #7a7a5a" d="M 507.101 183.301 L 514.414,175.949 L 514.414,143.424 L 507.101,150.763 L 507.101,183.301z"/>
    <path style="fill: #7a7a5a" d="M 507.212 183.424 L 514.529,176.073 L 514.529,143.535 L 507.212,150.886 L 507.212,183.424z"/>
    <path style="fill: none; fill-opacity:0; stroke-width: 0.02; stroke: #494936" d="M 507.212 183.424 L 514.529,176.073 L 514.529,143.535 L 507.212,150.886 L 507.212,183.424"/>
    <path style="fill: none; fill-opacity:0; stroke-width: 2.24; stroke: #ecece7" d="M 507.101 154.441 L 487.058,154.441"/>
    <path style="fill: none; fill-opacity:0; stroke-width: 2.24; stroke: #494936" d="M 507.101 154.202 L 487.058,154.202"/>
    <path style="fill: none; fill-opacity:0; stroke-width: 3.06; stroke: #ecece7" d="M 506.624 154.684 L 506.628,154.679"/>
    <path style="fill: none; fill-opacity:0; stroke-width: 3.06; stroke: #494936" d="M 506.624 154.441 L 506.628,154.436"/>
    <path style="fill: #000000" d="M 497.61 159.542 L 505.631,159.542 L 505.631,162.384 L 497.61,162.384 L 497.61,159.542z"/>
    <path style="fill: none; fill-opacity:0; stroke-width: 0.02; stroke: #ecece7" d="M 497.61 159.542 L 505.626,159.542 L 505.626,162.38 L 497.61,162.38 L 497.61,159.542"/>
    <path style="fill: none; fill-opacity:0; stroke-width: 0.02; stroke: #494936" d="M 497.721 162.265 L 497.721,159.657 L 505.507,159.657"/>
  </g>
  <g>
    <path style="fill: #b7b79d" d="M 515.024 293.863 L 515.024,326.4 L 535.301,326.4 L 535.301,293.863 L 515.024,293.863z"/>
    <path style="fill: #b7b79d" d="M 515.135 293.986 L 515.135,326.524 L 535.412,326.524 L 535.412,293.986 L 515.135,293.986z"/>
    <path style="fill: none; fill-opacity:0; stroke-width: 0.02; stroke: #494936" d="M 515.135 293.986 L 515.135,326.524 L 535.412,326.524 L 535.412,293.986 L 515.135,293.986"/>
    <path style="fill: #000000" d="M 516.371 302.642 L 524.4,302.642 L 524.4,305.484 L 516.371,305.484 L 516.371,302.642z"/>
    <path style="fill: none; fill-opacity:0; stroke-width: 0.02; stroke: #ecece7" d="M 516.371 302.642 L 524.395,302.642 L 524.395,305.48 L 516.371,305.48 L 516.371,302.642"/>
    <path style="fill: none; fill-opacity:0; stroke-width: 0.02; stroke: #494936" d="M 516.49 305.365 L 516.49,302.757 L 524.276,302.757"/>
    <path style="fill: #c9c9b6" d="M 515.024 293.863 L 522.328,286.524 L 542.614,286.524 L 535.301,293.863 L 515.024,293.863z"/>
    <path style="fill: #c9c9b6" d="M 515.135 293.986 L 522.452,286.635 L 542.729,286.635 L 535.412,293.986 L 515.135,293.986z"/>
    <path style="fill: none; fill-opacity:0; stroke-width: 0.02; stroke: #494936" d="M 515.135 293.986 L 522.452,286.635 L 542.729,286.635 L 535.412,293.986 L 515.135,293.986"/>
    <path style="fill: #7a7a5a" d="M 535.301 326.4 L 542.614,319.049 L 542.614,286.524 L 535.301,293.863 L 535.301,326.4z"/>
    <path style="fill: #7a7a5a" d="M 535.412 326.524 L 542.729,319.173 L 542.729,286.635 L 535.412,293.986 L 535.412,326.524z"/>
    <path style="fill: none; fill-opacity:0; stroke-width: 0.02; stroke: #494936" d="M 535.412 326.524 L 542.729,319.173 L 542.729,286.635 L 535.412,293.986 L 535.412,326.524"/>
    <path style="fill: none; fill-opacity:0; stroke-width: 2.24; stroke: #ecece7" d="M 535.301 297.54 L 515.258,297.54"/>
    <path style="fill: none; fill-opacity:0; stroke-width: 2.24; stroke: #494936" d="M 535.301 297.302 L 515.258,297.302"/>
    <path style="fill: none; fill-opacity:0; stroke-width: 3.06; stroke: #ecece7" d="M 534.824 297.783 L 534.828,297.779"/>
    <path style="fill: none; fill-opacity:0; stroke-width: 3.06; stroke: #494936" d="M 534.824 297.54 L 534.828,297.536"/>
    <path style="fill: #000000" d="M 525.81 302.642 L 533.831,302.642 L 533.831,305.484 L 525.81,305.484 L 525.81,302.642z"/>
    <path style="fill: none; fill-opacity:0; stroke-width: 0.02; stroke: #ecece7" d="M 525.81 302.642 L 533.826,302.642 L 533.826,305.48 L 525.81,305.48 L 525.81,302.642"/>
    <path style="fill: none; fill-opacity:0; stroke-width: 0.02; stroke: #494936" d="M 525.921 305.365 L 525.921,302.757 L 533.707,302.757"/>
  </g>
  <line style="fill: none; fill-opacity:0; stroke-width: 2; stroke: #000000" x1="218.852" y1="266.07" x2="327.197" y2="154.701"/>
  <line style="fill: none; fill-opacity:0; stroke-width: 2; stroke: #000000" x1="354.947" y1="144.866" x2="486.813" y2="161.639"/>
  <line style="fill: none; fill-opacity:0; stroke-width: 2; stroke: #000000" x1="352.474" y1="158.237" x2="395.227" y2="206.362"/>
  <line style="fill: none; fill-opacity:0; stroke-width: 2; stroke: #000000" x1="424.302" y1="232.196" x2="515.007" y2="297.842"/>
  <line style="fill: none; fill-opacity:0; stroke-width: 2; stroke: #000000" x1="218.863" y1="290.582" x2="312.404" y2="336.262"/>
  <line style="fill: none; fill-opacity:0; stroke-width: 2; stroke: #000000" x1="340.116" y1="339.062" x2="515.042" y2="308.239"/>
  <line style="fill: none; fill-opacity:0; stroke-width: 2; stroke: #000000" x1="522.697" y1="286.574" x2="502.375" y2="183.45"/>
  <g>
    <path style="fill: #b7b79d" d="M 594.226 239.936 L 634.195,239.936 L 634.195,247.323 L 594.226,247.323 L 594.226,239.936z"/>
    <path style="fill: none; fill-opacity:0; stroke-width: 0.02; stroke: #494936" d="M 594.226 239.936 L 634.195,239.936 L 634.195,247.323 L 594.226,247.323 L 594.226,239.936"/>
    <path style="fill: #c9c9b6" d="M 594.226 239.936 L 598.464,235.919 L 638.433,235.919 L 634.195,239.936 L 594.226,239.936z"/>
    <path style="fill: none; fill-opacity:0; stroke-width: 0.02; stroke: #494936" d="M 594.226 239.936 L 598.464,235.919 L 638.433,235.919 L 634.195,239.936 L 594.226,239.936"/>
    <path style="fill: none; fill-opacity:0; stroke-width: 2.12; stroke: #000000" d="M 631.959 243.299 L 622.368,243.299"/>
    <path style="fill: #7a7a5a" d="M 634.195 247.323 L 638.433,243.072 L 638.433,235.919 L 634.195,239.936 L 634.195,247.323z"/>
    <path style="fill: none; fill-opacity:0; stroke-width: 0.02; stroke: #494936" d="M 634.195 247.323 L 638.433,243.072 L 638.433,235.919 L 634.195,239.936 L 634.195,247.323"/>
    <path style="fill: #c9c9b6" d="M 594.453 252.008 L 598.911,246.423 L 629.73,246.423 L 625.271,252.008 L 594.453,252.008z"/>
    <path style="fill: none; fill-opacity:0; stroke-width: 0.02; stroke: #494936" d="M 594.453 252.008 L 598.911,246.423 L 629.73,246.423 L 625.271,252.008 L 594.453,252.008"/>
    <path style="fill: #7a7a5a" d="M 625.271 253.123 L 629.73,248.438 L 629.73,246.423 L 625.271,252.008 L 625.271,253.123z"/>
    <path style="fill: none; fill-opacity:0; stroke-width: 0.02; stroke: #494936" d="M 625.271 253.123 L 629.73,248.438 L 629.73,246.423 L 625.271,252.008 L 625.271,253.123"/>
    <path style="fill: #b7b79d" d="M 594.453 252.008 L 625.271,252.008 L 625.271,253.123 L 594.453,253.123 L 594.453,252.008z"/>
    <path style="fill: none; fill-opacity:0; stroke-width: 0.02; stroke: #494936" d="M 594.453 252.008 L 625.271,252.008 L 625.271,253.123 L 594.453,253.123 L 594.453,252.008"/>
    <path style="fill: #000000" d="M 600.252 239.048 L 603.609,235.919 L 631.959,235.919 L 628.842,239.048 L 600.252,239.048z"/>
    <path style="fill: none; fill-opacity:0; stroke-width: 0.02; stroke: #000000" d="M 600.252 239.048 L 603.609,235.919 L 631.959,235.919 L 628.842,239.048 L 600.252,239.048"/>
    <path style="fill: #c9c9b6" d="M 600.026 216.026 L 603.162,213.123 L 631.524,213.123 L 628.388,216.026 L 600.026,216.026z"/>
    <path style="fill: none; fill-opacity:0; stroke-width: 0.02; stroke: #494936" d="M 600.026 216.026 L 603.162,213.123 L 631.524,213.123 L 628.388,216.026 L 600.026,216.026"/>
    <path style="fill: #b7b79d" d="M 600.026 216.026 L 628.615,216.026 L 628.615,238.595 L 600.026,238.595 L 600.026,216.026z"/>
    <path style="fill: none; fill-opacity:0; stroke-width: 0.02; stroke: #494936" d="M 600.026 216.026 L 628.603,216.026 L 628.603,238.589 L 600.026,238.589 L 600.026,216.026"/>
    <path style="fill: #ffffff" d="M 602.482 218.923 L 626.153,218.923 L 626.153,236.36 L 602.482,236.36 L 602.482,218.923z"/>
    <path style="fill: none; fill-opacity:0; stroke-width: 0.02; stroke: #494936" d="M 602.482 218.923 L 626.153,218.923 L 626.153,236.353 L 602.482,236.353 L 602.482,218.923"/>
    <path style="fill: #7a7a5a" d="M 628.388 238.381 L 631.524,235.251 L 631.524,213.123 L 628.388,216.026 L 628.388,238.381z"/>
    <path style="fill: none; fill-opacity:0; stroke-width: 0.02; stroke: #494936" d="M 628.388 238.381 L 631.524,235.251 L 631.524,213.123 L 628.388,216.026 L 628.388,238.381"/>
  </g>
  <line style="fill: none; fill-opacity:0; stroke-width: 2; stroke: #000000" x1="218.763" y1="277.739" x2="394.891" y2="223.557"/>
  <line style="fill: none; fill-opacity:0; stroke-width: 2; stroke: #000000" x1="514.544" y1="173.156" x2="600.009" y2="226.239"/>
  <line style="fill: none; fill-opacity:0; stroke-width: 4; stroke: #0000ff" x1="211.21" y1="346.598" x2="594.211" y2="242.833"/>
  <g>
    <polygon style="fill: #ffffff" points="279,259 446.7,259 458.7,271 458.7,293 279,293 "/>
    <polygon style="fill: none; fill-opacity:0; stroke-width: 4; stroke: #0000ff" points="279,259 446.7,259 458.7,271 458.7,293 279,293 "/>
    <polyline style="fill: none; fill-opacity:0; stroke-width: 2; stroke: #0000ff" points="446.7,259 446.7,271 458.7,271 "/>
    <text font-size="12.7998" style="fill: #000000;text-anchor:start;font-family:monospace;font-style:normal;font-weight:normal" x="287" y="284.9">
      <tspan x="287" y="284.9">HELLO I LIKE CHATTING</tspan>
    </text>
  </g>
  <g>
    <polygon style="fill: #ffffff" points="563,165.5 607.5,165.5 619.5,177.5 619.5,199.5 563,199.5 "/>
    <polygon style="fill: none; fill-opacity:0; stroke-width: 4; stroke: #000000" points="563,165.5 607.5,165.5 619.5,177.5 619.5,199.5 563,199.5 "/>
    <polyline style="fill: none; fill-opacity:0; stroke-width: 2; stroke: #000000" points="607.5,165.5 607.5,177.5 619.5,177.5 "/>
    <text font-size="12.7998" style="fill: #000000;text-anchor:start;font-family:monospace;font-style:normal;font-weight:normal" x="571" y="191.4">
      <tspan x="571" y="191.4">HELLO</tspan>
    </text>
  </g>
  <g>
    <polygon style="fill: #ffffff" points="404,333.5 456.2,333.5 468.2,345.5 468.2,367.5 404,367.5 "/>
    <polygon style="fill: none; fill-opacity:0; stroke-width: 4; stroke: #000000" points="404,333.5 456.2,333.5 468.2,345.5 468.2,367.5 404,367.5 "/>
    <polyline style="fill: none; fill-opacity:0; stroke-width: 2; stroke: #000000" points="456.2,333.5 456.2,345.5 468.2,345.5 "/>
    <text font-size="12.7998" style="fill: #000000;text-anchor:start;font-family:monospace;font-style:normal;font-weight:normal" x="412" y="359.4">
      <tspan x="412" y="359.4">I LIKE</tspan>
    </text>
  </g>
  <g>
    <polygon style="fill: #ffffff" points="185,182.5 252.6,182.5 264.6,194.5 264.6,216.5 185,216.5 "/>
    <polygon style="fill: none; fill-opacity:0; stroke-width: 4; stroke: #000000" points="185,182.5 252.6,182.5 264.6,194.5 264.6,216.5 185,216.5 "/>
    <polyline style="fill: none; fill-opacity:0; stroke-width: 2; stroke: #000000" points="252.6,182.5 252.6,194.5 264.6,194.5 "/>
    <text font-size="12.7998" style="fill: #000000;text-anchor:start;font-family:monospace;font-style:normal;font-weight:normal" x="193" y="208.4">
      <tspan x="193" y="208.4">CHATTING</tspan>
    </text>
  </g>
  <text font-size="12.7998" style="fill: #000000;text-anchor:start;font-family:sans-serif;font-style:normal;font-weight:normal" x="131" y="382">
    <tspan x="131" y="382">151.97.240.5:87</tspan>
  </text>
  <text font-size="12.7998" style="fill: #000000;text-anchor:start;font-family:sans-serif;font-style:normal;font-weight:normal" x="557" y="271.5">
    <tspan x="557" y="271.5">130.186.6.32:1030</tspan>
  </text>
</svg>
