<?xml version="1.0" encoding="UTF-8" standalone="no"?>
<!DOCTYPE svg PUBLIC "-//W3C//DTD SVG 1.0//EN" "http://www.w3.org/TR/2001/PR-SVG-20010719/DTD/svg10.dtd">
<svg width="18cm" height="18cm" viewBox="42 63 346 356" xmlns="http://www.w3.org/2000/svg" xmlns:xlink="http://www.w3.org/1999/xlink">
  <g>
    <rect style="fill: #b3b3b3" x="42.661" y="64" width="58.6525" height="43.9894"/>
    <rect style="fill: none; fill-opacity:0; stroke-width: 1; stroke: #000000" x="42.661" y="64" width="58.6525" height="43.9894"/>
    <rect style="fill: #000000" x="49.015" y="70.354" width="45.9445" height="30.3038"/>
    <polygon style="fill: #b3b3b3" points="50.6035,107.989 80.7852,107.989 80.7852,114.832 52.1921,114.832 "/>
    <polygon style="fill: none; fill-opacity:0; stroke-width: 1; stroke: #000000" points="50.6035,107.989 80.7852,107.989 80.7852,114.832 52.1921,114.832 "/>
    <polygon style="fill: #b3b3b3" points="80.7852,107.989 93.371,107.989 91.7825,114.832 80.7852,114.832 "/>
    <polygon style="fill: none; fill-opacity:0; stroke-width: 1; stroke: #000000" points="80.7852,107.989 93.371,107.989 91.7825,114.832 80.7852,114.832 "/>
    <rect style="fill: #ffffff" x="82.838" y="110.042" width="2.73712" height="2.73712"/>
    <rect style="fill: none; fill-opacity:0; stroke-width: 0.5; stroke: #000000" x="82.838" y="110.042" width="2.73712" height="2.73712"/>
    <polygon style="fill: #b3b3b3" points="66.122,114.832 77.8525,114.832 77.8525,118.254 83.7178,118.254 83.7178,121.675 60.2568,121.675 60.2568,118.254 66.122,118.254 "/>
    <polygon style="fill: none; fill-opacity:0; stroke-width: 1; stroke: #000000" points="66.122,114.832 77.8525,114.832 77.8525,118.254 83.7178,118.254 83.7178,121.675 60.2568,121.675 60.2568,118.254 66.122,118.254 "/>
    <text font-size="12.7998" style="fill: #000000;text-anchor:middle;font-family:sans-serif;font-style:normal;font-weight:normal" x="71.9873" y="135.63">
      <tspan x="71.9873" y="135.63"></tspan>
    </text>
  </g>
  <g>
    <rect style="fill: #b3b3b3" x="47.4703" y="236" width="55.3517" height="41.5138"/>
    <rect style="fill: none; fill-opacity:0; stroke-width: 1; stroke: #000000" x="47.4703" y="236" width="55.3517" height="41.5138"/>
    <rect style="fill: #000000" x="53.4668" y="241.996" width="43.3588" height="28.5984"/>
    <polygon style="fill: #b3b3b3" points="54.9659,277.514 83.4489,277.514 83.4489,283.971 56.465,283.971 "/>
    <polygon style="fill: none; fill-opacity:0; stroke-width: 1; stroke: #000000" points="54.9659,277.514 83.4489,277.514 83.4489,283.971 56.465,283.971 "/>
    <polygon style="fill: #b3b3b3" points="83.4489,277.514 95.3265,277.514 93.8274,283.971 83.4489,283.971 "/>
    <polygon style="fill: none; fill-opacity:0; stroke-width: 1; stroke: #000000" points="83.4489,277.514 95.3265,277.514 93.8274,283.971 83.4489,283.971 "/>
    <rect style="fill: #ffffff" x="85.3862" y="279.451" width="2.58308" height="2.58308"/>
    <rect style="fill: none; fill-opacity:0; stroke-width: 0.5; stroke: #000000" x="85.3862" y="279.451" width="2.58308" height="2.58308"/>
    <polygon style="fill: #b3b3b3" points="69.611,283.971 80.6814,283.971 80.6814,287.2 86.2165,287.2 86.2165,290.429 64.0758,290.429 64.0758,287.2 69.611,287.2 "/>
    <polygon style="fill: none; fill-opacity:0; stroke-width: 1; stroke: #000000" points="69.611,283.971 80.6814,283.971 80.6814,287.2 86.2165,287.2 86.2165,290.429 64.0758,290.429 64.0758,287.2 69.611,287.2 "/>
    <text font-size="12.7998" style="fill: #000000;text-anchor:middle;font-family:sans-serif;font-style:normal;font-weight:normal" x="75.1462" y="304.274">
      <tspan x="75.1462" y="304.274"></tspan>
    </text>
  </g>
  <g>
    <rect style="fill: #b3b3b3" x="331.356" y="206" width="44.677" height="104.246"/>
    <rect style="fill: none; fill-opacity:0; stroke-width: 1.6; stroke: #000000" x="331.356" y="206" width="44.677" height="104.246"/>
    <rect style="fill: none; fill-opacity:0; stroke-width: 0.2; stroke: #000000" x="335.824" y="212.255" width="35.7416" height="11.9139"/>
    <rect style="fill: none; fill-opacity:0; stroke-width: 0.2; stroke: #000000" x="335.824" y="224.169" width="35.7416" height="11.9139"/>
    <rect style="fill: none; fill-opacity:0; stroke-width: 0.2; stroke: #000000" x="335.824" y="236.083" width="35.7416" height="11.9139"/>
    <rect style="fill: none; fill-opacity:0; stroke-width: 0.2; stroke: #000000" x="335.824" y="247.996" width="35.7416" height="11.9139"/>
    <rect style="fill: none; fill-opacity:0; stroke-width: 0.2; stroke: #000000" x="335.824" y="262.293" width="22.3385" height="7.14833"/>
    <ellipse style="fill: #00ff00" cx="369.332" cy="263.484" rx="1.5637" ry="1.5637"/>
    <ellipse style="fill: none; fill-opacity:0; stroke-width: 0.2; stroke: #000000" cx="369.332" cy="263.484" rx="1.5637" ry="1.5637"/>
    <ellipse style="fill: #ffff00" cx="369.332" cy="268.25" rx="1.5637" ry="1.5637"/>
    <ellipse style="fill: none; fill-opacity:0; stroke-width: 0.2; stroke: #000000" cx="369.332" cy="268.25" rx="1.5637" ry="1.5637"/>
    <rect style="fill: #ffffff" x="360.397" y="264.676" width="5.36124" height="4.76555"/>
    <rect style="fill: none; fill-opacity:0; stroke-width: 0.2; stroke: #000000" x="360.397" y="264.676" width="5.36124" height="4.76555"/>
    <path style="fill: none; fill-opacity:0; stroke-width: 0.2; stroke: #000000" d="M 338.803 278.972 L 338.803,305.034"/>
    <path style="fill: none; fill-opacity:0; stroke-width: 0.2; stroke: #000000" d="M 346.249 278.972 L 346.249,305.034"/>
    <path style="fill: none; fill-opacity:0; stroke-width: 0.2; stroke: #000000" d="M 353.695 278.972 L 353.695,305.034"/>
    <path style="fill: none; fill-opacity:0; stroke-width: 0.2; stroke: #000000" d="M 361.141 278.972 L 361.141,305.034"/>
    <path style="fill: none; fill-opacity:0; stroke-width: 0.2; stroke: #000000" d="M 368.587 278.972 L 368.587,305.034"/>
    <path style="fill: none; fill-opacity:0; stroke-width: 0.2; stroke: #000000" d="M 376.033 278.972 L 376.033,305.034"/>
    <polygon style="fill: #999999" points="322.421,319.182 331.356,301.311 331.356,310.246 376.033,310.246 376.033,301.311 387.947,319.182 "/>
    <polygon style="fill: none; fill-opacity:0; stroke-width: 0.2; stroke: #000000" points="322.421,319.182 331.356,301.311 331.356,310.246 376.033,310.246 376.033,301.311 387.947,319.182 "/>
    <text font-size="12.7998" style="fill: #000000;text-anchor:middle;font-family:sans-serif;font-style:normal;font-weight:normal" x="355.184" y="334.16">
      <tspan x="355.184" y="334.16"></tspan>
    </text>
  </g>
  <g>
    <line style="fill: none; fill-opacity:0; stroke-width: 2; stroke: #000000" x1="344.97" y1="201.918" x2="101.804" y2="104.752"/>
    <polygon style="fill: #000000" points="343.114,206.561 354.256,205.629 346.825,197.275 "/>
    <polygon style="fill: none; fill-opacity:0; stroke-width: 2; stroke: #000000" points="343.114,206.561 354.256,205.629 346.825,197.275 "/>
  </g>
  <text font-size="12.7998" style="fill: #000000;text-anchor:start;font-family:sans-serif;font-style:normal;font-weight:normal" x="210" y="128">
    <tspan x="210" y="128">GET</tspan>
  </text>
  <g>
    <line style="fill: none; fill-opacity:0; stroke-width: 2; stroke: #000000" x1="319.554" y1="262.67" x2="103.323" y2="263.152"/>
    <polygon style="fill: #000000" points="319.566,267.67 329.554,262.648 319.543,257.67 "/>
    <polygon style="fill: none; fill-opacity:0; stroke-width: 2; stroke: #000000" points="319.566,267.67 329.554,262.648 319.543,257.67 "/>
  </g>
  <text font-size="12.7998" style="fill: #000000;text-anchor:start;font-family:sans-serif;font-style:normal;font-weight:normal" x="191" y="251">
    <tspan x="191" y="251">GET</tspan>
  </text>
  <ellipse style="fill: #000000" cx="302" cy="230" rx="10" ry="10"/>
  <g>
    <line style="fill: none; fill-opacity:0; stroke-width: 2; stroke: #000000" x1="81.856" y1="126.534" x2="292" y2="230"/>
    <polygon style="fill: #000000" points="84.0646,122.048 72.8844,122.117 79.6474,131.02 "/>
    <polygon style="fill: none; fill-opacity:0; stroke-width: 2; stroke: #000000" points="84.0646,122.048 72.8844,122.117 79.6474,131.02 "/>
  </g>
  <g>
    <line style="fill: none; fill-opacity:0; stroke-width: 2; stroke-dasharray: 4; stroke: #000000" x1="321.615" y1="224.656" x2="355.184" y2="206"/>
    <polygon style="fill: #000000" points="319.186,220.286 312.874,229.514 324.044,229.027 "/>
    <polygon style="fill: none; fill-opacity:0; stroke-width: 2; stroke: #000000" points="319.186,220.286 312.874,229.514 324.044,229.027 "/>
  </g>
  <g>
    <polygon style="fill: #ffffff" points="120,176 187.6,176 199.6,188 199.6,210 120,210 "/>
    <polygon style="fill: none; fill-opacity:0; stroke-width: 2; stroke: #000000" points="120,176 187.6,176 199.6,188 199.6,210 120,210 "/>
    <polyline style="fill: none; fill-opacity:0; stroke-width: 1; stroke: #000000" points="187.6,176 187.6,188 199.6,188 "/>
    <text font-size="12.7998" style="fill: #000000;text-anchor:start;font-family:monospace;font-style:normal;font-weight:normal" x="127" y="200.9">
      <tspan x="127" y="200.9">Web Page</tspan>
    </text>
  </g>
  <ellipse style="fill: #000000" cx="265" cy="298" rx="10" ry="10"/>
  <g>
    <line style="fill: none; fill-opacity:0; stroke-width: 2; stroke-dasharray: 4; stroke: #000000" x1="286.204" y1="289.675" x2="330.557" y2="272.26"/>
    <polygon style="fill: #000000" points="284.376,285.021 276.896,293.329 288.031,294.329 "/>
    <polygon style="fill: none; fill-opacity:0; stroke-width: 2; stroke: #000000" points="284.376,285.021 276.896,293.329 288.031,294.329 "/>
  </g>
  <g>
    <line style="fill: none; fill-opacity:0; stroke-width: 2; stroke: #000000" x1="113.406" y1="270.225" x2="254.003" y2="295.985"/>
    <polygon style="fill: #000000" points="114.307,265.306 103.57,268.422 112.505,275.143 "/>
    <polygon style="fill: none; fill-opacity:0; stroke-width: 2; stroke: #000000" points="114.307,265.306 103.57,268.422 112.505,275.143 "/>
  </g>
  <g>
    <polygon style="fill: #ffffff" points="126.5,290.6 194.1,290.6 206.1,302.6 206.1,324.6 126.5,324.6 "/>
    <polygon style="fill: none; fill-opacity:0; stroke-width: 2; stroke: #000000" points="126.5,290.6 194.1,290.6 206.1,302.6 206.1,324.6 126.5,324.6 "/>
    <polyline style="fill: none; fill-opacity:0; stroke-width: 1; stroke: #000000" points="194.1,290.6 194.1,302.6 206.1,302.6 "/>
    <text font-size="12.7998" style="fill: #000000;text-anchor:start;font-family:monospace;font-style:normal;font-weight:normal" x="133.5" y="315.5">
      <tspan x="133.5" y="315.5">Web Page</tspan>
    </text>
  </g>
  <g>
    <rect style="fill: #ffffff" x="295" y="350.5" width="34" height="30"/>
    <ellipse style="fill: #ffffff" cx="312" cy="380.5" rx="17" ry="5"/>
    <ellipse style="fill: #ffffff" cx="312" cy="350.5" rx="17" ry="5"/>
    <ellipse style="fill: none; fill-opacity:0; stroke-width: 2; stroke: #000000" cx="312" cy="350.5" rx="17" ry="5"/>
    <path style="fill: none; fill-opacity:0; stroke-width: 2; stroke: #000000" d="M 329 350.5 L 329,380.5 C 329,383.261 321.389,385.5 312,385.5 C 302.611,385.5 295,383.261 295,380.5 L 295,350.5"/>
    <text font-size="12.7998" style="fill: #000000;text-anchor:middle;font-family:sans-serif;font-style:normal;font-weight:normal" x="312" y="397.5">
      <tspan x="312" y="397.5">n.visits</tspan>
      <tspan x="312" y="413.5"></tspan>
    </text>
  </g>
  <line style="fill: none; fill-opacity:0; stroke-width: 2; stroke: #000000" x1="303.055" y1="240.999" x2="312.987" y2="344.518"/>
  <line style="fill: none; fill-opacity:0; stroke-width: 2; stroke: #000000" x1="273.13" y1="308.975" x2="300.69" y2="346.182"/>
</svg>
