<?xml version="1.0" encoding="UTF-8" standalone="no"?>
<!DOCTYPE svg PUBLIC "-//W3C//DTD SVG 1.0//EN" "http://www.w3.org/TR/2001/PR-SVG-20010719/DTD/svg10.dtd">
<svg width="15cm" height="15cm" viewBox="22 97 284 288" xmlns="http://www.w3.org/2000/svg" xmlns:xlink="http://www.w3.org/1999/xlink">
  <g id="Sfondo">
    <g>
      <rect style="fill: #ffffff; fill-opacity: 1; stroke-opacity: 1; stroke-width: 2; stroke: #000000" x="53" y="99" width="111.5" height="36"/>
      <text font-size="12.7998" style="fill: #000000; fill-opacity: 1; stroke: none;text-anchor:middle;font-family:sans-serif;font-style:normal;font-weight:normal" x="108.75" y="120.881">
        <tspan x="108.75" y="120.881">http://ex.org/o</tspan>
      </text>
      <line style="fill: none; stroke-opacity: 1; stroke-width: 1; stroke: #000000" x1="63" y1="123.9" x2="154.5" y2="123.9"/>
    </g>
    <g>
      <rect style="fill: #ffffff; fill-opacity: 1; stroke-opacity: 1; stroke-width: 2; stroke: #000000" x="55" y="215" width="107.2" height="36"/>
      <text font-size="12.7998" style="fill: #000000; fill-opacity: 1; stroke: none;text-anchor:middle;font-family:sans-serif;font-style:normal;font-weight:normal" x="108.6" y="236.881">
        <tspan x="108.6" y="236.881">http://ex.org/l</tspan>
      </text>
      <line style="fill: none; stroke-opacity: 1; stroke-width: 1; stroke: #000000" x1="65" y1="239.9" x2="152.2" y2="239.9"/>
    </g>
    <g>
      <polygon style="fill: #ffffff; fill-opacity: 1; stroke-opacity: 1; stroke-width: 2; stroke: #000000" fill-rule="evenodd" points="24,351 184,351 196,363 196,385 24,385 "/>
      <polyline style="fill: none; stroke-opacity: 1; stroke-width: 1; stroke: #000000" points="184,351 184,363 196,363 "/>
      <text font-size="12.7998" style="fill: #000000; fill-opacity: 1; stroke: none;text-anchor:start;font-family:monospace;font-style:normal;font-weight:normal" x="31" y="375.881">
        <tspan x="31" y="375.881">http://www.alice.com</tspan>
      </text>
    </g>
    <g>
      <polyline style="fill: none; stroke-opacity: 1; stroke-width: 2; stroke: #000000" points="108.75,135 108.75,167.5 108.6,167.5 108.6,210.528 "/>
      <polyline style="fill: none; stroke-opacity: 1; stroke-width: 2; stroke: #000000" points="100.6,196.764 108.6,212.764 116.6,196.764 "/>
      <text font-size="12.7998" style="fill: #000000; fill-opacity: 1; stroke: none;text-anchor:middle;font-family:monospace;font-style:normal;font-weight:normal" x="108.675" y="164.481">actor</text>
    </g>
    <g>
      <polyline style="fill: none; stroke-opacity: 1; stroke-width: 2; stroke: #000000" points="108.6,251 110,251 110,346.528 "/>
      <polyline style="fill: none; stroke-opacity: 1; stroke-width: 2; stroke: #000000" points="102,332.764 110,348.764 118,332.764 "/>
      <text font-size="12.7998" style="fill: #000000; fill-opacity: 1; stroke: none;text-anchor:start;font-family:monospace;font-style:normal;font-weight:normal" x="112" y="297.981">href</text>
    </g>
    <g>
      <rect style="fill: #ffffff; fill-opacity: 1; stroke-opacity: 1; stroke-width: 2; stroke: #000000" x="190" y="217" width="115.162" height="36"/>
      <text font-size="12.7998" style="fill: #000000; fill-opacity: 1; stroke: none;text-anchor:middle;font-family:sans-serif;font-style:normal;font-weight:normal" x="247.581" y="238.881">
        <tspan x="247.581" y="238.881">unknown actor</tspan>
      </text>
      <line style="fill: none; stroke-opacity: 1; stroke-width: 1; stroke: #000000" x1="200" y1="241.9" x2="295.162" y2="241.9"/>
    </g>
    <g>
      <polyline style="fill: none; stroke-opacity: 1; stroke-width: 2; stroke-dasharray: 8; stroke: #000000" points="164.5,117 247.581,117 247.581,210.295 "/>
      <polyline style="fill: none; stroke-opacity: 1; stroke-width: 2; stroke: #000000" points="242.581,197.647 247.581,213.647 252.581,197.647 "/>
      <text font-size="12.7998" style="fill: #000000; fill-opacity: 1; stroke: none;text-anchor:middle;font-family:monospace;font-style:normal;font-weight:normal" x="206.041" y="113.981">actor</text>
    </g>
    <g>
      <polyline style="fill: none; stroke-opacity: 1; stroke-width: 2; stroke-dasharray: 8; stroke: #000000" points="247.581,253 247.581,368 202.705,368 "/>
      <polyline style="fill: none; stroke-opacity: 1; stroke-width: 2; stroke: #000000" points="215.353,363 199.353,368 215.353,373 "/>
    </g>
  </g>
</svg>
